<?xml version="1.0" encoding="utf-8"?>
<!-- Generator: Adobe Illustrator 24.0.2, SVG Export Plug-In . SVG Version: 6.00 Build 0)  -->
<svg version="1.1" id="Слой_1" xmlns="http://www.w3.org/2000/svg" xmlns:xlink="http://www.w3.org/1999/xlink" x="0px" y="0px"
	 viewBox="0 0 2000 1645.3" enable-background="new 0 0 2000 1645.3" xml:space="preserve">
<g>
	<path fill="#A1C5E2" d="M1065.9,1125h319.8c42.9,0,77.7-34.8,77.7-77.7V389.9c0-42.9-34.8-77.7-77.7-77.7h-253.8
		c-42.9,0-77.7,34.8-77.7,77.7v594.8l-66,62.5C988.2,1090.2,1023,1125,1065.9,1125z"/>
	<path fill="#0E2549" d="M1385.7,1126.8h-319.8c-43.9,0-79.6-35.7-79.6-79.6v-0.8l66-62.5v-594c0-43.9,35.7-79.6,79.6-79.6h253.8
		c43.9,0,79.6,35.7,79.6,79.6v657.3C1465.3,1091.1,1429.6,1126.8,1385.7,1126.8z M990,1048c0.4,41.5,34.3,75.1,75.9,75.1h319.8
		c41.8,0,75.9-34,75.9-75.9V389.9c0-41.8-34-75.9-75.9-75.9h-253.8c-41.8,0-75.9,34-75.9,75.9v595.6L990,1048z"/>
	<path fill="#0E2549" d="M1426.9,982.9h-79.6c-17.6-215.7,34.9-539.5,35.4-542.8c0.2-1-0.5-2-1.5-2.1c-1-0.2-2,0.5-2.1,1.5
		c-0.5,3.3-53,327.2-35.5,543.4h-43.7c-1,0-1.9,0.8-1.9,1.9s0.8,1.9,1.9,1.9h127c1,0,1.9-0.8,1.9-1.9S1427.9,982.9,1426.9,982.9z"/>
	<path fill="#0E2549" d="M904.8,36.9c0,0-51.1,33-56.8,99.9c-5.7,66.9,2.3,73.2,32.1,99.1c29.8,25.9,48.4,41,33.5,70.6
		c-14.9,29.6-6.5,45.4-3.3,59.7c3.2,14.3,39.9,30.2,43.5,47.7c13,63.1,27.5,89,27.5,89l318.6-69.4c0,0-11.8-132.1-36.4-180.8
		c-15.4-30.3-67.9-34-83.5-51.6c-10.7-12.1-3.5-86.4-22.6-96.4c-35-18.2-49.4-8.5-65.1-43.3C1083.8,42.8,1007.1-45.1,904.8,36.9z"/>
	<polygon fill="#FFFFFF" points="797.7,1447.2 813.1,1597.4 893.3,1590.3 885.8,1443.6 	"/>
	<path fill="#0E2549" d="M811.5,1599.4l-15.8-154l91.9-3.8l7.7,150.3L811.5,1599.4z M799.7,1449l15.1,146.4l76.6-6.8l-7.3-143.1
		L799.7,1449z"/>
	<polygon fill="#FFFFFF" points="910.8,1460 912.9,1596.1 987.3,1589.5 997.9,1451.8 	"/>
	<path fill="#0E2549" d="M911.1,1598.1l-2.2-139.8l91-8.6L989,1591.2L911.1,1598.1z M912.7,1461.7l2,132.3l70.8-6.3l10.3-133.9
		L912.7,1461.7z"/>
	<path fill="#0E2549" d="M1098.8,922.9l-245.6,202l40.1,352.2h113.8c0,0,4.2-55.5,17.3-321.2c0,0,276.4-119.8,294.2-189
		c25.8-100.2-53.6-199.2-53.6-199.2l-5-45.9l-236.9-10.6l24.8,73.6c0,0-290.4,211.5-316.6,295.7c-9.5,30.5,55.1,394.5,55.1,394.5
		l111.6-2.2c0,0-30-309.4-25.6-318.8c34.5-74.5,257.3-183,257.3-183L1098.8,922.9z"/>
	<path fill="#FFFFFF" d="M1061.6,180.7c0,0,56.4,100.8,63.2,104c99,46.6,123.4,84.4,133.6,81.4c10.2-3-157.8,65-157.8,65l-94.4,8.8
		l-23.1-60.9c0,0,48-38.1,51.8-55.1c3.8-17-48.5-90-48.5-90L1061.6,180.7z"/>
	<path fill="#0E2549" d="M1004.9,441.8l-24.1-63.5l1.1-0.8c0.5-0.4,47.5-37.8,51.1-54c3-13.3-33.8-68.4-48.2-88.5l-1.1-1.5
		l78.4-55.4l1,1.8c21.5,38.4,57.4,100.3,62.4,103.2c62.4,29.4,95.7,55.6,113.6,69.7c9.5,7.5,15.8,12.4,18.6,11.6
		c2-0.6,2.6,0.7,2.7,1.1c0.6,1.7-0.8,2.3-2.7,3.2c-1.2,0.5-2.9,1.3-5,2.2c-4.1,1.7-10.1,4.3-17.9,7.5c-13.1,5.4-31.4,12.9-54.4,22.3
		c-39.2,16-78.9,32-79.3,32.2l-0.3,0.1L1004.9,441.8z M985.3,379.5l22.1,58.4l92.7-8.6c37.9-15.3,129.6-52.5,152.5-62.4
		c-3.8-1.9-8.7-5.7-15.7-11.2c-17.8-14-50.8-40.1-112.9-69.3c-6.8-3.2-51.6-82.6-63-103l-72,50.8c8.8,12.4,51.4,73.5,47.7,90
		C1033.1,340.4,992.6,373.6,985.3,379.5z"/>
	<path fill="#FFFFFF" d="M1071.4,199.3c6.9-14.8,17.7-42.8,9-58.3c-8.7-15.5-25-3.2-28.8,2.5c-2.5,3.7-45.3-74.4-45.3-74.4
		L885,134.6c0,0,22.5,75.9,52.3,115.3c29.9,39.5,55.9,38.6,87.4,21.3c15.6-8.6,25.5-19.2,32-29.7L1071.4,199.3z"/>
	<path fill="#0E2549" d="M988.4,284.4c-2.9,0-5.6-0.3-8.4-0.8c-15.2-2.7-29.7-13.4-44.3-32.7c-29.7-39.2-52.4-115.1-52.6-115.9
		l-0.4-1.4l124.3-67.1l0.9,1.6c14.1,25.7,37.3,66.5,43.2,72.9c3.4-4,11-9.8,18.6-9.5c3.5,0.1,8.6,1.7,12.4,8.5
		c9.1,16.1-1.7,44.5-8.9,60c-0.4,0.9-1.5,1.3-2.5,0.9c-0.9-0.4-1.3-1.5-0.9-2.5c6.9-14.8,17.3-41.9,9.1-56.6
		c-2.4-4.2-5.5-6.4-9.3-6.6c-6.9-0.3-14.2,5.9-16.4,9.2c-0.4,0.6-1.1,1-1.9,0.9c-1.6-0.1-3.8-0.2-25.7-38.3
		c-8.8-15.3-17.3-30.7-20-35.6l-118.4,63.9c3.3,10.7,24.5,77.6,51.5,113.3c30,39.6,55.7,36.9,85,20.8c13.5-7.4,24-17.2,31.3-29.1
		c0.5-0.9,1.7-1.1,2.6-0.6c0.9,0.5,1.1,1.7,0.6,2.6c-7.6,12.4-18.6,22.6-32.7,30.4C1011.2,280.7,999.4,284.4,988.4,284.4z"/>
	<path fill="#0E2549" d="M868.5,138.3c0,0,128.3-33.7,180.9,5.3c0,0,4.8-7.1,9.9-9.6c6.5-3.3,9.9-2.5,9.9-2.5l-59.9-82.9
		L868.5,138.3z"/>
	<path fill="#E2474B" d="M1237.9,350.5c29.4-6,127,120.8,166.5,199.6c80.8,161.2-142.4,123.9-142.4,123.9l30.2-192.2L1277,762.1
		l-236.9,15.7l-59-272c0,0-3.3,168.9-88.9,168.9c-51.4,0-52.3-183.7-52.3-183.7l55.7-8.7c0,0,6.9-52.5,58.7-106.2
		c24.5-25.3,44.6-40.2,55.1-42.8C1041.2,325.4,1006.4,397.6,1237.9,350.5z"/>
	<path fill="#FFFFFF" d="M924.1,327.8c-4.3,10.1,4.2,220.1,20,222c15.8,2-5.3,139.9-67.5,69.8c-62.1-70.1,19-284.9,16.4-300.8
		c-0.8-5.2,5.2-59.7,8.2-64.8c11.7-19.5,52.3,11.5,62.1,21.6C968.3,280.7,928.6,317.1,924.1,327.8z"/>
	<path fill="#0E2549" d="M909.2,641.4c-10.5,0-21.9-6.9-34-20.5c-48.8-55-10.7-197.2,7.6-265.5c5-18.5,8.9-33.1,8.4-36.3
		c-0.7-4.6,4.9-60.2,8.4-66c2.5-4.1,6.2-6.5,11.2-7.1c17.7-2.1,46.1,20.4,53.9,28.3c3.7,3.8-3.1,12.1-20.7,31.7
		c-8.1,9-16.4,18.2-18.2,22.4l0,0c-1.7,4-1.2,49.8,2,102.8c3.7,61.4,9.3,104.3,15,114.8c0.9,1.7,1.5,1.9,1.6,1.9
		c3.1,0.4,5.1,3.6,6,9.5c3,18.5-5.8,69.8-30.7,81.6C916.3,640.6,912.8,641.4,909.2,641.4z M913.3,249.6c-0.7,0-1.4,0-2,0.1
		c-3.8,0.4-6.5,2.2-8.4,5.3c-2.6,4.4-8.8,58.3-8,63.5c0.6,3.8-2.3,15-8.4,37.8c-18.1,67.7-55.9,208.5-8.4,262.1
		c15,16.9,28.5,22.7,40.1,17.2c21.6-10.2,31.8-57.7,28.6-77.6c-0.7-4.2-1.9-6.2-2.8-6.4c-1.6-0.2-2.9-1.3-4.2-3.5
		c-8.7-15-13.8-86.2-15.6-116.1c-2.8-46.1-4.1-99.3-1.7-105l0,0c2-4.8,10.2-13.8,18.8-23.4c7.9-8.8,21.1-23.5,20.7-26.7
		C953.6,268.4,928.9,249.6,913.3,249.6z M924.1,327.8L924.1,327.8L924.1,327.8z"/>
	<path fill="#E2474B" d="M838.1,468.6c0,0,98-1.9,99.3,0.7c7.1,14.7,22.4,104.4,22.4,104.4s-26.1,86.3-45,89.7
		c-49.4,8.8-67.6-79-67.6-79L838.1,468.6z"/>
	<path fill="#E2474B" d="M813.9,1569.2c0,0-111.8-20.2-114.9,28.5c-3.1,48.7,0,45.6,0,45.6h194.9l3.8-58.8
		C897.7,1584.6,824.4,1601,813.9,1569.2z"/>
	<path fill="#E2474B" d="M909,1565.6c0,0-112.9-17.4-116,31.3c-3.1,48.7,0,45.6,0,45.6h194.9l3-57.2
		C990.9,1585.3,919.6,1597.4,909,1565.6z"/>
	<path fill="#0E2549" d="M1998.1,1645.3H1.9c-1,0-1.9-0.8-1.9-1.9c0-1,0.8-1.9,1.9-1.9h1996.3c1,0,1.9,0.8,1.9,1.9
		C2000,1644.5,1999.2,1645.3,1998.1,1645.3z"/>
	<path fill="#0E2549" d="M943,206.9c-1.4,0-2.8-0.8-3.4-2.2l-1.8-4.1c-0.8-1.9,0-4.1,1.9-4.9c1.9-0.8,4.1,0,4.9,1.9l1.8,4.1
		c0.8,1.9,0,4.1-1.9,4.9C944,206.8,943.5,206.9,943,206.9z"/>
	<path fill="#0E2549" d="M996.6,177.2c-1.4,0-2.8-0.8-3.4-2.2l-1.8-4.1c-0.8-1.9,0-4.1,1.9-4.9c1.9-0.8,4.1,0,4.9,1.9l1.8,4.1
		c0.8,1.9,0,4.1-1.9,4.9C997.7,177.1,997.1,177.2,996.6,177.2z"/>
	<path fill="#FFFFFF" d="M971.6,147.2c0,0,15.3,0,30.6-4.8L971.6,147.2z"/>
	<path fill="#0E2549" d="M971.6,149.3c-0.9,0.5-1.1,1.7-0.5,2.6c0.6,0.9,1.8,1.2,2.6,0.7c0.1-0.1,12.9-8.1,28-12
		c1-0.3,1.6-1.3,1.3-2.3c-0.3-1-1.3-1.7-2.3-1.4C984.9,140.9,972.1,148.9,971.6,149.3z"/>
	<path fill="#0E2549" d="M967.8,241.1c-0.2,1.6,15.4,8.1,24.7,2.8c10.4-5.9,14.5-22.3,11.4-21.7c-3.3,0.7-3.9,4.3-17.1,12
		C973.6,241.8,968.3,237.3,967.8,241.1z"/>
	<rect x="788.7" y="1630.2" fill="#0E2549" width="202.5" height="11.2"/>
	<rect x="695.2" y="1631" fill="#0E2549" width="202.5" height="11.2"/>
	<path fill="#A1C5E2" d="M893.3,1453.6c-1,0-1.8-0.8-1.9-1.8l-21-363.7l0.6-0.6l239.8-245.5c0.7-0.7,1.9-0.7,2.6,0
		c0.7,0.7,0.7,1.9,0,2.6l-239.2,244.9l20.9,362c0.1,1-0.7,1.9-1.7,2C893.4,1453.6,893.3,1453.6,893.3,1453.6z"/>
	<path fill="#A1C5E2" d="M934.4,240.3c-1.2,0-2.2-0.1-3.1-0.5c-7.6-2.7-26.3-31.3-28.4-34.6l-1.1-1.7l49-26.6l0.8,1.8
		c2.8,5.9,16.7,35.4,15.6,41.5c-1,5.5-8.5,10.6-12.9,13.2C948.2,237,940,240.3,934.4,240.3z M907.2,204.9
		c7.8,12,20.8,29.8,25.4,31.4c3.2,1.1,12.2-1.6,20-6.1c6.4-3.7,10.6-7.8,11.1-10.6c0.6-3.5-7.8-23.4-14.4-37.5L907.2,204.9z"/>
	<path fill="#0E2549" d="M963.3,219.9c-1.7,0-3.1-0.4-3.9-1.2c-1.6-1.7-1.3-4-0.9-7.5c0.5-4.6,1.4-12.4-1-25.1
		c-2.9-15-6.2-18.8-8.1-19.1c-2.6-0.4-6.2,0.6-13.1,4.6c-8.2,4.8-15.7,10.5-15.8,10.6c-0.9,0.6-2,0.3-2.6-0.5
		c-0.6-0.9-0.3-2,0.5-2.6c0.1-0.1,8.8-6.9,17-11.6c6.6-3.8,12.4-4.9,15.4-3.9c4.6,1.6,7.8,8.8,10.3,21.9c2.5,13.3,1.6,21.4,1.1,26.2
		c-0.3,2.2-0.5,4.2,0,4.6c1.3,0.7,9-1.2,16.4-4.3c0.9-0.4,2,0.1,2.4,1c0.4,0.9-0.1,2-1,2.4C975.3,217.2,968.1,219.9,963.3,219.9z"/>
	<path fill="#A1C5E2" d="M1028.5,137.2l-0.8-1.9l-60.6,32.9l1.1,1.7c0.6,1,1.8,2.8,3.2,5c-13.8,4.2-18.6,13.5-18.8,14
		c-0.4,0.9-0.1,2,0.8,2.5c0.3,0.1,0.5,0.2,0.8,0.2c0.7,0,1.3-0.4,1.7-1c0.2-0.4,4.6-8.9,17.6-12.4c6.8,10.2,17.5,25.3,22.4,26.7
		c0.8,0.2,1.8,0.4,2.8,0.4c12.3,0,38.5-15.9,41.5-24.3C1043.3,172.4,1030,140.7,1028.5,137.2z M1036.7,179.6
		c-2.6,7.1-31.5,24.1-39.8,21.7c-3-0.9-11.8-12.6-19.5-24c1.3-0.2,2.7-0.4,4.2-0.5c1-0.1,1.8-1,1.7-2c-0.1-1-1-1.8-2-1.7
		c-2.2,0.2-4.3,0.5-6.2,0.9c-1-1.5-1.9-3-2.8-4.4l53.5-29C1031.3,153.7,1038.5,174.5,1036.7,179.6z"/>
	<path fill="#FFFFFF" d="M974.7,642.7l-62.2-6.6l-20.2,5.3l-2.9,7.5c0,0,33.2-2,52.9,4c19.6,6,34.5,4.1,34.5,4.1l1.1-4.5
		L974.7,642.7z"/>
	<path fill="#FFFFFF" d="M985,663c27.6-2.4,145.9,13.6,145.9,13.6l-10-63.9c0,0-129.1,22-138.8,19.2c-18.3-5.3-42.6-8.5-64.3-9.3
		c-28.7-1.1-55.4,5.7-55,13.5c0.2,4.2,38.8,0.9,48.7,4.8C939.5,652.1,965.3,664.7,985,663z"/>
	<path fill="#0E2549" d="M1133.2,678.8l-2.5-0.3c-1.2-0.2-118.4-15.9-145.5-13.6c-17,1.5-38.4-7.4-61-16.8
		c-4.4-1.8-8.8-3.6-13.3-5.4c-4.5-1.8-16.2-2-26.5-2.2c-17.2-0.3-23.2-0.6-23.4-4.3c-0.1-1.7,0.6-3.3,2.1-4.9
		c6.8-6.9,30.8-11.6,54.8-10.6c23.2,0.9,47.4,4.4,64.7,9.4c6.9,2,86.3-10.4,138-19.2l1.9-0.3L1133.2,678.8z M992,660.9
		c33.4,0,120.5,11.4,136.7,13.5l-9.3-59.6c-18.4,3.1-113.6,19.1-134.4,19.1c-1.6,0-2.7-0.1-3.4-0.3c-17-4.9-40.9-8.4-63.8-9.2
		c-25.3-1-46.7,4.2-52,9.5c-0.5,0.5-0.9,1.1-1,1.5c2.5,1,12.3,1.2,19.7,1.3c11.2,0.2,22.7,0.4,27.8,2.4c4.5,1.8,8.9,3.6,13.3,5.5
		c22.2,9.2,43.2,17.9,59.3,16.5l0.2,1.9l-0.2-1.9C986.8,661,989.2,660.9,992,660.9z"/>
	<path fill="#FFFFFF" d="M968.5,646.3l-64.4-9.5l3,1c0,0-61.2,10.1,28.9,17.6c20.7,1.7,37.4-0.2,36.3,1.9l-0.6-1.2L968.5,646.3z"/>
	<path fill="#0E2549" d="M959.8,661.4c-0.1,0-0.2,0-0.3,0c-7.6-1.1-14.5-2.7-20.5-4.1c-6.9-1.6-12.9-3-17.9-3.1
		c-24.1-0.3-32.1-1.5-34.3-5.3c-0.6-1-1-2.7,0.2-5c2.5-4.6,18.6-9.6,31.4-9.6c15.5-0.1,29.1,5,29.6,5.2c1,0.4,1.4,1.4,1.1,2.4
		c-0.4,1-1.4,1.4-2.4,1.1c-0.1-0.1-13.5-5.1-28.3-5c-12.9,0.1-26.8,5.2-28.1,7.7c-0.2,0.4-0.5,1-0.3,1.3c1.8,3.1,22.4,3.4,31.1,3.5
		c5.3,0.1,11.5,1.5,18.6,3.2c6,1.4,12.7,3,20.2,4c1,0.1,1.7,1.1,1.6,2.1C961.5,660.7,960.7,661.4,959.8,661.4z"/>
	<path fill="#E2474B" d="M1295.7,561.3l-222.7,32.3l28.1,83c0,0,152.5,4.4,185.2,0c60.8-8.2,125.8-61.8,125.8-61.8L1295.7,561.3z"/>
	<path fill="#EBF4FE" d="M1875.1,731H73.9c-6.6,0-12-5.4-12-12v-30.4c0-6.6,5.4-12,12-12h1801.1c6.6,0,12,5.4,12,12V719
		C1887.1,725.6,1881.7,731,1875.1,731z"/>
	<path fill="#0E2549" d="M1872.2,732.9H76.8c-9.2,0-16.7-7.5-16.7-16.7v-24.6c0-9.2,7.5-16.7,16.7-16.7h1795.4
		c9.2,0,16.7,7.5,16.7,16.7v24.6C1888.9,725.3,1881.4,732.9,1872.2,732.9z M76.8,678.5c-7.2,0-13,5.8-13,13v24.6c0,7.2,5.8,13,13,13
		h1795.4c7.2,0,13-5.8,13-13v-24.6c0-7.2-5.8-13-13-13H76.8z"/>
	<polygon fill="#EBF4FE" points="210,1642.6 155.6,1642.6 296,731 350.4,731 	"/>
	<path fill="#0E2549" d="M211.6,1644.4h-58.2l0.3-2.1l140.7-913.2h58.2l-0.3,2.1L211.6,1644.4z M157.8,1640.7h50.6l139.9-907.9
		h-50.6L157.8,1640.7z"/>
	<polygon fill="#EBF4FE" points="1720.7,1642.6 1775.1,1642.6 1634.7,731 1580.3,731 	"/>
	<path fill="#0E2549" d="M1777.3,1644.4h-58.2l-0.2-1.6l-140.8-913.7h58.2l0.2,1.6L1777.3,1644.4z M1722.3,1640.7h50.6l-139.9-907.9
		h-50.6L1722.3,1640.7z"/>
	<polygon fill="#EBF4FE" points="390,413.8 448.9,652.1 792.5,652.1 723,413.8 	"/>
	<path fill="#0E2549" d="M795,653.9H447.4l-0.3-1.4L387.7,412h336.7L795,653.9z M450.3,650.2h339.7l-68.5-234.5H392.4L450.3,650.2z"
		/>
	<rect x="449.2" y="652.1" fill="#A1C5E2" width="446.4" height="22.5"/>
	<path fill="#0E2549" d="M897.4,676.4H447.3v-26.2h450.1V676.4z M451,672.7h442.6v-18.8H451V672.7z"/>
	<path fill="#0E2549" d="M593.3,577.5c-15.2,0-28.4-14.3-30-32.9c-1.7-19.4,10-36.4,26-37.8c7.8-0.7,15.5,2.4,21.6,8.7
		c6,6.2,9.7,14.7,10.5,24.1v0c0.8,9.4-1.4,18.4-6.3,25.5c-4.9,7.2-11.9,11.6-19.8,12.2C594.7,577.5,594,577.5,593.3,577.5z
		 M591.5,510.5c-0.6,0-1.2,0-1.8,0.1c-14,1.2-24.2,16.3-22.7,33.7c1.5,17.4,14.1,30.6,28.1,29.4c6.7-0.6,12.8-4.4,17-10.6
		c4.4-6.4,6.4-14.6,5.6-23.1v0c-0.7-8.5-4.1-16.2-9.5-21.8C603.5,513.2,597.5,510.5,591.5,510.5z"/>
	<path fill="#FFFFFF" d="M477.9,627.5c-0.8,0-1.6-0.6-1.8-1.4l-45-184.1c-0.2-1,0.4-2,1.4-2.2c1-0.2,2,0.4,2.2,1.4l45,184.1
		c0.2,1-0.4,2-1.4,2.2C478.2,627.5,478,627.5,477.9,627.5z"/>
	<path fill="#FFFFFF" d="M922.5,289.6l-2-19.2l22.5,6.9L923.6,289c-0.7,0.4-0.6,1.4,0.2,1.7c2.8,0.9,8.5,2.4,13.6,2
		c7.2-0.5,24.3-9,24.3-9L922.5,289.6z"/>
	<path fill="#0E2549" d="M935.7,294.5c-5.2,0-10.3-1.5-12.4-2.1c-0.7-0.2-1.2-0.6-1.5-1.2c-0.6-0.3-1-0.8-1-1.5l-2.3-22l29.1,8.9
		l-21.1,12.8c2.7,0.7,6.9,1.6,10.8,1.3c6.8-0.5,23.4-8.7,23.6-8.8c0.9-0.5,2-0.1,2.5,0.8c0.5,0.9,0.1,2-0.8,2.5
		c-0.7,0.4-17.5,8.6-25,9.2C936.9,294.5,936.3,294.5,935.7,294.5z M922.7,273l1.4,13.6l14.4-8.7L922.7,273z"/>
	<path fill="#0E2549" d="M951.2,601.3c-0.2,0-0.3,0-0.5-0.1c-1-0.3-1.6-1.3-1.3-2.3c9.7-36.5-8.2-120.4-10.3-129.8
		c0-0.1-0.1-0.1-0.1-0.1l-43.8,1.6c-1,0-1.9-0.8-1.9-1.8c0-1,0.8-1.9,1.8-1.9l43.8-1.6c1.8-0.1,3.5,1.2,3.9,3
		c3.4,15.6,20,95,10.3,131.6C952.7,600.8,952,601.3,951.2,601.3z"/>
	<path fill="#0E2549" d="M1099.8,674.5c-0.8,0-1.5-0.5-1.8-1.3l-25-73.9l201-31.9l-53.9-90.8c-0.5-0.9-0.2-2,0.6-2.5
		c0.9-0.5,2-0.2,2.5,0.6l56.7,95.5l-202.1,32l23.6,69.8c0.3,1-0.2,2-1.2,2.4C1100.2,674.5,1100,674.5,1099.8,674.5z"/>
	<path fill="#0E2549" d="M1255.8,1578.9h-46.1v-412.6c18.8-4.3,32.9-21.1,32.9-41.3h-84.8c0,20.1,14.1,37,32.9,41.3v412.6h-46.1
		c-20.4,0-36.9,16.5-36.9,36.9v26.9h184.8v-26.9C1292.6,1595.4,1276.1,1578.9,1255.8,1578.9z"/>
</g>
</svg>
