<?xml version="1.0" encoding="utf-8"?>
<!-- Generator: Adobe Illustrator 24.1.1, SVG Export Plug-In . SVG Version: 6.00 Build 0)  -->
<svg version="1.1" id="Layer_1" xmlns="http://www.w3.org/2000/svg" xmlns:xlink="http://www.w3.org/1999/xlink" x="0px" y="0px"
	 viewBox="0 0 807 1000" enable-background="new 0 0 807 1000" xml:space="preserve">
<g id="Group_13476" transform="translate(-1655.078 -1899.123)">
	<g id="Filing_Cabinet" transform="translate(1748.481 2017.842)">
		<g id="Group_12671">
			<g id="Group_12661" transform="translate(45.385)">
				<g id="Group_12634">
					<path id="Path_4624" fill="#8DBADF" d="M180.9,196.7l-6.1,684.4h271.1V206L180.9,196.7z"/>
				</g>
				<g id="Group_12635" transform="translate(5.695 44.393)">
					<path id="Path_4625" fill="#0E2549" d="M183.7,266V362h128.4v-91.4L183.7,266z"/>
				</g>
				<g id="Group_12636" transform="translate(58.441 2.008)">
					<path id="Path_4626" fill="#0E2549" d="M268.5,199.8l-2.4,679.3h121.4V204L268.5,199.8z"/>
				</g>
				<g id="Group_12641" transform="translate(5.695 3.296)">
					<g id="Group_12637">
						<path id="Path_4627" fill="#0E2549" d="M183.7,201.8v95.9h128.4v-91.4L183.7,201.8z"/>
					</g>
					<g id="Group_12640" transform="translate(17.28 9.798)">
						<g id="Group_12638">
							<path id="Path_4628" fill="#0E2549" d="M210.7,218.4v14.2H250v-15.5L210.7,218.4z"/>
							<rect id="Rectangle_689" x="210.7" y="244.5" fill="#0E2549" width="40.6" height="5.8"/>
						</g>
						<g id="Group_12639" opacity="0.4">
							<path id="Path_4629" d="M210.7,218.4v14.2H250v-15.5L210.7,218.4z"/>
							<rect id="Rectangle_690" x="210.7" y="244.5" width="40.6" height="5.8"/>
						</g>
					</g>
				</g>
				<g id="Group_12650" transform="translate(5.695 134.514)">
					<g id="Group_12642">
						<path id="Path_4630" fill="#0E2549" d="M183.7,406.8v95.9h128.4v-91.4L183.7,406.8z"/>
					</g>
					<g id="Group_12649" transform="translate(17.28 9.799)">
						<g id="Group_12645">
							<g id="Group_12643">
								<path id="Path_4631" fill="#0E2549" d="M210.7,423.4v14.2H250v-15.5L210.7,423.4z"/>
							</g>
							<g id="Group_12644" transform="translate(0 10.684)">
								<rect id="Rectangle_691" x="210.7" y="438.8" fill="#0E2549" width="40.6" height="5.8"/>
							</g>
						</g>
						<g id="Group_12648" opacity="0.4">
							<g id="Group_12646">
								<path id="Path_4632" d="M210.7,423.4v14.2H250v-15.5L210.7,423.4z"/>
							</g>
							<g id="Group_12647" transform="translate(0 10.684)">
								<rect id="Rectangle_692" x="210.7" y="438.8" width="40.6" height="5.8"/>
							</g>
						</g>
					</g>
				</g>
				<g id="Group_12655" transform="translate(5.695 176.719)">
					<g id="Group_12651">
						<path id="Path_4633" fill="#0E2549" d="M183.7,472.7v95.9h128.4v-91.4L183.7,472.7z"/>
					</g>
					<g id="Group_12654" transform="translate(17.28 9.798)">
						<g id="Group_12652">
							<path id="Path_4634" fill="#0E2549" d="M210.7,489.3v14.2H250V488L210.7,489.3z"/>
							<rect id="Rectangle_693" x="210.7" y="515.4" fill="#0E2549" width="40.6" height="5.8"/>
						</g>
						<g id="Group_12653" opacity="0.4">
							<path id="Path_4635" d="M210.7,489.3v14.2H250V488L210.7,489.3z"/>
							<rect id="Rectangle_694" x="210.7" y="515.4" width="40.6" height="5.8"/>
						</g>
					</g>
				</g>
				<g id="Group_12660" transform="translate(5.155 218.923)">
					<g id="Group_12656">
						<path id="Path_4636" fill="#0E2549" d="M182.8,538.7v95.9h128.4v-91.4L182.8,538.7z"/>
					</g>
					<g id="Group_12659" transform="translate(17.28 9.798)">
						<g id="Group_12657">
							<path id="Path_4637" fill="#0E2549" d="M209.8,555.3v14.2h39.3V554L209.8,555.3z"/>
							<rect id="Rectangle_695" x="209.8" y="581.3" fill="#0E2549" width="40.6" height="5.8"/>
						</g>
						<g id="Group_12658" opacity="0.4">
							<path id="Path_4638" d="M209.8,555.3v14.2h39.3V554L209.8,555.3z"/>
							<rect id="Rectangle_696" x="209.8" y="581.3" width="40.6" height="5.8"/>
						</g>
					</g>
				</g>
			</g>
			<g id="Group_12670" transform="translate(0 54.535)">
				<g id="Group_12666" transform="translate(0 33.998)">
					<g id="Group_12662">
						<rect id="Rectangle_697" x="103.9" y="335" fill="#8DBADF" width="128.4" height="95.9"/>
					</g>
					<g id="Group_12665" transform="translate(17.618 16.405)">
						<g id="Group_12663">
							<path id="Path_4639" fill="#0E2549" d="M131.4,361.8v13.3h36.9v-14.5L131.4,361.8z"/>
							<rect id="Rectangle_698" x="131.4" y="386.3" fill="#0E2549" width="38.1" height="5.4"/>
						</g>
						<g id="Group_12664" opacity="0.4">
							<path id="Path_4640" d="M131.4,361.8v13.3h36.9v-14.5L131.4,361.8z"/>
							<rect id="Rectangle_699" x="131.4" y="386.3" width="38.1" height="5.4"/>
						</g>
					</g>
				</g>
				<g id="Group_12667" transform="translate(50.124 33.635)">
					<path id="Path_4641" fill="#0E2549" d="M182.2,335.4l126.6-0.9l-2.3,96.9H182.2V335.4z"/>
					<path id="Path_4642" opacity="0.4" enable-background="new    " d="M182.2,335.4l126.6-0.9l-2.3,96.9H182.2V335.4z"/>
				</g>
				<rect id="Rectangle_700" x="227.8" y="281.9" fill="#FAFAFA" width="126.6" height="86.2"/>
				<g id="Group_12668" transform="translate(36.391 1.533)">
					<path id="Path_4643" fill="#0E2549" d="M160.8,294.1l6.4,73.2l150.9-0.8l-9-71.7c-0.6-4.6-4.9-7.9-9.5-7.3l-60.9,5.3l-10.4-7.7
						c-0.9-0.7-2.1-1-3.2-0.9l-60.1,5.3C162.5,289.7,160.7,291.7,160.8,294.1z"/>
					<path id="Path_4644" fill="#CE4C50" d="M160.8,294.1l6.4,73.2l150.9-0.8l-9-71.7c-0.6-4.6-4.9-7.9-9.5-7.3l-60.9,5.3l-10.4-7.7
						c-0.9-0.7-2.1-1-3.2-0.9l-60.1,5.3C162.5,289.7,160.7,291.7,160.8,294.1z"/>
				</g>
				<path id="Path_4645" fill="#FAFAFA" d="M153.9,349.8l-3.2-19.1l139.5-9.2l12.3,47.3l-145.8-0.7L153.9,349.8z"/>
				<g id="Group_12669" transform="translate(12.542 19.05)">
					<path id="Path_4646" fill="#DFECF7" d="M123.5,321.4l2.5,28.3h149.2l-3.5-27.6c-0.6-4.6-4.9-7.9-9.5-7.3l-60.9,5.3l-10.4-7.7
						c-0.9-0.7-2.1-1-3.2-0.9l-60.1,5.3C125.2,317.1,123.4,319.1,123.5,321.4z"/>
				</g>
				<path id="Path_4648" fill="#0E2549" d="M293.5,334.3h19.8c2.8,0,5,2.2,5,5c0,0.4,0,0.8-0.1,1.1l-6.4,27.6h-9.3L293.5,334.3z"/>
			</g>
		</g>
	</g>
	<g id="Group_12682" transform="matrix(0.995, -0.105, 0.105, 0.995, 1830.941, 1906.237)">
		<g id="Group_12673" transform="translate(0 0)">
			<path id="Path_4651" fill="#0E2549" d="M344.1,226.6c0,0,0.3-0.4,0.9-1.2c0.6-0.7,1.5-1.9,2.6-3.4c5.7-7.6,10-16.1,12.7-25.1
				c1.2-4.1,2.2-8.8,3.4-13.7c2.4-9.9,5.1-21.1,8.1-33.6c3-12.4,6.3-26.1,9.9-40.7c0.8-3.8,1.9-7.5,3.1-11.1
				c2.8-7.6,7.2-14.6,12.8-20.5c1.5-1.5,3-3,4.6-4.3l0.1-0.1l0.1-0.1c0.6,2.3,0.1,0.6,0.2,1.1l-0.4-0.1l-0.8-0.2l-1.5-0.4l-3.1-0.7
				l-51.6-12.6l-27.3-6.7L304.1,50l-7-1.7l-0.4-0.1l-0.2-0.1c-0.1,0,0.7,0,0.3,0l-0.1,0l-0.8,0.3l-1.7,0.7c-1.1,0.5-2.2,1-3.2,1.6
				c-8.5,4.5-15.3,11.5-19.4,20.1c-2,4.2-3.4,8.7-4.2,13.3c-1.1,4.6-2.1,9.1-3.1,13.6c-4.1,17.9-8.1,35.2-11.9,51.7l-2.9,12.2
				c-1,4-2.3,7.9-3.8,11.7c-2.9,7.3-6.8,14.1-11.5,20.4c-1.1,1.5-2.3,3-3.5,4.4l-0.4,0.5l-0.2,0.3c-0.6-1.9-0.1-0.5-0.2-1l0.1,0
				l0.2,0l1.3,0.3l2.7,0.7l10.4,2.6l19.5,4.8l58.8,14.6l16,4.1l4.1,1.1C343.6,226.4,344.1,226.6,344.1,226.6c0,0-0.5-0.1-1.4-0.3
				l-4.2-1l-16-3.8l-58.9-14.2l-19.5-4.7l-10.4-2.5l-2.7-0.6l-1.3-0.3l-0.2,0l-0.1,0c-0.2-0.4,0.3,1-0.4-1l0.2-0.3l0.4-0.5
				c1.2-1.4,2.3-2.9,3.4-4.4c4.6-6.2,8.4-13,11.2-20.2c2.8-7.7,5-15.6,6.5-23.7c3.8-16.5,7.8-33.8,11.9-51.8c1-4.5,2.1-9,3.1-13.6
				c0.9-4.7,2.3-9.3,4.3-13.6c4.3-8.9,11.3-16.2,20.1-20.8c1.1-0.6,2.2-1.1,3.3-1.6l1.7-0.7l0.9-0.3l0.1,0c-0.3,0,0.6-0.1,0.5,0
				l0.2,0.1l0.4,0.1l7,1.7l13.9,3.4l27.3,6.7l51.5,12.7l3.1,0.8l1.5,0.4l0.8,0.2l0.4,0.1c0.1,0.5-0.2-1.2,0.3,1.2l-0.1,0.1l-0.1,0.1
				c-7.7,6.4-13.6,14.8-17.1,24.2c-1.3,3.6-2.3,7.2-3.1,10.9c-3.6,14.6-7,28.2-10,40.6l-8.3,33.5c-1.3,4.9-2.3,9.5-3.6,13.7
				c-1.2,3.8-2.7,7.5-4.4,11.1c-2.4,5-5.3,9.6-8.8,14C346.7,223.8,345.4,225.2,344.1,226.6z"/>
		</g>
		<g id="Group_12674" transform="translate(21.454 14.587)">
			<path id="Path_4652" fill="#0E2549" d="M341.5,90c-1.1,0-2.1-0.2-3.2-0.5c-2-0.4-4.9-1-8.6-1.8c-7.2-1.6-17.1-4-28.1-6.8
				c-10.9-2.8-20.8-5.5-27.8-7.7c-3.5-1.1-6.4-2-8.4-2.6c-1-0.3-2.1-0.7-3-1.2c1.1,0.1,2.1,0.3,3.2,0.6l8.5,2.2l27.9,7.2l28,7.2
				l8.5,2.3C339.5,89.2,340.5,89.5,341.5,90z"/>
		</g>
		<g id="Group_12675" transform="translate(20.686 19.236)">
			<path id="Path_4653" fill="#0E2549" d="M340.3,97.2c-1.1,0-2.1-0.2-3.2-0.5c-2-0.4-5-1-8.6-1.8c-7.2-1.6-17.1-4-28.1-6.8
				c-10.9-2.8-20.8-5.5-27.8-7.7c-3.5-1.1-6.4-2-8.4-2.6c-1-0.3-2.1-0.7-3-1.2c1.1,0.1,2.1,0.3,3.2,0.6l8.5,2.2l27.9,7.2l28,7.2
				l8.5,2.3C338.3,96.4,339.3,96.8,340.3,97.2z"/>
		</g>
		<g id="Group_12676" transform="translate(19.608 23.885)">
			<path id="Path_4654" fill="#0E2549" d="M338.6,104.5c-1.1,0-2.1-0.2-3.2-0.5c-2-0.4-5-1-8.6-1.8c-7.2-1.6-17.1-4-28.1-6.8
				c-10.9-2.8-20.8-5.5-27.8-7.7c-3.5-1.1-6.4-2-8.4-2.6c-1-0.3-2.1-0.7-3-1.2c1.1,0.1,2.1,0.3,3.2,0.6l8.5,2.2l27.9,7.2
				c10.7,2.8,20.5,5.2,28,7.2l8.5,2.3C336.6,103.7,337.6,104,338.6,104.5z"/>
		</g>
		<g id="Group_12677" transform="translate(18.614 28.535)">
			<path id="Path_4655" fill="#0E2549" d="M337,111.8c-1.1,0-2.1-0.2-3.2-0.5c-2-0.4-5-1-8.6-1.8c-7.2-1.6-17.1-4-28.1-6.7
				c-10.9-2.8-20.8-5.5-27.8-7.7c-3.5-1.1-6.4-2-8.4-2.6c-1-0.3-2.1-0.7-3-1.2c1.1,0.1,2.1,0.3,3.2,0.6l8.5,2.2l27.9,7.2l28,7.2
				l8.5,2.3C335.1,110.9,336.1,111.3,337,111.8z"/>
		</g>
		<g id="Group_12678" transform="translate(17.11 33.184)">
			<path id="Path_4656" fill="#0E2549" d="M334.7,119c-1.1,0-2.1-0.2-3.2-0.5c-2-0.4-5-1-8.6-1.8c-7.2-1.6-17.1-4-28.1-6.8
				c-10.9-2.8-20.8-5.5-27.8-7.7c-3.5-1.1-6.4-2-8.4-2.6c-1-0.3-2.1-0.7-3-1.2c1.1,0.1,2.1,0.3,3.2,0.6l8.5,2.2l27.9,7.2l28,7.2
				l8.5,2.3C332.7,118.2,333.7,118.6,334.7,119z"/>
		</g>
		<g id="Group_12679" transform="translate(16.024 37.833)">
			<path id="Path_4657" fill="#0E2549" d="M333,126.3c-1.1,0-2.1-0.2-3.2-0.5c-2-0.4-5-1-8.6-1.8c-7.2-1.6-17.1-4-28.1-6.8
				c-10.9-2.8-20.8-5.5-27.8-7.7c-3.5-1.1-6.4-2-8.4-2.6c-1-0.3-2.1-0.7-3-1.2c1.1,0.1,2.1,0.3,3.2,0.6l8.5,2.2l27.9,7.2l28,7.2
				l8.5,2.3C331,125.5,332,125.8,333,126.3z"/>
		</g>
		<g id="Group_12680" transform="translate(14.646 42.656)">
			<path id="Path_4658" fill="#0E2549" d="M330.8,133.8c-1.1,0-2.1-0.2-3.2-0.5c-2-0.4-4.9-1-8.6-1.8c-7.2-1.6-17.1-4-28.1-6.7
				c-10.9-2.8-20.8-5.5-27.8-7.7c-3.5-1.1-6.4-2-8.4-2.6c-1-0.3-2.1-0.7-3-1.2c1.1,0.1,2.1,0.3,3.2,0.6l8.5,2.2l27.9,7.2l28,7.2
				l8.5,2.3C328.9,133,329.9,133.3,330.8,133.8z"/>
		</g>
		<g id="Group_12681" transform="translate(26.655 50.654)">
			<path id="Path_4659" fill="#0E2549" d="M316.2,137.7c-2.3-0.1-4.6-0.5-6.8-1.1c-4.2-0.9-9.9-2.2-16.3-3.8
				c-6.3-1.6-11.9-3.4-16-4.6c-2.3-0.5-4.4-1.3-6.5-2.3c2.3,0.2,4.6,0.6,6.8,1.3c4.2,1,9.9,2.6,16.1,4.2c6.3,1.6,12,3,16.1,4.2
				C311.9,136,314.1,136.7,316.2,137.7z"/>
		</g>
	</g>
	<g id="Group_12690" transform="translate(1740.111 1941.228)">
		<g id="Group_12684">
			<path id="Path_4660" fill="#F4F6F8" d="M233.8,204.2l-97.2,38.2c-7.7-47.2-22.8-92.9-44.7-135.4l59.7-25.7
				c22.1-9.5,47.6,0.8,57.1,22.8c0.4,0.8,0.7,1.7,1,2.5C221.1,138.1,229.2,170.9,233.8,204.2z"/>
			<g id="Group_12683">
				<path id="Path_4661" fill="#0E2549" d="M233.8,204.2c0,0-0.1-0.4-0.2-1.2c-0.1-0.9-0.3-2-0.6-3.5c-0.5-3.1-1.3-7.7-2.3-13.5
					c-3.1-16.6-7-33-11.7-49.1c-1.5-5.1-3.2-10.5-5-16c-1.9-5.5-3.7-11.4-6.1-17.1c-2.6-5.9-6.5-11.1-11.5-15.2
					c-5.3-4.4-11.4-7.4-18.1-9c-7-1.6-14.3-1.4-21.2,0.6c-1.8,0.4-3.5,1.2-5.2,1.8l-5.2,2.2l-10.5,4.5l-44,18.9l0.4-1l2.4,4.9
					c10.9,22,20.1,44.8,27.5,68.2c6.4,20.5,11.3,41.4,14.7,62.6l-0.8-0.5l70.6-27.4l19.7-7.6l5.2-2
					C233.1,204.4,233.8,204.2,233.8,204.2c0,0-0.6,0.3-1.7,0.7L227,207l-19.5,7.8l-70.7,28.1l-0.7,0.3l-0.1-0.7
					c-3.4-21.1-8.4-42-14.8-62.4c-7.4-23.3-16.6-46-27.5-67.9c-0.8-1.7-1.7-3.3-2.4-4.9l-0.4-0.7l0.7-0.3l44-18.9l10.5-4.5l5.2-2.2
					c1.8-0.6,3.5-1.4,5.4-1.9c7.1-2,14.7-2.2,21.9-0.6c6.8,1.6,13.2,4.8,18.6,9.3c5.1,4.3,9.1,9.7,11.7,15.7
					c2.5,5.9,4.2,11.7,6.1,17.2c1.8,5.6,3.4,10.9,4.9,16.1c4.7,16.2,8.4,32.7,11.3,49.3c1,5.9,1.6,10.5,2,13.6
					c0.2,1.5,0.3,2.7,0.4,3.6C233.7,203.4,233.8,203.8,233.8,204.2z"/>
			</g>
		</g>
		<path id="Path_4662" fill="#0E2549" d="M154.9,80c0,0,14.5,29.8,13.2,30.8c-1.2,1,36-13.9,36.5-14.1
			C204.6,96.6,185.3,70.7,154.9,80z"/>
		<g id="Group_12685" transform="translate(12.367 16.796)">
			<path id="Path_4663" fill="#0E2549" d="M137,103.3c-4.2,2.6-8.6,4.7-13.2,6.4c-4.4,2.1-9,3.8-13.7,5c4.2-2.6,8.6-4.7,13.2-6.4
				C127.7,106.2,132.3,104.5,137,103.3z"/>
		</g>
		<g id="Group_12686" transform="translate(13.978 15.134)">
			<path id="Path_4664" fill="#0E2549" d="M183.7,100.7c0.2,0.4-15.6,8-35.2,17.1s-35.7,16.1-35.8,15.7c-0.2-0.4,15.6-8,35.2-17.1
				S183.5,100.3,183.7,100.7z"/>
		</g>
		<g id="Group_12687" transform="translate(16.532 21.962)">
			<path id="Path_4665" fill="#0E2549" d="M187.7,111.3c0.2,0.4-15.6,8-35.2,17.1s-35.7,16.1-35.8,15.7c-0.2-0.4,15.6-8,35.2-17.1
				S187.5,111,187.7,111.3z"/>
		</g>
		<g id="Group_12688" transform="translate(19.143 28.761)">
			<path id="Path_4666" fill="#0E2549" d="M191.8,122c0.2,0.4-15.6,8-35.2,17.1c-19.6,9.1-35.7,16.1-35.8,15.7
				c-0.2-0.4,15.6-8,35.2-17.1C175.6,128.6,191.6,121.6,191.8,122z"/>
		</g>
		<g id="Group_12689" transform="translate(21.801 41.361)">
			<path id="Path_4667" fill="#0E2549" d="M170.3,141.7c-2.1,1.4-4.3,2.5-6.6,3.5c-4.2,2-9.9,4.6-16.4,7.4c-10.1,4.4-18.7,8-22,9.2
				l-0.4,0.2l0.1-0.4c0.3-1,0.4-1.5,0.5-1.5s0.1,0.5,0,1.6l-0.4-0.3c3-1.6,11.5-5.6,21.6-10.1c6.4-2.8,12.3-5.3,16.5-7
				C165.5,143.1,167.9,142.3,170.3,141.7z"/>
		</g>
	</g>
	<g id="Group_12699" transform="translate(1904.305 1954.091)">
		<g id="Group_12691">
			<path id="Path_4668" fill="#F4F6F8" d="M455.2,281.1l-107.9-46.7l0,0c11.3-9.4,20.2-21.4,25.9-35l31.5-75.7
				c6.1-14,18.8-24,33.8-26.6l0,0l100.1,43.3l0,0c-10.8,6.3-19.4,15.9-24.3,27.4l-35.9,82.9C473.2,262.6,465.3,273,455.2,281.1
				L455.2,281.1z"/>
		</g>
		<g id="Group_12692" transform="translate(26.706 15.741)">
			<path id="Path_4670" fill="#0E2549" d="M467.4,156.1c-0.2,0.4-17.8-7-39.5-16.5c-21.6-9.5-39.1-17.5-38.9-17.9
				c0.2-0.4,17.8,7,39.5,16.5C450.2,147.7,467.6,155.7,467.4,156.1z"/>
		</g>
		<g id="Group_12693" transform="translate(23.951 21.091)">
			<path id="Path_4671" fill="#0E2549" d="M465.7,165.6c-0.2,0.4-18.4-7.3-40.8-17.1c-22.4-9.8-40.4-18.1-40.2-18.4
				c0.2-0.4,18.4,7.3,40.8,17.1C447.9,157,465.9,165.2,465.7,165.6z"/>
		</g>
		<g id="Group_12694" transform="translate(21.704 26.222)">
			<path id="Path_4672" fill="#0E2549" d="M462.2,173.6c-0.2,0.4-18.4-7.3-40.8-17.1c-22.4-9.8-40.4-18.1-40.2-18.4
				c0.2-0.4,18.4,7.3,40.8,17.1S462.4,173.2,462.2,173.6z"/>
		</g>
		<g id="Group_12695" transform="translate(19.455 31.352)">
			<path id="Path_4673" fill="#0E2549" d="M458.7,181.6c-0.2,0.4-18.4-7.3-40.8-17.1c-22.4-9.8-40.4-18.1-40.2-18.4
				c0.2-0.4,18.4,7.3,40.8,17.1S458.9,181.2,458.7,181.6z"/>
		</g>
		<g id="Group_12696" transform="translate(17.207 36.481)">
			<path id="Path_4674" fill="#0E2549" d="M455.2,189.6c-0.2,0.4-18.4-7.3-40.8-17.1c-22.4-9.8-40.4-18.1-40.2-18.4
				c0.2-0.4,18.4,7.3,40.8,17.1C437.4,181,455.4,189.3,455.2,189.6z"/>
		</g>
		<g id="Group_12697" transform="translate(14.958 41.607)">
			<path id="Path_4675" fill="#0E2549" d="M412.7,180.6c-2.2-0.5-4.3-1.2-6.4-2.2c-3.9-1.5-9.2-3.8-15-6.3s-11-4.9-14.8-6.7
				c-2.1-0.8-4.1-1.9-5.9-3.2c2.2,0.5,4.3,1.3,6.4,2.2c3.9,1.5,9.2,3.8,15,6.3c5.8,2.5,11,4.9,14.8,6.7
				C408.9,178.2,410.9,179.3,412.7,180.6z"/>
		</g>
		<g id="Group_12698" transform="translate(32.661 53.768)">
			<path id="Path_4676" fill="#0E2549" d="M422.2,198.8c-0.1-0.1,0.3-1,0.6-2.9c0.3-2.6-0.2-5.3-1.5-7.6c-3.1-5.5-10.1-7.4-15.6-4.3
				c-5.5,3.1-7.4,10.1-4.3,15.6c2.5,4.4,7.6,6.6,12.5,5.5c2.6-0.6,4.9-2,6.6-4C421.7,199.7,422.1,198.7,422.2,198.8
				c-0.2,1-0.7,1.9-1.3,2.7c-1.6,2.3-4.1,4-6.8,4.7c-4.2,1.1-8.6,0-11.8-3c-5.1-4.8-5.4-12.9-0.6-18c2.6-2.8,6.4-4.3,10.2-4
				c4.3,0.3,8.2,2.8,10.2,6.6c1.3,2.5,1.8,5.4,1.2,8.2C423.2,197,422.8,197.9,422.2,198.8z"/>
		</g>
		
			<rect id="Rectangle_701" x="434.4" y="114.8" transform="matrix(0.4014 -0.9159 0.9159 0.4014 140.7687 479.0099)" fill="#0E2549" width="4.9" height="34.1"/>
	</g>
	<g id="Group_13475" transform="translate(1655.078 2076.723) rotate(-43)">
		<g id="Group_12691-2" transform="translate(0 0)">
			<path id="Path_4668-2" fill="#F4F6F8" d="M-119.7,366.4l-107.9-46.7l0,0c11.3-9.4,20.2-21.4,25.9-35l31.5-75.7
				c6.1-14,18.8-24,33.8-26.6l0,0l100.1,43.4l0,0c-10.8,6.3-19.4,15.9-24.3,27.4l-35.9,82.9C-101.7,347.9-109.6,358.4-119.7,366.4z"
				/>
		</g>
		<g id="Group_12692-2" transform="translate(26.706 15.741)">
			<path id="Path_4670-2" fill="#0E2549" d="M-107.5,241.4c-0.2,0.4-17.8-7-39.5-16.5c-21.6-9.5-39.1-17.5-38.9-17.9
				c0.2-0.4,17.8,7,39.5,16.5S-107.3,241.1-107.5,241.4z"/>
		</g>
		<g id="Group_12693-2" transform="translate(23.952 21.091)">
			<path id="Path_4671-2" fill="#0E2549" d="M-109.1,251c-0.2,0.4-18.4-7.3-40.8-17.1c-22.4-9.8-40.4-18.1-40.2-18.4
				c0.2-0.4,18.4,7.3,40.8,17.1S-109,250.6-109.1,251z"/>
		</g>
		<g id="Group_12694-2" transform="translate(21.704 26.222)">
			<path id="Path_4672-2" fill="#0E2549" d="M-112.6,259c-0.2,0.4-18.4-7.3-40.8-17.1s-40.4-18.1-40.2-18.4s18.4,7.3,40.8,17.1
				S-112.5,258.6-112.6,259z"/>
		</g>
		<g id="Group_12695-2" transform="translate(19.455 31.352)">
			<path id="Path_4673-2" fill="#0E2549" d="M-116.2,267c-0.2,0.4-18.4-7.3-40.8-17.1s-40.4-18.1-40.2-18.4s18.4,7.3,40.8,17.1
				C-134,258.4-116,266.6-116.2,267z"/>
		</g>
		<g id="Group_12696-2" transform="translate(17.207 36.481)">
			<path id="Path_4674-2" fill="#0E2549" d="M-119.7,275c-0.2,0.4-18.4-7.3-40.8-17.1c-22.4-9.8-40.4-18.1-40.2-18.4
				c0.2-0.4,18.4,7.3,40.8,17.1S-119.5,274.6-119.7,275z"/>
		</g>
		<g id="Group_12697-2" transform="translate(14.958 41.607)">
			<path id="Path_4675-2" fill="#0E2549" d="M-162.1,265.9c-2.2-0.5-4.3-1.2-6.4-2.2c-3.9-1.5-9.2-3.8-15-6.3
				c-5.8-2.5-11-4.9-14.8-6.7c-2.1-0.8-4.1-1.9-6-3.2c2.2,0.5,4.3,1.3,6.4,2.2c3.9,1.5,9.2,3.8,15,6.3c5.8,2.5,11,4.9,14.8,6.7
				C-166,263.6-164,264.7-162.1,265.9z"/>
		</g>
		<g id="Group_12698-2" transform="translate(32.661 53.768)">
			<path id="Path_4676-2" fill="#0E2549" d="M-152.7,284.1c-0.1-0.1,0.3-1,0.6-2.9c0.3-2.6-0.2-5.3-1.5-7.6
				c-3.2-5.5-10.2-7.4-15.7-4.2c-2.1,1.2-3.8,3.1-4.8,5.3c-2.5,5.8,0.2,12.6,6,15.1c2.2,1,4.7,1.2,7.1,0.7c2.6-0.6,4.9-2,6.6-4
				C-153.2,285-152.8,284-152.7,284.1c-0.2,1-0.7,1.9-1.3,2.7c-1.6,2.3-4.1,4-6.8,4.7c-4.2,1.1-8.6-0.1-11.8-3
				c-5.1-4.8-5.4-12.9-0.6-18c2.6-2.8,6.4-4.3,10.2-4c4.3,0.3,8.2,2.8,10.2,6.6c1.3,2.5,1.8,5.4,1.2,8.2
				C-151.7,282.3-152.1,283.3-152.7,284.1z"/>
		</g>
		
			<rect id="Rectangle_701-2" x="-155.1" y="214.7" transform="matrix(-0.9159 -0.4014 0.4014 -0.9159 -351.6739 360.684)" fill="#0E2549" width="34.1" height="4.9"/>
	</g>
	<g id="Group_12708" transform="translate(1720.673 1959.957)">
		<g id="Group_12706" transform="translate(13.725)">
			<path id="Path_4686" fill="#0E2549" d="M153.8,142.5c-0.3-2.9-0.7-5.8-1.4-8.6c-2-7.7-6.6-14.5-13-19.2c-9.5-7.2-21.9-9-33.1-4.9
				c-6.5,2.4-12.1,6.6-16.2,12.2c-9,12.2-9,28.9,0,41.2c4.1,5.6,9.7,9.8,16.2,12.2c18.3,6.6,38.5-2.8,45.1-21.1c0.4-1,0.7-2,0.9-3
				C153,148.2,153.5,145.3,153.8,142.5c0.1,0.8,0.1,1.5,0,2.3c0,0.9-0.1,1.8-0.2,2.8c-0.1,1.3-0.3,2.5-0.7,3.7
				c-3.3,13.7-14.3,24.1-28.1,26.8c-6.4,1.2-12.9,0.7-19-1.5c-6.8-2.4-12.6-6.8-16.9-12.6c-9.4-12.7-9.4-30.2,0-42.9
				c4.3-5.8,10.1-10.2,16.9-12.6c6.1-2.2,12.7-2.7,19-1.5c13.8,2.7,24.8,13.1,28.1,26.8c0.3,1.2,0.5,2.5,0.7,3.7
				c0.1,0.9,0.2,1.8,0.2,2.8C153.9,140.9,153.9,141.7,153.8,142.5z"/>
		</g>
		<g id="Group_12707" transform="translate(0 24.37)">
			<path id="Path_4687" fill="#0E2549" d="M108.4,144.4c0.3,0.3-10.2,10.1-23.5,21.8s-24.2,21-24.5,20.7
				c-0.3-0.3,10.2-10.1,23.5-21.8C97.2,153.3,108.1,144.1,108.4,144.4z"/>
		</g>
	</g>
	<g id="Plant" transform="translate(1870.812 2153.142)">
		<g id="Group_8285" transform="translate(0)">
			<g id="Group_8208" transform="translate(70.139 60.1)">
				<g id="Group_8207">
					<g id="Group_8206">
						<g id="Group_8205">
							<path id="Path_2882" fill="#CE4C50" d="M409.5,549.2c1.9-6.5,5.9-12.8,12.2-15.5c6.5-2.8,14-1.2,20.7,1.2
								c6.6,2.4,13.2,5.6,20.2,6.1c7.1,0.4,15-2.9,17.1-9.7c2-6.3-1.8-13.1-6.6-17.7c-16.6-16-43.1-15.5-59.1,1.1
								c-4.2,4.4-7.4,9.6-9.4,15.3"/>
						</g>
					</g>
				</g>
			</g>
			<g id="Group_8279">
				<g id="Group_8213" transform="translate(70.139 60.1)" opacity="0.5">
					<g id="Group_8212">
						<g id="Group_8211">
							<g id="Group_8210">
								<g id="Group_8209">
									<path id="Path_2883" d="M409.5,549.2c1.9-6.5,5.9-12.8,12.2-15.5c6.5-2.8,14-1.2,20.7,1.2c6.6,2.4,13.2,5.6,20.2,6.1
										c7.1,0.4,15-2.9,17.1-9.7c2-6.3-1.8-13.1-6.6-17.7c-16.6-16-43.1-15.5-59.1,1.1c-4.2,4.4-7.4,9.6-9.4,15.3"/>
								</g>
							</g>
						</g>
					</g>
				</g>
				<g id="Group_8217" transform="translate(47.023 57.959)">
					<g id="Group_8216">
						<g id="Group_8215">
							<g id="Group_8214">
								<path id="Path_2884" fill="#CE4C50" d="M376.7,579.7c-10.4-9.8-9.8-27-4.7-40.3s16.4-23.5,29-30.3
									c24.9-13.1,54.4-14,80.1-2.6c-12.6,0.5-24.1,7.3-30.7,18.1c-5.7,9.4-6.9,20.9-11.6,30.8
									C427.8,578.7,400.6,589.3,376.7,579.7"/>
							</g>
						</g>
					</g>
				</g>
				<g id="Group_8221" transform="translate(42.162)">
					<g id="Group_8220">
						<g id="Group_8219">
							<g id="Group_8218">
								<path id="Path_2885" fill="#CE4C50" d="M376.6,578.5c-11.5-13.5-13-35.3-11.3-52.9c1.7-17.7,5.8-35.4,3-52.9
									c-1.6-10.4-5.7-20.3-7-30.7c-1.4-10.4,0.6-22.2,8.6-28.9c9.3-7.7,23.9-5.9,33.5,1.4c9.7,7.3,15.2,18.7,19.3,30
									c9,25,12.3,52.7,4.9,78.1c-7.4,25.5-24.7,48.3-50.1,56"/>
							</g>
						</g>
					</g>
				</g>
				<g id="Group_8226" transform="translate(46.141 61.452)">
					<g id="Group_8225">
						<g id="Group_8224">
							<g id="Group_8223">
								<g id="Group_8222">
									<path id="Path_2886" fill="#0E2549" d="M367.1,628.1c-0.1-0.5-0.1-1,0-1.6c0-1,0-2.5,0.1-4.5c0.1-3.9,0.5-9.5,1.4-16.4
										c1-8.1,2.5-16.1,4.4-24c2.4-9.7,6.1-19.1,11-27.8c4.9-8.7,10.9-16.8,17.9-23.9c5.7-5.9,12-11.1,18.8-15.6
										c2.9-2,5.6-3.5,8-4.9c2.4-1.3,4.6-2.3,6.3-3.2l4.1-1.7c0.5-0.2,1-0.4,1.5-0.5c-0.4,0.3-0.9,0.5-1.4,0.7l-4,1.9
										c-1.7,0.9-3.8,2-6.2,3.3c-2.3,1.4-5.1,3-7.9,5c-14.9,10.2-27.3,23.7-36.2,39.4c-10.5,18.4-13.4,37.8-15.5,51.4
										c-1,6.9-1.4,12.5-1.7,16.3c-0.1,1.9-0.2,3.4-0.3,4.5C367.2,627.1,367.2,627.6,367.1,628.1z"/>
								</g>
							</g>
						</g>
					</g>
				</g>
				<g id="Group_8245" transform="translate(0 39.961)">
					<g id="Group_8230" transform="translate(0 5.746)">
						<g id="Group_8229">
							<g id="Group_8228">
								<g id="Group_8227">
									<path id="Path_2887" fill="#CE4C50" d="M314.4,479.4c-21.2,12.8-21.1,24.4-17.6,35.4s16.6,18.6,27.4,14.5
										c6.1-2.3,10.5-7.6,14.3-13s7.3-11,12.6-14.9c5.3-3.8,13-5.3,18.3-1.5"/>
								</g>
							</g>
						</g>
					</g>
					<g id="Group_8235" transform="translate(0 5.746)" opacity="0.5">
						<g id="Group_8234">
							<g id="Group_8233">
								<g id="Group_8232">
									<g id="Group_8231">
										<path id="Path_2888" d="M314.4,479.4c-21.2,12.8-21.1,24.4-17.6,35.4s16.6,18.6,27.4,14.5c6.1-2.3,10.5-7.6,14.3-13
											s7.3-11,12.6-14.9c5.3-3.8,13-5.3,18.3-1.5"/>
									</g>
								</g>
							</g>
						</g>
					</g>
					<g id="Group_8239" transform="translate(1.364)">
						<g id="Group_8238">
							<g id="Group_8237">
								<g id="Group_8236">
									<path id="Path_2889" fill="#CE4C50" d="M297.1,499.2c5.5-7.7,19.2-9.9,27.9-6.1s15,11.4,20.7,19
										c5.7,7.6,11.2,15.6,19.1,20.8c7.9,5.3,18.8,7.2,26.7,1.9c5-3.8,8.3-9.4,9.1-15.7c0.7-6.2,0.3-12.5-1.2-18.5
										c-1.9-8.9-4.9-18.2-12-23.8c-7.9-6.3-18.9-6.6-29.1-6.3c-11.6,0.4-23.4,1.3-34.3,5.3C312.9,479.9,301.7,488.6,297.1,499.2"
										/>
								</g>
							</g>
						</g>
					</g>
					<g id="Group_8244" transform="translate(17.946 0.917)">
						<g id="Group_8243">
							<g id="Group_8242">
								<g id="Group_8241">
									<g id="Group_8240">
										<path id="Path_2890" fill="#0E2549" d="M377.7,631.7c0-0.2-0.1-0.3-0.1-0.5l-0.1-1.4c0-1.3-0.1-3-0.2-5.3
											c-0.1-4.7-0.3-11.2-0.6-19.4c-0.3-8.2-0.6-17.9-1.2-28.7s-1.4-22.7-3-35c-0.7-6-1.9-12-3.5-17.8
											c-1.7-5.4-3.9-10.6-6.5-15.6c-2.4-4.5-5.1-8.8-8.2-12.9c-2.7-3.5-5.7-6.8-9-9.8c-4.7-4.4-10.1-8-15.9-10.8
											c-1-0.5-1.9-0.9-2.8-1.3l-2.1-0.8l-1.3-0.5c-0.1,0-0.3-0.1-0.4-0.2c0.2,0,0.3,0.1,0.5,0.1l1.3,0.4l2.1,0.7
											c0.8,0.3,1.7,0.7,2.8,1.2c5.9,2.7,11.4,6.3,16.2,10.7c3.3,3,6.4,6.3,9.1,9.8c3.2,4.1,5.9,8.4,8.4,12.9
											c2.7,5,4.9,10.3,6.6,15.7c1.7,5.9,2.9,11.9,3.6,17.9c1.6,12.4,2.4,24.3,3,35.1c0.6,10.8,0.8,20.5,1,28.7
											s0.2,14.8,0.3,19.4c0,2.2,0,4,0,5.3c0,0.6,0,1,0,1.4C377.7,631.4,377.7,631.5,377.7,631.7z"/>
									</g>
								</g>
							</g>
						</g>
					</g>
				</g>
				<g id="Group_8250" transform="translate(40.805 15.641)">
					<g id="Group_8249">
						<g id="Group_8248">
							<g id="Group_8247">
								<g id="Group_8246">
									<path id="Path_2891" fill="#0E2549" d="M362.4,666.5c-1-3-1.8-6-2.3-9.1c-1.5-8.4-1.8-17.1-1-25.6
										c1.3-12.6,4-25.1,8.1-37.1c4.4-13.6,10.3-28.2,15.3-43.9c2.5-7.6,4.5-15.4,6.1-23.2c1.4-7.3,2.4-14.7,3-22.2
										c1-12.6,1.2-25.3,0.7-37.9c-0.4-10.8-0.9-19.5-1.3-25.6c-0.2-3-0.3-5.3-0.4-7c0-0.8-0.1-1.4-0.1-1.8
										c-0.2,0-0.3-0.2-0.3-0.4c0-0.2,0.2-0.3,0.4-0.3c0.2,0,0.3,0.2,0.3,0.4c0,0.1-0.1,0.2-0.3,0.3c0,0.5,0.1,1.1,0.2,1.8
										c0.1,1.6,0.3,4,0.6,6.9c0.5,6,1.1,14.8,1.6,25.6c0.6,12.7,0.5,25.4-0.5,38c-0.6,7.5-1.6,14.9-3,22.3
										c-1.6,7.9-3.6,15.7-6.1,23.3c-5.1,15.7-11,30.3-15.4,43.9c-4.1,12-6.9,24.3-8.2,36.9c-0.9,8.5-0.7,17,0.7,25.5
										c0.5,3,1,5.3,1.4,6.8c0.2,0.7,0.3,1.3,0.4,1.8C362.4,666.1,362.4,666.3,362.4,666.5z"/>
								</g>
							</g>
						</g>
					</g>
				</g>
				<g id="Group_8254" transform="translate(23.02 103.253)">
					<g id="Group_8253">
						<g id="Group_8252">
							<g id="Group_8251">
								<path id="Path_2892" fill="#8DBADF" d="M432.8,588.5h-99.6l-2.3-19.2h101.9V588.5z"/>
							</g>
						</g>
					</g>
				</g>
				<g id="Group_8258" transform="translate(28.079 109.883)">
					<g id="Group_8257">
						<g id="Group_8256">
							<g id="Group_8255">
								<path id="Path_2893" fill="#8DBADF" d="M338.8,579.7l12.5,57.5h54.1l11.6-57.5H338.8z"/>
							</g>
						</g>
					</g>
				</g>
				<g id="Group_8263" transform="translate(24.606 110.489)">
					<g id="Group_8262">
						<g id="Group_8261">
							<g id="Group_8260">
								<g id="Group_8259">
									<path id="Path_2894" fill="#8DBADF" d="M431.2,581.3c0,0.3-21.9,0.4-48.9,0.3c-27-0.1-48.9-0.3-48.9-0.6s21.9-0.4,48.9-0.3
										S431.2,581,431.2,581.3z"/>
								</g>
							</g>
						</g>
					</g>
				</g>
			</g>
			<g id="Group_8284" transform="translate(24.065 110.582)">
				<g id="Group_8283">
					<g id="Group_8282">
						<g id="Group_8281">
							<g id="Group_8280">
								<path id="Path_2898" fill="#0E2549" d="M432.6,581.2c0,0.3-22.4,0.5-50,0.5s-50-0.2-50-0.5s22.4-0.5,50-0.5
									S432.6,581,432.6,581.2z"/>
							</g>
						</g>
					</g>
				</g>
			</g>
		</g>
	</g>
</g>
</svg>
