<?xml version="1.0" encoding="utf-8"?>
<!-- Generator: Adobe Illustrator 24.1.2, SVG Export Plug-In . SVG Version: 6.00 Build 0)  -->
<svg version="1.1" id="Layer_1" xmlns="http://www.w3.org/2000/svg" xmlns:xlink="http://www.w3.org/1999/xlink" x="0px" y="0px"
	 viewBox="0 0 378.4 288.5" style="enable-background:new 0 0 378.4 288.5;" xml:space="preserve">
<style type="text/css">
	.st0{fill:#FFFFFF;}
	.st1{fill:#CE4C50;}
	.st2{opacity:0.3;enable-background:new    ;}
	.st3{fill:#0E2549;}
	.st4{fill:#FAFAFA;}
	.st5{fill:#F5F5F5;}
	.st6{fill:#E0E0E0;}
	.st7{fill:#8DBADF;}
	.st8{fill:#FBE8E8;}
	.st9{fill:#F7CBCB;}
	.st10{opacity:0.3;}
	.st11{fill:none;stroke:#4E585D;stroke-width:5.000000e-02;stroke-miterlimit:10;}
	.st12{fill:none;stroke:#FFFFFF;stroke-width:5.000000e-02;stroke-miterlimit:10;}
</style>
<g>
	<path id="Rectangle_371" class="st0" d="M173.3,2h141.8c11,0,20,9,20,20v124.2c0,11-9,20-20,20H173.3c-11,0-20-9-20-20V22
		C153.3,11,162.3,2,173.3,2z"/>
	<path id="Path_1470" class="st1" d="M248.1,87l-7.5-52.6c29-4.1,56,16.1,60.1,45.1c4.1,29-16.1,56-45.1,60.1
		c-11.8,1.7-23.8-0.6-34.1-6.6L248.1,87z"/>
	<path id="Path_1471" class="st2" d="M248.1,87l-7.5-52.6c29-4.1,56,16.1,60.1,45.1c4.1,29-16.1,56-45.1,60.1
		c-11.8,1.7-23.8-0.6-34.1-6.6L248.1,87z"/>
	<path id="Path_1472" class="st1" d="M238.3,85l-7.5-52.6c29-4.1,56,16.1,60.1,45.1c4.1,29-16.1,56-45.1,60.1
		c-11.8,1.7-23.8-0.6-34.1-6.6L238.3,85z"/>
	<path id="Path_1473" class="st3" d="M264,137.7c0,0-1.6-0.6-3.5-1.4s-3.5-1.5-3.4-1.6s1.6,0.6,3.5,1.4S264,137.6,264,137.7z"/>
	<path id="Path_1474" class="st3" d="M255.2,139.5c0,0-1.3-0.5-2.9-1.2s-2.9-1.3-2.9-1.3s1.3,0.5,2.9,1.2S255.2,139.5,255.2,139.5z"
		/>
	<path id="Path_1475" class="st3" d="M273.2,133.7c0,0-1.8-0.7-3.9-1.5s-3.9-1.6-3.8-1.7s1.8,0.7,3.9,1.5S273.3,133.7,273.2,133.7z"
		/>
	<path id="Path_1476" class="st3" d="M281.3,129c0,0-1.8-0.8-4-1.8s-3.9-1.9-3.9-1.9s1.8,0.8,4,1.8S281.3,128.9,281.3,129z"/>
	<path id="Path_1477" class="st3" d="M287.3,122.1c0,0-1.7-0.8-3.8-1.8s-3.8-1.9-3.7-1.9s1.7,0.8,3.8,1.8S287.3,122.1,287.3,122.1z"
		/>
	<path id="Path_1478" class="st3" d="M293.7,116.9c0,0-2.2-1-4.9-2.3s-4.8-2.4-4.8-2.4s2.2,1,4.9,2.3S293.7,116.9,293.7,116.9z"/>
	<path id="Path_1479" class="st3" d="M296,109.8c-0.1,0-0.2-0.1-0.4-0.1c-0.2-0.1-0.6-0.2-1-0.4c-0.8-0.3-1.9-0.8-3.1-1.4
		s-2.2-1.2-3-1.6c-0.4-0.2-0.7-0.4-0.9-0.5c-0.1-0.1-0.2-0.1-0.3-0.2c0.1,0,0.2,0.1,0.3,0.2l0.9,0.5c0.8,0.4,1.8,1,3,1.6
		s2.3,1.1,3.1,1.4l0.9,0.4C295.8,109.7,295.9,109.7,296,109.8z"/>
	<path id="Path_1480" class="st3" d="M298.6,103.4c0,0-2-0.9-4.4-2.1s-4.4-2.2-4.4-2.2s2,0.9,4.4,2.1S298.6,103.3,298.6,103.4z"/>
	<path id="Path_1481" class="st3" d="M300.1,95.9c0,0-2-0.9-4.4-2.1s-4.4-2.2-4.4-2.2s2,0.9,4.4,2.1S300.1,95.9,300.1,95.9z"/>
	<path id="Path_1482" class="st3" d="M301.1,88.8c0,0-2.1-1-4.8-2.3s-4.7-2.4-4.7-2.4s2.1,1,4.8,2.3S301.1,88.8,301.1,88.8z"/>
	<path id="Path_1483" class="st3" d="M300.7,80.7c0,0-2.3-1.1-5.1-2.6s-5.1-2.7-5.1-2.7s2.3,1.1,5.1,2.6S300.8,80.7,300.7,80.7z"/>
	<path id="Path_1484" class="st3" d="M299,72.3c0,0-2.5-1.2-5.5-2.8s-5.5-2.9-5.5-2.9s2.5,1.2,5.5,2.8S299,72.2,299,72.3z"/>
	<path id="Path_1485" class="st3" d="M295.1,62.4c0,0-2.7-1.3-6.1-2.9s-6-3-6-3s2.7,1.3,6.1,2.9S295.1,62.3,295.1,62.4z"/>
	<path id="Path_1486" class="st3" d="M290.5,54.8c0,0-3.2-1.5-7.1-3.5s-7.1-3.5-7-3.6s3.2,1.5,7.1,3.5S290.5,54.8,290.5,54.8z"/>
	<path id="Path_1487" class="st3" d="M279.6,44.2c0,0-3.3-1.1-7.4-2.5s-7.4-2.6-7.4-2.7s3.3,1.1,7.4,2.5S279.6,44.2,279.6,44.2z"/>
	<path id="Path_1488" class="st4" d="M290.5,73.8c0,0-0.2,0-0.6,0.1l-0.7,0.1c-0.3,0.1-0.6,0.2-1,0.3c-2.2,0.7-4.2,1.8-5.9,3.3
		c-1.2,0.9-2.4,2-3.8,3.2c-1.5,1.3-3,2.6-4.6,3.8c-4,2.9-9,3.9-13.8,2.6c-2.8-0.7-5.2-2.2-7.2-4.2c-1-1.1-1.9-2.4-2.5-3.8
		c-0.6-1.4-1-3-0.9-4.6c0-1.6,0.5-3.2,1.4-4.6c0.9-1.4,2.1-2.6,3.6-3.5c1.5-0.9,3.1-1.5,4.8-1.7c1.8-0.2,3.5,0,5.2,0.6
		c3.5,1.2,6.5,3.5,8.5,6.6c2.1,3.2,3.5,6.8,4,10.6c0.6,3.9,0.7,7.8,0.3,11.7c-0.4,4-1.5,8-3.2,11.6c-1.8,3.7-4.3,6.9-7.4,9.5
		c-3,2.6-6.6,4.3-10.5,5.1c-3.8,0.7-7.6,0.4-11.2-0.9c-6.9-2.4-11.6-9-11.6-16.4c0-1.7,0.3-3.3,0.9-4.9c0.5-1.5,1.4-2.9,2.5-4.1
		c0.6-0.6,1.2-1,1.9-1.4c0.7-0.3,1.5-0.6,2.3-0.6c1.5-0.1,3,0.4,4.3,1.2c0.6,0.4,1.2,0.9,1.7,1.4c0.5,0.5,0.9,1.1,1.2,1.8
		c0.6,1.3,0.9,2.6,0.9,4c-0.1,2.6-0.9,5.1-2.4,7.2c-1.3,1.9-3,3.5-4.9,4.7c-1.7,1.1-3.5,1.8-5.5,2.2c-1.6,0.3-3.3,0.4-5,0.2
		c-2.3-0.2-4.5-1-6.5-2.1c-0.7-0.4-1.4-0.8-2-1.4c0,0,0.2,0.1,0.5,0.3c0.5,0.3,1,0.7,1.5,1c2,1.1,4.2,1.8,6.5,2
		c3.6,0.4,7.3-0.5,10.3-2.5c1.9-1.2,3.5-2.8,4.8-4.7c1.4-2.1,2.2-4.5,2.3-7.1c0-1.4-0.3-2.7-0.8-3.9c-0.3-0.6-0.7-1.2-1.2-1.7
		c-0.5-0.5-1-1-1.6-1.4c-1.2-0.8-2.7-1.2-4.1-1.2c-0.7,0.1-1.5,0.3-2.1,0.6c-0.7,0.3-1.3,0.8-1.8,1.3c-1.1,1.1-1.9,2.5-2.4,4
		c-0.5,1.5-0.8,3.2-0.8,4.8c0,7.2,4.6,13.7,11.4,16c3.5,1.3,7.4,1.5,11.1,0.8c3.8-0.8,7.4-2.5,10.4-5c3.1-2.6,5.6-5.8,7.3-9.4
		c1.7-3.6,2.8-7.5,3.2-11.5c0.4-3.9,0.3-7.8-0.3-11.6c-0.5-3.7-1.9-7.3-3.9-10.4c-2-3-5-5.3-8.4-6.4c-1.6-0.5-3.4-0.7-5.1-0.6
		c-1.7,0.2-3.3,0.8-4.7,1.6c-1.4,0.8-2.6,2-3.5,3.4c-0.8,1.3-1.3,2.9-1.3,4.5c0,1.5,0.3,3,0.9,4.4c0.6,1.4,1.4,2.6,2.4,3.7
		c1.9,2,4.4,3.5,7.1,4.2c4.7,1.3,9.7,0.4,13.6-2.5c1.6-1.1,3.1-2.4,4.6-3.7c1.4-1.2,2.6-2.3,3.8-3.2c1.8-1.5,3.8-2.6,6-3.3
		c0.4-0.1,0.7-0.2,1-0.2l0.7-0.1C290.3,73.8,290.5,73.8,290.5,73.8z"/>
	<path id="Path_1489" class="st4" d="M270.4,42.2c0,0.1-0.1,0.1-0.1,0.2l-0.4,0.5c-0.3,0.4-0.8,1-1.5,1.7c-1.9,2-4.1,3.7-6.6,5.1
		c-1.7,0.9-3.5,1.6-5.3,2.1c-2.1,0.5-4.4,0.6-6.6,0.4c-1.2-0.2-2.4-0.5-3.5-0.9c-1.2-0.4-2.3-1.1-3.2-1.9c-1-0.8-1.8-1.9-2.3-3.1
		c-0.5-1.3-0.5-2.7,0-4c0.6-1.2,1.7-2.2,3-2.6c1.3-0.5,2.6-0.5,3.9,0c1.2,0.5,2.2,1.3,2.9,2.4c0.7,1,1.1,2.2,1.1,3.4
		c0.1,2.3-0.8,4.4-2.4,6.1c-1.3,1.4-3.1,2.4-4.9,2.9c-1.5,0.4-3.1,0.6-4.7,0.5c-1.2-0.1-2.4-0.3-3.5-0.6c-0.7-0.2-1.4-0.4-2.1-0.7
		c-0.2-0.1-0.4-0.2-0.5-0.2c-0.1,0-0.1-0.1-0.2-0.1c0.1,0,0.1,0,0.2,0.1l0.5,0.2c0.7,0.3,1.4,0.5,2.1,0.7c1.1,0.3,2.3,0.5,3.5,0.5
		c1.6,0.1,3.1-0.1,4.6-0.5c1.8-0.5,3.5-1.5,4.8-2.9c1.5-1.6,2.3-3.7,2.2-5.8c-0.1-1.2-0.5-2.3-1.1-3.2c-0.7-1-1.6-1.8-2.7-2.3
		c-2.5-0.9-5.2,0.1-6.4,2.4c-0.5,1.2-0.5,2.5,0,3.7c0.5,1.2,1.2,2.2,2.2,3c1.9,1.5,4.1,2.5,6.5,2.7c2.2,0.3,4.3,0.2,6.5-0.3
		c1.8-0.4,3.6-1.1,5.3-2c2.4-1.3,4.6-3,6.6-4.9c0.7-0.7,1.2-1.2,1.6-1.6l0.4-0.4C270.3,42.3,270.4,42.2,270.4,42.2z"/>
	<path id="Path_1490" class="st1" d="M310.5,92.9c0,0,0-0.1,0-0.3c0-0.2,0-0.5-0.1-0.9c0-0.8-0.1-2-0.2-3.4c-0.2-3-0.5-7.3-1.3-12.5
		l-0.3-2l-0.4-2.1c-0.3-1.4-0.7-2.9-1.1-4.4c-0.9-3.2-2.1-6.3-3.6-9.3c-3.6-6.8-8.6-12.7-14.6-17.4c-3.1-2.4-6.5-4.5-10-6.4
		c-1.7-0.9-3.4-1.7-5.1-2.4c-1.7-0.8-3.4-1.4-5-2c-5.9-2.1-11.9-3.6-18.1-4.5c-4.2-0.6-8.4-0.8-12.6-0.8c-0.7,0-1.4,0-2,0.1
		l-1.4,0.1l-0.9,0c-0.2,0-0.3,0-0.3,0s0.1,0,0.3,0l0.9-0.1l1.4-0.1c0.6-0.1,1.2-0.1,2-0.1c4.2-0.1,8.4,0.1,12.6,0.7
		c6.2,0.8,12.3,2.3,18.2,4.4c1.7,0.6,3.4,1.2,5,2c1.7,0.7,3.4,1.6,5.1,2.4c3.5,1.9,6.9,4,10,6.4c6.1,4.7,11.1,10.7,14.7,17.5
		c1.5,3,2.7,6.1,3.6,9.3c0.4,1.5,0.8,3,1.1,4.4c0.1,0.7,0.3,1.4,0.4,2.1c0.1,0.7,0.2,1.4,0.3,2c0.8,5.3,1.1,9.6,1.2,12.6
		c0.1,1.5,0.1,2.6,0.1,3.4c0,0.4,0,0.7,0,0.9C310.5,92.8,310.5,92.9,310.5,92.9z"/>
	<path id="Path_1491" class="st1" d="M314.6,92.9c0,2.2-1.8,4.1-4.1,4.1c-2.2,0-4.1-1.8-4.1-4.1s1.8-4.1,4.1-4.1l0,0
		C312.8,88.8,314.6,90.7,314.6,92.9z"/>
	<path id="Path_1492" class="st1" d="M237.4,24.8c0,2.2-1.8,4.1-4.1,4.1s-4.1-1.8-4.1-4.1s1.8-4.1,4.1-4.1S237.4,22.5,237.4,24.8
		L237.4,24.8z"/>
	<path id="Path_1495" class="st5" d="M235.6,24.8c0,1.3-1.1,2.3-2.3,2.3s-2.3-1.1-2.3-2.3s1.1-2.3,2.3-2.3c0,0,0,0,0,0
		C234.5,22.4,235.6,23.5,235.6,24.8z"/>
	<path id="Path_1496" class="st6" d="M310.1,100.9c0,0.1,0,0.2-0.1,0.3c0,0.2-0.1,0.5-0.2,0.8l-0.3,1.3c-0.1,0.5-0.3,1.1-0.5,1.8
		l-0.7,2.2c-0.3,0.8-0.6,1.7-1,2.6c-0.3,0.9-0.8,1.9-1.2,3c-0.4,1-1,2.1-1.6,3.2c-0.5,1.1-1.2,2.3-1.9,3.5c-0.3,0.6-0.7,1.2-1.1,1.8
		s-0.8,1.2-1.2,1.8l-1.3,1.8c-0.2,0.3-0.4,0.6-0.7,0.9l-0.7,0.9c-0.5,0.6-1,1.2-1.5,1.9l-1.7,1.8c-0.5,0.6-1.2,1.2-1.8,1.8
		s-1.2,1.2-1.9,1.8l-2,1.8l-2.1,1.7c-5.9,4.6-12.6,8-19.8,10.2l-2.6,0.7l-2.6,0.6c-0.8,0.2-1.7,0.3-2.5,0.5s-1.7,0.3-2.5,0.4
		l-2.4,0.3c-0.8,0.1-1.6,0.1-2.4,0.1l-1.2,0.1c-0.4,0-0.8,0-1.2,0l-2.3,0c-0.7,0-1.5-0.1-2.2-0.1s-1.4,0-2.1-0.1
		c-1.4-0.2-2.7-0.2-3.9-0.5c-1.2-0.2-2.4-0.4-3.5-0.6c-1.1-0.3-2.2-0.4-3.1-0.7c-1-0.3-1.9-0.5-2.7-0.8l-2.2-0.8
		c-0.7-0.2-1.2-0.4-1.7-0.7l-1.3-0.5l-0.8-0.3c-0.1,0-0.2-0.1-0.3-0.1c0.1,0,0.2,0.1,0.3,0.1l0.8,0.3l1.3,0.5
		c0.5,0.2,1.1,0.4,1.8,0.6l2.2,0.7c0.8,0.2,1.7,0.5,2.7,0.7c1,0.3,2,0.5,3.1,0.7c1.1,0.3,2.3,0.4,3.5,0.6c1.2,0.2,2.5,0.3,3.9,0.4
		c0.7,0.1,1.4,0.1,2.1,0.1s1.4,0.1,2.2,0.1l2.2,0c0.4,0,0.8,0,1.1,0l1.2-0.1c0.8-0.1,1.6-0.1,2.4-0.2l2.4-0.3
		c0.8-0.1,1.6-0.2,2.5-0.4s1.7-0.3,2.5-0.5l2.6-0.6l2.6-0.7c7.1-2.1,13.8-5.5,19.7-10.1l2.1-1.7l2-1.7c0.7-0.6,1.3-1.2,1.9-1.8
		s1.2-1.2,1.8-1.8l1.6-1.8c0.5-0.6,1-1.2,1.5-1.8l0.7-0.9c0.2-0.3,0.5-0.6,0.7-0.9l1.3-1.8c0.4-0.6,0.8-1.2,1.2-1.8s0.8-1.2,1.1-1.8
		c0.7-1.2,1.4-2.3,1.9-3.4c0.6-1.1,1.1-2.2,1.6-3.2c0.4-1,0.9-2,1.2-2.9c0.3-0.9,0.7-1.8,1-2.6l0.7-2.2c0.2-0.7,0.4-1.3,0.5-1.8
		l0.3-1.3l0.2-0.8C310.1,101.1,310.1,101,310.1,100.9z"/>
	<path id="Path_1541" class="st3" d="M234.5,83.2l-29.3,47.1c-6.2-2.9-11.9-7-16.6-12c-10.5-12-9.2-28.2-6.6-43.9L234.5,83.2z"/>
	<path id="Path_1542" class="st7" d="M227.5,82L200,127.4c-18.7-11.3-28.5-32.8-24.9-54.3L227.5,82z"/>
	<path id="Path_1543" class="st4" d="M199.7,126.1c0.2-1.3,0.2-2.7,0-4c-0.2-1.4-0.6-2.8-1.2-4.1c-1.5-3.3-4.2-5.8-7.6-6.9
		c-1.4-0.5-2.8-0.8-4.2-0.8c-1.3,0-2.7,0.1-4,0.4c0.1,0,0.2-0.1,0.3-0.1c0.3-0.1,0.5-0.2,0.8-0.2c1-0.2,2-0.3,2.9-0.3
		c1.5,0,2.9,0.3,4.3,0.8c3.5,1.2,6.3,3.8,7.7,7.1c0.6,1.3,1,2.8,1.1,4.2c0.1,1,0.1,2,0,3c0,0.3-0.1,0.5-0.1,0.8
		C199.8,126,199.7,126,199.7,126.1z"/>
	<path id="Path_1544" class="st4" d="M181.1,74.9c0.1,0.1,0.3,0.2,0.4,0.3c0.3,0.3,0.6,0.7,0.9,1.1c1,1.5,1.5,3.3,1.6,5.1
		c0,1.2-0.1,2.5-0.6,3.6c-0.5,1.4-1.3,2.6-2.3,3.6c-0.6,0.5-1.3,0.9-2.1,1c-0.9,0.1-1.7-0.3-2.2-0.9c-0.3-0.4-0.4-0.8-0.3-1.3
		c0.1-0.4,0.3-0.9,0.6-1.2c0.7-0.6,1.6-0.8,2.5-0.6c1.7,0.3,3.2,1.2,4.3,2.6c1,1.2,1.7,2.7,2.1,4.2c0.3,1.4,0.3,2.8,0,4.2
		c-0.3,1.2-0.8,2.4-1.4,3.4c-0.9,1.5-2.1,2.9-3.6,3.9c-0.4,0.3-0.8,0.6-1.2,0.8c-0.1,0.1-0.3,0.2-0.4,0.2c0.1-0.1,0.3-0.2,0.4-0.3
		c0.3-0.2,0.7-0.5,1.1-0.9c1.4-1.1,2.5-2.4,3.4-4c0.6-1,1.1-2.2,1.3-3.4c0.3-1.3,0.3-2.8,0-4.1c-0.3-1.5-1-2.9-2-4
		c-1-1.3-2.5-2.1-4.1-2.4c-0.8-0.2-1.6,0-2.2,0.5c-0.3,0.3-0.5,0.6-0.5,1c-0.1,0.4,0,0.7,0.3,1c0.5,0.6,1.2,0.9,1.9,0.8
		c0.7-0.1,1.4-0.4,1.9-0.9c1-0.9,1.8-2.1,2.3-3.4c0.4-1.1,0.6-2.3,0.6-3.5c0-1.8-0.5-3.5-1.4-5C181.6,75.4,181,74.9,181.1,74.9z"/>
	<path id="Path_1545" class="st4" d="M204.2,77.6c-0.8,0.4-1.6,1-2.2,1.6c-1.8,1.8-2.9,4.2-3.1,6.7c-0.2,1.7-0.1,3.5,0.3,5.2
		c0.3,2,1.1,3.8,2.2,5.5c0.6,0.9,1.4,1.6,2.4,2.1c1,0.5,2.1,0.6,3.2,0.4c1.1-0.3,2.1-0.8,2.9-1.7c0.4-0.4,0.7-0.9,0.9-1.5
		c0.2-0.5,0.3-1.1,0.3-1.7c-0.2-2.4-2.1-4.3-4.4-4.6c-1.1-0.1-2.2,0.3-3,1c-0.8,0.7-1.5,1.5-1.9,2.5c-0.4,0.9-0.7,1.9-0.8,2.9
		c-0.1,1-0.1,1.9,0,2.9c0.2,1.7,0.8,3.4,1.7,4.9c0.7,1.2,1.6,2.4,2.7,3.3c0.8,0.7,1.7,1.4,2.6,1.9c0.8,0.4,1.7,0.8,2.6,1.1
		c-0.1,0-0.1,0-0.2,0l-0.5-0.1c-0.3-0.1-0.6-0.2-0.8-0.3c-0.4-0.1-0.7-0.3-1.1-0.5c-1-0.5-1.9-1.1-2.7-1.8c-1.1-1-2-2.1-2.7-3.4
		c-0.9-1.5-1.5-3.2-1.8-5c-0.1-1-0.1-2,0-3c0.1-1,0.4-2.1,0.8-3c0.4-1,1.1-1.9,2-2.6c1.4-1.2,3.4-1.4,5-0.6c0.6,0.3,1.1,0.6,1.5,1.1
		c0.9,0.9,1.5,2.1,1.6,3.3c0,0.6-0.1,1.3-0.3,1.9c-0.2,0.6-0.6,1.1-1,1.6c-0.8,0.9-1.9,1.5-3.1,1.8c-1.2,0.3-2.4,0.1-3.4-0.4
		c-1-0.5-1.8-1.3-2.5-2.2c-1.1-1.7-1.9-3.6-2.2-5.6c-0.3-1.7-0.4-3.5-0.2-5.3c0.3-2.6,1.4-5,3.2-6.8c0.5-0.5,1.1-0.9,1.7-1.2
		c0.2-0.1,0.3-0.2,0.5-0.2C204.1,77.7,204.2,77.6,204.2,77.6z"/>
</g>
<g id="girl">
	<path id="Path_2787" class="st3" d="M56.6,31.3c-4.1,1.6-6.8,5.4-7,9.8c-0.1,2.7,0,5.9-2.1,7.5c-2,1.6-4.9,0.9-7.3,1.7
		c-3,1.1-4.5,4.5-5.2,7.7s-0.9,6.6-2.6,9.3c-1.7,2.6-4.6,4.2-7.2,5.9s-5.2,4-5.7,7.1c-0.7,4.4,3.2,8.9,1.6,13.1
		c-1,2.7-3.9,4.1-6.1,6c-5.8,5-6.5,13.8-1.4,19.6c0.1,0.1,0.2,0.2,0.3,0.4c2,2.2,5,3.7,8,3.3c2.9-0.4,5.2-2.5,7.4-4.5
		c8-7.1,16.9-13.1,26.4-17.8c2.5-1.2,5.2-2.5,6.5-5c0.6-1.3,0.9-2.6,1.1-4c2.7-18.4,5.4-36.8,8-55.2"/>
	<path id="Path_2788" class="st3" d="M83.9,13.8C82.8,9.7,85.2,5.3,88.7,3s7.9-2.8,12.1-2.7c4.3,0.1,9.1,1.2,11.5,4.8
		c1.5,2.3,1.7,5.1,3.1,7.5c3.7,6.7,14.2,6.8,18.2,13.2c3.9,6.1-0.1,14.2,0.8,21.4c0.6,4.8,3.4,9,5.6,13.4s3.8,9.5,1.9,14
		c-2,4.8-7.6,7.9-8.1,13.1c-0.7,6.4,6.9,12.3,4.6,18.3c-1.7,4.5-8.2,6.1-8.9,10.9c-0.4,2.5,1.1,4.9,1.8,7.4c1.7,6.3-2.3,13.1-8.1,16
		s-12.8,2.4-19,0.3c-20.3-7-31-29-24.1-49.3c0.1-0.4,0.3-0.8,0.4-1.2"/>
	<path id="Path_2789" class="st3" d="M18.2,76.2c-0.2-0.4-0.5-0.7-0.9-0.8c-0.5-0.2-1-0.2-1.5-0.1c-0.7,0.1-1.2,0.6-1.4,1.3
		c-0.3,0.8-0.1,1.7,0.4,2.4c0.6,0.8,1.6,1.3,2.6,1.2c1.2,0,2.3-0.5,3.1-1.4c0.9-1,1.5-2.2,1.9-3.4c0.8-2.7,0.6-5.8,0.9-9.2
		c0.1-1.8,0.6-3.5,1.4-5.1c0.4-0.8,1-1.6,1.7-2.2c0.7-0.6,1.6-1.1,2.5-1.5c1.9-0.5,3.8-0.8,5.7-1c1.9-0.2,3.9-0.8,5.1-2.3
		c1.2-1.5,1.4-3.7,1.2-5.7c-0.3-2.1-0.4-4.3-0.4-6.4c0.2-2.2,0.9-4.3,2.1-6.1c1.2-1.8,2.9-3.2,4.9-3.9c2-0.5,4.1-0.6,6.1-0.3
		c1.9,0.1,3.9,0.2,5.4-0.9c1.5-1.1,1.8-3,1.9-4.7c0-1.7,0.2-3.5,0.5-5.2c0.8-3.1,2.7-5.8,5.2-7.7c2.1-1.5,4.6-2.4,7.3-2.5
		c2,0,3.9,0.3,5.7,1.1c1.1,0.5,2.2,1.1,3.1,1.9c0.3,0.3,0.6,0.6,0.9,0.9c0,0-0.3-0.3-1-0.8c-1-0.7-2-1.3-3.2-1.8
		c-1.8-0.7-3.7-1-5.6-1c-2.5,0.1-5,0.9-7,2.5c-2.5,1.8-4.2,4.5-5,7.4c-0.3,1.7-0.5,3.4-0.5,5.1c0,0.9-0.2,1.8-0.5,2.7
		c-0.3,0.9-0.9,1.8-1.6,2.4c-0.8,0.6-1.8,1-2.8,1c-1,0.1-2,0.1-3,0c-1.9-0.3-3.9-0.2-5.8,0.3c-1.9,0.7-3.5,2-4.6,3.7
		c-1.2,1.7-1.9,3.8-2,5.8c0,2.1,0.1,4.2,0.4,6.4c0.1,1.1,0.1,2.1-0.1,3.2c-0.2,1.1-0.6,2.1-1.3,3c-0.7,0.8-1.6,1.5-2.6,1.9
		c-1,0.4-1.9,0.6-3,0.7c-1.9,0.1-3.8,0.4-5.6,0.9c-0.8,0.3-1.6,0.7-2.3,1.3c-0.6,0.6-1.2,1.3-1.6,2.1c-0.7,1.5-1.2,3.2-1.4,4.9
		c-0.3,3.3-0.1,6.5-1,9.3c-0.4,1.3-1.1,2.6-2,3.6c-0.9,0.9-2.1,1.4-3.4,1.5c-1.1,0-2.2-0.5-2.8-1.4c-0.5-0.8-0.7-1.8-0.4-2.6
		c0.3-0.7,0.9-1.2,1.6-1.4c0.5-0.1,1.1,0,1.6,0.2C17.7,75.4,18,75.7,18.2,76.2z"/>
	<path id="Path_2790" class="st3" d="M145.7,90.6c0.1,0.1,0.1,0.2,0.1,0.3c0.1,0.3,0.2,0.6,0.2,1c-0.1,1.3-0.8,2.4-1.9,3
		c-0.8,0.5-1.7,0.7-2.6,0.5c-1.1-0.2-2-0.8-2.7-1.7c-0.8-1-1.3-2.2-1.4-3.4c-0.1-1.4,0.1-2.8,0.7-4.1c1.1-2.7,3.4-5,5.5-7.6
		c1.1-1.3,2-2.8,2.7-4.3c0.6-1.7,1-3.5,0.9-5.3c0-1.9-0.5-3.8-1.2-5.5c-0.8-1.8-2-3.4-3.5-4.7c-1.5-1.4-3.1-2.7-4.6-4.2
		c-1.6-1.5-2.7-3.6-3-5.8c-0.1-2.2,0.2-4.4,1-6.4c0.7-2,1.1-4,1.4-6c0.5-3.9-0.6-7.8-3.1-10.9c-2.3-2.8-5.7-4.2-9.3-3.9
		c-1.6,0.1-3.3-0.1-4.9-0.6c-1.4-0.7-2.5-1.8-3.1-3.3c-1.2-2.7-1.2-5.4-1.7-7.5c-0.2-1-0.6-2-1-2.9c-0.4-0.8-1-1.4-1.7-1.9
		c-1-0.7-2.2-1.1-3.4-0.9c-0.4,0.1-0.8,0.2-1.2,0.4c0.3-0.3,0.7-0.5,1.2-0.6c1.2-0.2,2.5,0.1,3.6,0.8c0.8,0.5,1.4,1.2,1.8,2
		c0.5,0.9,0.9,1.9,1.1,3c0.6,2.2,0.6,4.9,1.8,7.4c0.6,1.3,1.6,2.4,2.9,3c1.5,0.5,3.1,0.7,4.7,0.5c3.7-0.3,7.3,1.2,9.7,4.1
		c2.6,3.2,3.8,7.2,3.3,11.3c-0.2,2.1-0.7,4.2-1.4,6.1c-0.7,2-1.1,4.1-1,6.2c0.3,2.1,1.3,4,2.8,5.4c1.4,1.5,3.1,2.8,4.6,4.2
		c1.5,1.4,2.8,3,3.7,4.9c0.8,1.8,1.2,3.7,1.3,5.7c0,1.9-0.3,3.7-1,5.5c-0.7,1.6-1.6,3.1-2.8,4.5c-2.2,2.6-4.4,4.8-5.5,7.4
		c-0.5,1.2-0.8,2.5-0.7,3.9c0.1,1.2,0.6,2.3,1.3,3.2c0.6,0.8,1.5,1.4,2.5,1.6c0.8,0.2,1.7,0,2.5-0.5c1.1-0.6,1.8-1.6,1.9-2.8
		C145.9,91.4,145.9,91,145.7,90.6z"/>
	<path id="Path_2791" class="st3" d="M54.8,32.7c-2.2,0.6-3.4,3.1-3.4,5.4c0,2.3,0.9,4.5,1.5,6.7s0.9,4.7-0.2,6.7
		c-2.2,4-8.4,3.8-11.4,7.3c-3.8,4.5-0.3,11.8-3,17c-2.5,4.7-9.5,6.2-10.9,11.3c-0.9,3.3,1,6.9,0.1,10.1c-1,3.7-5.2,5.6-7.3,8.8
		c-2.2,3.2-2.2,7.6-0.7,11.2c1.4,3.1,3.6,5.9,6.4,8c0.3,0.3,0.7,0.5,1,0.8l40.2-9.4L75,42.4L54.8,32.7z"/>
	<g id="Group_7819">
		<g id="Group_7818">
			<g id="Group_7817">
				<g id="Group_7816">
					<g id="Group_7815">
						<path id="Path_2792" class="st8" d="M76.9,18.9c-3-0.3-5.8,1.7-6.4,4.7l0,0l-13.3,78.1c-1.8,9.2,10.4,17.2,20.3,19.1l0,0
							c9.9,1.9,11.3-2.9,13.3-11.5c3.3-14.5,4.5-19.9,4.5-19.9c0,0,12.9,0.6,19-15.2c3-7.8,5.4-21.2,7.1-32.2
							c1.5-9.9-2.4-23.3-12.4-24.3L76.9,18.9z"/>
					</g>
				</g>
			</g>
		</g>
	</g>
	<g id="Group_7832">
		<g id="Group_7831">
			<g id="Group_7830">
				<g id="Group_7829">
					<g id="Group_7828">
						<g id="Group_7827">
							<path id="Path_2793" class="st3" d="M115.5,51.8c-0.2,1.1-1.3,1.9-2.5,1.7c-1.1-0.1-1.9-1.2-1.8-2.3c0,0,0,0,0,0
								c0.2-1.1,1.3-1.9,2.5-1.7C114.9,49.6,115.7,50.6,115.5,51.8C115.5,51.8,115.5,51.8,115.5,51.8z"/>
						</g>
					</g>
				</g>
			</g>
		</g>
	</g>
	<g id="Group_7845">
		<g id="Group_7844">
			<g id="Group_7843">
				<g id="Group_7842">
					<g id="Group_7841">
						<g id="Group_7840">
							<g id="Group_7839">
								<path id="Path_2794" class="st3" d="M117,49.7c-0.3,0.2-1.7-1.3-3.9-1.8c-2.2-0.5-4.1,0.3-4.3,0c-0.1-0.1,0.3-0.6,1.1-1
									c1.1-0.5,2.4-0.6,3.5-0.3c1.2,0.2,2.2,0.9,3,1.7C117,49.1,117.2,49.6,117,49.7z"/>
							</g>
						</g>
					</g>
				</g>
			</g>
		</g>
	</g>
	<g id="Group_7858">
		<g id="Group_7857">
			<g id="Group_7856">
				<g id="Group_7855">
					<g id="Group_7854">
						<g id="Group_7853">
							<path id="Path_2795" class="st3" d="M93.1,47c-0.2,1.1-1.3,1.9-2.5,1.7c-1.1-0.1-1.9-1.2-1.8-2.3c0,0,0,0,0-0.1
								c0.2-1.1,1.3-1.9,2.5-1.7C92.5,44.8,93.3,45.8,93.1,47C93.1,46.9,93.1,47,93.1,47z"/>
						</g>
					</g>
				</g>
			</g>
		</g>
	</g>
	<g id="Group_7871">
		<g id="Group_7870">
			<g id="Group_7869">
				<g id="Group_7868">
					<g id="Group_7867">
						<g id="Group_7866">
							<g id="Group_7865">
								<path id="Path_2796" class="st3" d="M94.8,44.7c-0.3,0.2-1.7-1.3-3.9-1.8c-2.2-0.5-4.1,0.3-4.3,0c-0.1-0.1,0.3-0.6,1.1-1
									c1.1-0.5,2.4-0.6,3.5-0.3c1.2,0.2,2.2,0.9,3,1.7C94.8,44,95,44.6,94.8,44.7z"/>
							</g>
						</g>
					</g>
				</g>
			</g>
		</g>
	</g>
	<g id="Group_7884">
		<g id="Group_7883">
			<g id="Group_7882">
				<g id="Group_7881">
					<g id="Group_7880">
						<g id="Group_7879">
							<path id="Path_2797" class="st3" d="M99.4,62.5c1.3-0.1,2.5-0.1,3.8,0.1c0.6,0.1,1.2,0.1,1.3-0.3c0.2-0.6,0.2-1.2,0-1.8
								c-0.2-1.5-0.5-3.1-0.8-4.7c-1-6.7-1.6-12.2-1.4-12.3s1.3,5.4,2.4,12.1c0.2,1.7,0.5,3.2,0.7,4.7c0.2,0.8,0.1,1.6-0.2,2.3
								c-0.3,0.4-0.7,0.6-1.1,0.6c-0.3,0-0.7,0-1-0.1C101.9,63.1,100.6,62.9,99.4,62.5z"/>
						</g>
					</g>
				</g>
			</g>
		</g>
	</g>
	<g id="Group_7896">
		<g id="Group_7895">
			<g id="Group_7894">
				<g id="Group_7893">
					<g id="Group_7892">
						<path id="Path_2798" class="st9" d="M95.3,89.4c-7.7-1.5-14.8-5.1-20.6-10.5c0,0,3,12.7,19.7,14.6L95.3,89.4z"/>
					</g>
				</g>
			</g>
		</g>
	</g>
	<g id="Group_7908">
		<g id="Group_7907">
			<g id="Group_7906">
				<g id="Group_7905">
					<g id="Group_7904">
						<path id="Path_2799" class="st9" d="M97.3,67.7c-0.6-1.3-1.9-2.1-3.3-2.3c-1-0.1-2.1,0.2-2.8,0.8c-0.8,0.6-1.1,1.7-0.8,2.6
							c0.6,1,1.7,1.5,2.8,1.4c1.1-0.1,2.2-0.5,3.2-1.1c0.3-0.1,0.6-0.3,0.8-0.5C97.4,68.4,97.5,68.1,97.3,67.7"/>
					</g>
				</g>
			</g>
		</g>
	</g>
	<g id="Group_7921">
		<g id="Group_7920">
			<g id="Group_7919">
				<g id="Group_7918">
					<g id="Group_7917">
						<g id="Group_7916">
							<path id="Path_2800" class="st3" d="M92.5,62.6c0.4,0.1-0.1,2.5,1.6,4.7s4.4,2.5,4.3,2.8c0,0.2-0.7,0.4-1.8,0.1
								c-1.4-0.3-2.7-1.1-3.6-2.2c-0.9-1.1-1.3-2.5-1.2-3.9C91.9,63.1,92.3,62.6,92.5,62.6z"/>
						</g>
					</g>
				</g>
			</g>
		</g>
	</g>
	<g id="Group_7933">
		<g id="Group_7932">
			<path id="Path_2801" class="st3" d="M96.7,40.3c-0.4,0.6-2.5-0.2-5.2-0.5c-2.7-0.3-5,0-5.2-0.6c-0.1-0.3,0.4-0.8,1.4-1.2
				c2.6-1,5.6-0.7,8,0.8C96.4,39.5,96.8,40.1,96.7,40.3z"/>
		</g>
	</g>
	<g id="Group_7945">
		<g id="Group_7944">
			<path id="Path_2802" class="st3" d="M117.6,45.7c-0.5,0.4-1.9-0.4-3.8-0.9c-1.8-0.5-3.5-0.4-3.8-1c-0.1-0.3,0.3-0.8,1-1.1
				c2.1-0.8,4.6-0.2,6.1,1.5C117.7,44.9,117.8,45.4,117.6,45.7z"/>
		</g>
	</g>
	<path id="Path_2803" class="st3" d="M88.7,15.9c-3.2-3.4-7.7-5.3-12.4-5.2c-4.6,0.3-9.1,3.4-10.2,7.8c-0.7,2.9-0.1,6.2-2,8.5
		c-1.7,2.2-5,2.6-7.5,3.9c-4,2.2-6,6.9-4.8,11.3c1.1,3.6,4.3,6.8,3.8,10.6c-0.5,3.5-4,5.8-5.5,9.1c-1.6,3.6-0.4,7.9,2.1,11.1
		s5.9,5.3,9.3,7.4c2.7,1.7,5.5,3.4,8.6,3.3c3.8-0.2,7.1-2.6,8.3-6.2c1.1-3.5,0.7-7.4-1.3-10.6c-1.6-2.8-4.1-5.3-4-8.5
		c0.2-4.9,6.7-7.6,7.4-12.4c0.4-2.5-0.9-4.9-2-7.3s-1.7-5.2-0.3-7.3c1.8-2.8,5.9-2.7,8.8-4.4c2.4-1.5,3.8-4.2,3.6-7
		c-0.3-2.8-2.2-5.3-4.8-6.3"/>
	<path id="Path_2804" class="st3" d="M87.8,11.9c-1.3,6.1,2.5,12.2,8.7,13.6c0.7,0.2,1.4,0.2,2.1,0.3c2.6,0.1,5.6-0.6,7.5,1.2
		c2,1.9,1.3,5.3,3,7.5c2.3,3.1,7.4,1.8,10.8,3.6c2.6,1.4,3.8,4.5,5.2,7.2s3.7,5.4,6.7,5.2c0.5-2.6,0.6-5.2,0.5-7.8
		c-0.1-2.6-1.2-5.1-2.9-7c-1.1-0.9-2.1-1.9-3.1-2.9c-1.9-2.4-1.8-5.8-2.6-8.7c-1.2-3.9-4.2-6.9-8-8.2c-3.1-1-6.6-0.8-9.6-2.2
		c-2.2-1.1-3.9-3-6.1-4c-4.4-1.8-9.3,0.5-13.3,3.1"/>
	<path id="Path_2805" class="st7" d="M28.2,105.9c-0.4-0.1-0.9-0.2-1.3-0.4c-1.2-0.5-2.1-1.4-2.9-2.4c-1.2-1.6-1.8-3.7-1.6-5.7
		c0.3-2.7,1.6-5.2,3.6-7c1.1-1,2.4-1.9,3.6-2.8c1.3-0.9,2.4-2.2,2.9-3.7c0.5-1.6,0.1-3.4,0-5.2c-0.1-1.9,0.3-3.9,1.2-5.6
		c0.9-1.8,2.3-3.4,4-4.5c1.8-1.2,3.8-1.8,6-1.9c2.1-0.1,4.3,0.1,6.4-0.2c1-0.1,2.1-0.5,3-1c0.9-0.6,1.6-1.4,2.1-2.3
		c1-1.9,1.3-4.1,1.8-6.2c0.2-1.1,0.6-2.1,1.1-3.1c0.5-1,1.3-1.8,2.2-2.5c1.8-1.1,3.8-1.8,5.9-2c1.9-0.3,3.8-1,5.4-2
		c0.7-0.5,1.3-1.2,1.7-2.1c0.4-0.8,0.5-1.7,0.4-2.6c-0.2-1.7-0.6-3.5-1.3-5.1c-0.6-1.6-0.9-3.3-0.8-5c0.1-0.8,0.3-1.6,0.7-2.3
		c0.4-0.7,1-1.2,1.7-1.6c1.3-0.6,2.6-1,4.1-1.2c1.2-0.1,2.4-0.3,3.6-0.6c1.9-0.5,3.6-1.6,4.8-3.2c0.8-1,1.3-2.1,1.7-3.3
		c0.2-0.8,0.2-1.3,0.3-1.3c0,0.4-0.1,0.9-0.2,1.3c-0.3,1.2-0.8,2.4-1.6,3.4c-1.2,1.6-2.9,2.8-4.9,3.4c-1.2,0.3-2.4,0.5-3.7,0.7
		c-1.4,0.1-2.7,0.5-3.9,1.2c-1.3,0.8-2.1,2.1-2.2,3.6c-0.1,1.6,0.2,3.2,0.8,4.8c0.7,1.7,1.1,3.4,1.3,5.2c0.1,1-0.1,1.9-0.5,2.8
		c-0.4,0.9-1.1,1.7-1.9,2.3c-1.7,1.1-3.6,1.8-5.6,2.1c-2,0.3-3.9,0.9-5.7,2c-1.6,1.3-2.7,3.2-3,5.2c-0.5,2.1-0.8,4.3-1.9,6.4
		c-0.5,1-1.3,1.9-2.3,2.5c-1,0.6-2.1,0.9-3.2,1.1c-2.2,0.3-4.4,0.1-6.4,0.2c-4,0.1-7.7,2.4-9.5,6c-0.9,1.6-1.2,3.5-1.1,5.3
		c0.1,1.8,0.5,3.6-0.1,5.4c-0.6,1.6-1.7,3-3.1,4c-1.3,1-2.6,1.8-3.6,2.8c-1.9,1.7-3.2,4.1-3.5,6.7c-0.2,2,0.3,3.9,1.4,5.5
		c0.7,1,1.6,1.9,2.7,2.5C27.7,105.7,28.2,105.8,28.2,105.9z"/>
	<path id="Path_2806" class="st7" d="M125,130.6c0.4-0.4,0.7-0.7,1-1.1c0.8-1.2,1.3-2.6,1.3-4c0.1-2.3-0.5-4.6-1.5-6.6
		c-1.1-2.4-3-4.9-4.2-8.1c-1.3-3.6-1.3-7.5,0-11c0.7-2,1.7-3.8,3.1-5.4c1.4-1.6,3.1-3,4.5-4.7c1.3-1.7,2.3-4,1.7-6.1
		s-2.6-3.7-4.4-5.4c-0.9-0.9-1.7-1.8-2.3-2.9c-0.6-1.1-1-2.4-1.1-3.7c-0.2-2.6,0.3-5.2,1.3-7.6c0.9-2.4,2.2-4.7,3.2-7
		c1.1-2.2,1.8-4.6,2.1-7c0.3-4.7-1.5-9.2-5-12.3c-1.6-1.5-3.7-2.3-5.5-3.5c-0.9-0.6-1.7-1.3-2.3-2.3c-0.5-0.9-0.9-1.9-1-3
		c-0.1-0.9-0.4-1.9-0.9-2.7c-0.5-0.8-1.2-1.4-2-1.8c-1.6-0.8-3.3-1.3-5-1.6c-1.6-0.3-3.1-0.8-4.6-1.6c-1.3-0.7-2.5-1.5-3.5-2.6
		c-1.7-1.6-3-3.6-3.8-5.8c-0.5-1.4-0.8-2.8-0.9-4.3c0-0.5,0-1,0-1.5c0,2,0.4,3.9,1.1,5.7c0.8,2.1,2.1,4,3.8,5.6c1,1,2.2,1.8,3.4,2.5
		c1.4,0.7,3,1.2,4.5,1.5c1.8,0.3,3.5,0.9,5.1,1.6c0.9,0.5,1.6,1.1,2.2,1.9c0.5,0.9,0.8,1.8,1,2.8c0.1,1,0.4,1.9,0.9,2.8
		c0.6,0.8,1.3,1.6,2.2,2.1c1.7,1.2,3.8,2,5.5,3.5c3.6,3.2,5.6,7.9,5.3,12.8c-0.3,2.5-1,4.9-2.1,7.2c-1.1,2.3-2.3,4.5-3.2,6.9
		c-1,2.3-1.4,4.8-1.2,7.4c0.1,1.2,0.4,2.4,1,3.5c0.6,1,1.4,2,2.2,2.8c0.9,0.8,1.8,1.6,2.6,2.5c0.9,0.9,1.5,1.9,1.9,3.1
		c0.3,1.2,0.3,2.4-0.1,3.6c-0.4,1.1-0.9,2.1-1.7,3.1c-1.4,1.8-3.2,3.2-4.5,4.8c-1.3,1.5-2.3,3.3-3,5.2c-1.2,3.5-1.2,7.3,0,10.7
		c1.2,3.2,3,5.7,4.1,8.1c1.1,2.1,1.6,4.4,1.5,6.7c-0.1,1.5-0.6,2.9-1.5,4.1C125.8,130,125.4,130.3,125,130.6z"/>
	<path id="Path_2807" class="st1" d="M111.8,116.7c6.6,6.9,10.2,16.1,10,25.7c-0.3,16,2.3,44.9,2.3,44.9l44.2,27l-12.5,19.1
		l-48.7-21.6L97,191L111.8,116.7z"/>
	<path id="Path_2808" class="st1" d="M125.4,226.2c0,0,1.6-3.2-3-5.6l-7.5,0l-14.7-25.3l11.7-78.6l-20-15.2l-44.2-3.9l-15.5,79.5
		L52,213.3l39.2,16.1L125.4,226.2z"/>
	<path id="Path_2809" class="st1" d="M55.5,98.2l0.9-7.5c0.2-1.3,1.3-2.2,2.6-2.1c0.1,0,0.2,0,0.3,0.1c11,8.6,22.2,12.9,34.1,9.5
		c1.6,0.4,2.6,2.1,2.2,3.7L91,120.7l-12.1,3.6l-16-3.1l-7.5-13.8L55.5,98.2z"/>
	<path id="Path_2810" class="st3" d="M93.8,103.4c-0.4,0.3-0.9,0.6-1.4,0.9c-1.3,0.7-2.7,1.3-4.2,1.7c-9.8,3.1-20.4,0.7-27.9-6.3
		c-1.1-1-2.1-2.1-3-3.4c-0.4-0.4-0.7-0.9-0.9-1.4c1.3,1.6,2.7,3,4.2,4.4c7.5,6.7,17.9,9,27.5,6.2C90,104.9,91.9,104.2,93.8,103.4z"
		/>
	<path id="Path_2811" class="st10" d="M57.6,96.4c-0.6,1.5-0.4,3.1,0.5,4.4c0.9,1.2,2.1,2.3,3.4,3.2c4.3,3.2,8.7,6.4,13.9,7.8
		s11.2,0.9,15.1-2.7c1.1-1,2-3,0.8-4c-0.9-0.7-2.2-0.3-3.3,0.1c-10.9,4.2-23.2,0.4-29.8-9.2"/>
	<path id="Path_2812" class="st1" d="M51.5,181.4l72.3,38.8L97.7,236L48,221.4c-26.4-7-33.6-17.9-33.3-29.2c0.1-4.1-0.4-44.3,1.4-64
		c2.4-26.9,31.6-30.5,31.6-30.5l-0.5,23l0.3,28l1,25.7c2.6-1.3,3.3,3.6,3.3,3.6L51.5,181.4z"/>
	<path id="Path_2813" class="st3" d="M48,177.4c-0.2,0-0.4-9.7-0.5-21.7S47.4,134,47.6,134s0.4,9.7,0.5,21.7S48.2,177.4,48,177.4z"
		/>
	<path id="Path_2814" class="st3" d="M51.2,182.8c-0.1,0,0.1-0.5,0.3-1.2c0.4-2-0.8-3.9-2.6-4.5c-0.7-0.3-1.2-0.3-1.2-0.4
		c0-0.1,0.5-0.2,1.3,0c2.2,0.5,3.5,2.6,3,4.8c0,0.1,0,0.2-0.1,0.2C51.7,182.4,51.3,182.8,51.2,182.8z"/>
	<path id="Path_2815" class="st11" d="M111.3,215.3"/>
	<path id="Path_2816" class="st3" d="M51.2,182.8c0,0,0,0,0.1,0.1s0.2,0.2,0.4,0.3c0.4,0.2,1,0.6,1.7,1c1.5,0.8,3.7,2,6.3,3.3
		l21.1,10.8L102,209l6.4,3.3l1.7,0.9c0.2,0.1,0.4,0.2,0.6,0.4c-0.2-0.1-0.4-0.1-0.6-0.3l-1.8-0.8l-6.5-3.1
		c-5.4-2.7-12.9-6.4-21.2-10.6s-15.7-8.1-21-11S51.1,183,51.2,182.8z"/>
	<path id="Path_2817" class="st3" d="M98.6,196.1c-1.2-0.2-2.3-0.4-3.4-0.8c-2.1-0.6-4.9-1.5-8-2.5s-5.9-2.1-7.9-2.9
		c-1.1-0.4-2.2-0.8-3.2-1.4c1.1,0.2,2.3,0.6,3.3,1l7.9,2.7l7.9,2.7C96.4,195.2,97.5,195.6,98.6,196.1z"/>
	<path id="Path_2818" class="st3" d="M80.7,166.3c-0.1,0.3-0.2,0.6-0.4,0.9c-0.4,0.8-0.8,1.5-1.3,2.1c-0.7,1-1.6,1.9-2.5,2.8
		c-2.3,2.1-5,3.5-8,4.4c-1.2,0.3-2.4,0.5-3.7,0.6c-0.8,0.1-1.7,0-2.5,0c-0.3,0-0.6-0.1-0.9-0.2c0-0.1,1.3,0,3.4-0.2
		c1.2-0.1,2.4-0.4,3.6-0.7c2.9-0.8,5.5-2.3,7.8-4.2c0.9-0.8,1.8-1.7,2.6-2.6C80,167.4,80.6,166.2,80.7,166.3z"/>
	<path id="Path_2819" class="st3" d="M47.7,127.4c-0.1,0-0.2-1.6-0.6-4.2c-0.4-3.4-1.4-6.7-2.7-9.9c-1.4-3.1-3.6-5.8-6.3-7.9
		c-1.2-0.8-2.4-1.5-3.7-2.1c0.4,0,0.8,0.1,1.1,0.3c1,0.4,1.9,0.8,2.8,1.4c2.9,2,5.2,4.7,6.6,8c1.4,3.2,2.3,6.6,2.6,10.1
		c0.1,1.3,0.2,2.4,0.2,3.1C47.8,126.6,47.7,127,47.7,127.4z"/>
	<path id="Path_2820" class="st3" d="M124.8,187.3c-0.6,0.5-1.3,1-1.8,1.5c-1.3,1.4-2.5,2.9-3.4,4.5c-1,1.6-1.8,3.4-2.3,5.2
		c-0.4,1.4-0.4,2.3-0.5,2.3c-0.2-0.8-0.1-1.6,0.1-2.4c0.4-1.9,1.2-3.7,2.2-5.4c1-1.7,2.2-3.2,3.7-4.5
		C123.2,187.8,124,187.4,124.8,187.3z"/>
	<path id="Path_2821" class="st10" d="M114,215.7c2.4-4.6,1.8-10.2,0.5-15.2s-3.4-9.9-3.8-15.1c-0.3-4.5,0.6-9,1.5-13.4
		s1.8-8.9,1.3-13.4s-2.5-9-6.2-11.5c1.5,3.7,3,7.5,3.5,11.5s-0.1,8.3-2.5,11.5c-1.2,1.6-2.9,3-3.7,4.9c-1.1,2.5-0.9,5.4-1.7,7.9
		c-0.9,2.8-2.5,12-2.5,12c-0.1,0.5,2.7,5.8,5.6,9.5s6.2,7.1,8.3,11.3"/>
	<path id="Path_2822" class="st3" d="M114.2,215.4c-0.1-0.1-0.2-0.2-0.3-0.3l-0.8-1.1l-2.9-4.1L100,195.5l-0.1-0.1l0-0.1
		c1.1-5.6,2.4-11.9,3.8-18.6c0.1-0.7,0.3-1.4,0.4-2.1l0-0.1l0.1-0.1c4.2-4.2,6.6-9.9,6.7-15.9c-0.2-4.6-1.8-9-4.6-12.6l0-0.1v-0.1
		c-0.2-3-0.3-5.4-0.4-7.1c0-0.8-0.1-1.4-0.1-1.9c0-0.2,0-0.4,0-0.6c0.1,0.2,0.1,0.4,0.1,0.6c0,0.5,0.1,1.1,0.2,1.9
		c0.1,1.7,0.4,4.1,0.6,7l0-0.1c3,3.6,4.7,8.1,4.9,12.8c0.1,2.9-0.5,5.8-1.6,8.5c-1.2,2.9-2.9,5.6-5.2,7.9l0.1-0.2l-0.4,2.1
		c-1.4,6.7-2.7,13-3.8,18.6l0-0.2l10,14.6l2.8,4.2l0.7,1.1C114.1,215.1,114.2,215.2,114.2,215.4z"/>
	<path id="Path_2823" class="st10" d="M61.7,177.2c-0.7-0.6-1.8,0.3-1.8,1.2c0.2,0.9,0.8,1.7,1.6,2.1c2.2,1.2,4.8,1.7,7.3,1.4
		c3.1-0.2,6.1-1.4,8.5-3.5c2.4-2.1,3.4-5.3,2.9-8.5c0-0.3-0.1-0.5-0.3-0.7c-0.6-0.6-1.6,0.1-2.1,0.7c-4.1,4.3-9.6,6.8-15.5,7.1"/>
	<path id="Path_2824" class="st10" d="M47.6,176.7c-2.8-1.2-6-0.3-7.9,2c-0.7,0.7-0.9,1.7-0.5,2.6c0.5,0.6,1.3,0.9,2.1,0.7
		c0.7-0.2,1.4-0.6,2-1.1c1.3-1,2.7-2.1,3.9-3.2c0.2-0.1,0.3-0.3,0.4-0.6c0.1-0.2,0-0.5-0.2-0.6"/>
	<path id="Path_2825" class="st3" d="M41.5,182.8c-0.1,0,0-0.6,0.3-1.5c1-2.3,2.9-4,5.3-4.6c0.5-0.2,1-0.2,1.5-0.1
		c0,0.2-2.2,0.5-4.2,2.3C42.3,180.7,41.7,182.9,41.5,182.8z"/>
	<path id="Path_2826" class="st4" d="M20,143c-0.2,0-0.2-4.7,0-10.4c0.2-5.8,0.5-10.4,0.6-10.4s0.2,4.7,0,10.4
		C20.5,138.4,20.2,143,20,143z"/>
	<path id="Path_2827" class="st4" d="M25.2,159.3c-0.2,0-0.3-5.6-0.3-12.5s0.1-12.5,0.3-12.5s0.3,5.6,0.3,12.5
		S25.4,159.3,25.2,159.3z"/>
	<path id="Path_2828" class="st4" d="M34.5,118c0.1,0.9,0.2,1.9,0.1,2.8c0,1.8-0.1,4.2-0.2,6.8s-0.2,5.1-0.4,6.8
		c0,1-0.1,1.9-0.3,2.8c-0.1-0.9-0.2-1.9-0.1-2.8c0-1.8,0.1-4.2,0.2-6.8s0.2-5.1,0.4-6.8C34.2,119.9,34.3,118.9,34.5,118z"/>
	<path id="Path_2829" class="st4" d="M41.4,151.5c-0.2,0-0.3-3.6-0.3-8s0.1-8,0.3-8s0.3,3.6,0.3,8S41.5,151.5,41.4,151.5z"/>
	<path id="Path_2830" class="st4" d="M33.7,169.9c-0.2,0-0.1-3.4,0.1-7.6s0.5-7.6,0.7-7.6s0.1,3.4-0.1,7.6S33.9,169.9,33.7,169.9z"
		/>
	<path id="Path_2831" class="st4" d="M18.1,185.2c-0.2,0-0.4-3.3-0.4-7.5s0-7.5,0.2-7.5s0.4,3.3,0.4,7.5S18.3,185.2,18.1,185.2z"/>
	<path id="Path_2832" class="st4" d="M25.2,186.4c-0.2,0-0.2-2.4,0-5.4s0.4-5.4,0.6-5.4s0.2,2.4,0,5.4S25.3,186.4,25.2,186.4z"/>
	<path id="Path_2833" class="st4" d="M62.7,194.9c-0.1,0.1-3.3-1.2-7-3.4s-6.5-4.2-6.4-4.4s3,1.7,6.7,3.9S62.7,194.7,62.7,194.9z"/>
	<path id="Path_2834" class="st12" d="M63.4,195.3"/>
	<path id="Path_2835" class="st4" d="M86.5,207.4c-0.8-0.2-1.7-0.6-2.4-1c-3.7-1.9-7.3-4.2-10.5-6.9c-0.7-0.5-1.3-1.1-1.9-1.8
		c0.1-0.1,3.2,2.4,7.2,5.1S86.6,207.2,86.5,207.4z"/>
	<path id="Path_2836" class="st4" d="M88,214.2c-0.1,0.2-2.6-0.9-5.7-2.3s-5.5-2.7-5.5-2.9s2.6,0.9,5.7,2.3S88.1,214.1,88,214.2z"/>
	<path id="Path_2837" class="st4" d="M104.2,219.8c-0.1,0.1-2.8-1.5-6.2-3.3s-6.4-2.9-6.3-3.1C96.2,214.7,100.5,216.9,104.2,219.8
		L104.2,219.8z"/>
	<path id="Path_2838" class="st4" d="M100.2,227.8c-0.1,0.1-1.9-1-4.2-2.3s-4.2-2.3-4.1-2.4C94.9,224,97.8,225.7,100.2,227.8
		L100.2,227.8z"/>
	<path id="Path_2839" class="st4" d="M43.9,179.6c-0.2,0-0.4-2.1-0.5-4.8s-0.1-4.8,0.1-4.8s0.4,2.1,0.5,4.8S44,179.5,43.9,179.6z"/>
	<path id="Path_2840" class="st4" d="M79.5,147.6c-0.2,0-0.7-3-1.2-6.7s-0.7-6.7-0.6-6.8s0.7,3,1.2,6.7S79.6,147.5,79.5,147.6z"/>
	<path id="Path_2841" class="st4" d="M83.4,167.4c-0.2,0-0.4-3.2-0.4-7.1s0-7.1,0.2-7.1s0.4,3.2,0.4,7.1S83.5,167.4,83.4,167.4z"/>
	<path id="Path_2842" class="st4" d="M59.9,170.3c-0.7-2.1-1.1-4.3-1.1-6.6c-0.3-3.7,0-6.7,0.2-6.7c0.2,0,0.1,3,0.4,6.6
		S60,170.2,59.9,170.3z"/>
	<path id="Path_2843" class="st4" d="M67.9,189.8c-1.2-4.1-1.5-8.3-1.1-12.5c0.2,0,0.2,2.8,0.5,6.3S68.1,189.8,67.9,189.8z"/>
	<path id="Path_2844" class="st4" d="M71.4,161.8c-0.2,0-0.3-3.1-0.3-6.8s0.1-6.8,0.3-6.8s0.3,3.1,0.3,6.8S71.5,161.8,71.4,161.8z"
		/>
	<path id="Path_2845" class="st4" d="M61.7,138.3c0.2,0,0.3,2.3,0.3,5.1s-0.1,5.1-0.3,5.1s-0.3-2.3-0.3-5.1S61.5,138.3,61.7,138.3z"
		/>
	<path id="Path_2846" class="st4" d="M71.6,121c0.3,1.5,0.5,3,0.4,4.5c0.1,2.5,0,4.5-0.2,4.6c-0.3-1.5-0.5-3-0.4-4.5
		C71.3,123.1,71.4,121,71.6,121z"/>
	<path id="Path_2847" class="st4" d="M89.7,140c-0.2,0-0.6-4.3-0.9-9.6c-0.3-5.3-0.5-9.7-0.3-9.7s0.6,4.3,0.9,9.6
		C89.7,135.6,89.9,140,89.7,140z"/>
	<path id="Path_2848" class="st4" d="M95.6,174.1c-0.2,0-0.3-4.8-0.3-10.8s0.1-10.8,0.3-10.8s0.3,4.8,0.3,10.8
		S95.8,174.1,95.6,174.1z"/>
	<path id="Path_2849" class="st4" d="M85,191.5c-0.2,0-0.3-3.4-0.3-7.6s0.1-7.6,0.3-7.6s0.3,3.4,0.3,7.6S85.2,191.5,85,191.5z"/>
	<path id="Path_2850" class="st4" d="M94.7,201.7c-0.4-1.9-0.4-3.9,0-5.9C95.1,197.8,95.1,199.8,94.7,201.7z"/>
	<path id="Path_2851" class="st4" d="M101.1,130.1c0.2,0,0.3,3.1,0.3,6.9s-0.1,6.9-0.3,6.9s-0.3-3.1-0.3-6.9
		S100.9,130.1,101.1,130.1z"/>
	<path id="Path_2852" class="st4" d="M94.5,106.1c0.2,0,0.3,4.1,0.3,9.2s-0.1,9.2-0.3,9.2s-0.3-4.1-0.3-9.2S94.3,106.1,94.5,106.1z"
		/>
	<path id="Path_2853" class="st4" d="M82,108.5c0.2,0,0.3,2.8,0.3,6.2S82.1,121,82,121s-0.3-2.8-0.3-6.2S81.8,108.5,82,108.5z"/>
	<path id="Path_2854" class="st4" d="M110.6,137.1c-0.2,0-0.6-3.4-0.7-7.6s0.3-7.6,0.4-7.6s0.1,3.4,0.2,7.6S110.8,137.1,110.6,137.1
		z"/>
	<path id="Path_2855" class="st4" d="M116.1,149.9c-0.2,0-0.3-3.5-0.3-7.7s0.1-7.7,0.3-7.7s0.3,3.5,0.3,7.7S116.3,149.9,116.1,149.9
		z"/>
	<path id="Path_2856" class="st4" d="M119.5,172.3c-0.2,0-0.3-3.6-0.3-8s0.1-8,0.3-8s0.3,3.6,0.3,8S119.7,172.3,119.5,172.3z"/>
	<path id="Path_2857" class="st4" d="M111.8,184.6c-0.2,0-0.3-3.8-0.3-8.4s0.1-8.4,0.3-8.4s0.3,3.8,0.3,8.4S112,184.6,111.8,184.6z"
		/>
	<path id="Path_2858" class="st4" d="M105.8,198.9c-0.2,0-0.3-4-0.3-8.9s0.1-8.9,0.3-8.9s0.3,4,0.3,8.9S105.9,198.9,105.8,198.9z"/>
	<path id="Path_2859" class="st4" d="M119,191.4c-0.2,0-0.3-2.3-0.3-5.2s0.1-5.2,0.3-5.2s0.3,2.3,0.3,5.2S119.2,191.4,119,191.4z"/>
	<path id="Path_2860" class="st4" d="M132,216.6c-0.1,0.2-4.1-1.4-8.9-3.4s-8.7-3.8-8.7-4s4.1,1.4,8.9,3.4
		C128.2,214.7,132.1,216.5,132,216.6z"/>
	<path id="Path_2861" class="st4" d="M147.5,212c-0.1,0.2-4.3-1.2-9.5-3.1s-9.4-3.5-9.3-3.6s4.3,1.2,9.5,3.1
		C143.4,210.2,147.5,211.8,147.5,212z"/>
	<path id="Path_2862" class="st4" d="M136.6,201.6c-0.1,0.1-2.9-1.2-6.4-2.9c-3.5-1.8-6.2-3.3-6.1-3.5s2.9,1.2,6.4,2.9
		C133.9,199.9,136.7,201.5,136.6,201.6z"/>
	<path id="Path_2863" class="st4" d="M33.8,106c0.1,0.1-1.7,1.8-3.6,4.3c-1.9,2.4-3,4.7-3.1,4.6C28.3,111.3,30.7,108.2,33.8,106
		L33.8,106z"/>
	<path id="Path_2864" class="st4" d="M49.8,110.4c-0.9-2.4-1.4-4.9-1.5-7.4C49.1,105.4,49.7,107.9,49.8,110.4z"/>
	<path id="Path_2865" class="st3" d="M116.6,231.1l77.2-37.5c7.9-3.8,17.2-3.4,24.6,1.2l0,0c12.1,7.4,15.9,23.2,8.5,35.3
		c-0.7,1.2-1.5,2.3-2.4,3.3l-33.5,39.2l-85.4,11.8l-8-48.4l9.5-14.7L116.6,231.1z"/>
	<path id="Path_2866" class="st7" d="M163.2,247.1c-0.3,0.3-0.6,0.6-0.9,0.8c-0.6,0.5-1.6,1.1-2.7,1.9c-2.3,1.6-5.6,3.7-9.2,5.9
		c-3.7,2.2-7.1,4.1-9.6,5.4c-1.2,0.7-2.3,1.2-3,1.5c-0.4,0.2-0.7,0.4-1.1,0.5c0.3-0.3,0.7-0.5,1-0.7l2.9-1.7
		c2.4-1.4,5.8-3.3,9.5-5.6c3.7-2.2,6.9-4.3,9.3-5.8l2.8-1.8C162.5,247.4,162.9,247.2,163.2,247.1z"/>
	<path id="Path_2867" class="st3" d="M0.1,250c0,0,7.7-37,11.6-42.7s12.3-18.5,22.8-19.8s32,11.3,35.9,16.3
		c9.9,12.5,72.4,78.7,71.6,77.8l-20.1,13.9l-21.3-6.7H39.6C39.6,288.7-2.7,281.5,0.1,250z"/>
	<path id="Path_2868" class="st7" d="M100.7,288.7c-0.3,0-0.6,0-0.9-0.1c-0.9-0.1-1.8-0.2-2.7-0.4c-3.2-0.8-6.3-1.9-9.3-3.3
		c-9.8-4.6-19-10.4-27.5-17.2c-10.1-7.7-18.8-15.2-24.6-21.2c-2.3-2.3-4.5-4.8-6.4-7.5c-0.5-0.7-1-1.5-1.4-2.3
		c-0.2-0.3-0.3-0.5-0.4-0.8c0.2,0.2,0.4,0.5,0.5,0.8c0.5,0.8,1,1.5,1.5,2.2c2,2.6,4.2,5.1,6.5,7.3c7.8,7.5,16,14.5,24.7,21
		c8.4,6.8,17.6,12.6,27.3,17.3c2.9,1.4,6,2.6,9.2,3.4c0.9,0.2,1.7,0.4,2.6,0.5C100.1,288.5,100.4,288.6,100.7,288.7z"/>
	<path id="Path_2869" class="st7" d="M73.3,280.4c-0.2,0.2-0.5,0.3-0.8,0.5l-2.3,1.3c-1,0.6-2.3,1.1-3.8,1.7
		c-0.7,0.4-1.6,0.6-2.5,0.9c-0.9,0.3-1.8,0.7-2.8,0.9c-4.7,1.3-9.5,2.1-14.3,2.1c-5.9,0.1-11.9-0.6-17.6-2.3
		c-5.7-1.6-11.1-4.2-16-7.6c-1.1-0.8-2.2-1.6-3.2-2.4c-1-0.8-1.9-1.7-2.7-2.7c-1.4-1.7-2.7-3.6-3.8-5.6c-1.6-2.9-2.6-6-3.2-9.2
		c-0.1-0.9-0.2-1.8-0.2-2.6c0-0.3,0-0.6,0-0.9c0.1,0,0,1.3,0.4,3.5c0.6,3.2,1.7,6.2,3.3,9.1c1.1,2,2.3,3.8,3.8,5.5
		c0.8,0.9,1.7,1.8,2.6,2.6c1,0.8,2.1,1.5,3.2,2.4c4.9,3.3,10.2,5.9,15.9,7.5c5.7,1.6,11.5,2.4,17.4,2.3c4.8-0.1,9.6-0.7,14.2-2
		c1-0.2,1.9-0.6,2.8-0.9c0.9-0.3,1.7-0.5,2.5-0.9c1.5-0.6,2.8-1.1,3.9-1.6l2.4-1.2C72.7,280.7,73,280.5,73.3,280.4z"/>
	<path id="Path_2870" class="st7" d="M140.3,279.4c-0.1,0.1-15.3-15.8-33.9-35.6S72.9,207.8,73,207.7s15.3,15.8,33.9,35.6
		S140.4,279.3,140.3,279.4z"/>
	<path id="Path_2871" class="st1" d="M77.2,279.1c0,0-13.8,5.6-12.4,12.1s8.6,9.4,15.8,8.7s20.5-6.6,20.5-6.6l6.8-3.6
		c0,0-8.3-0.1-12.5-1.6C90.6,286.3,77.2,279.1,77.2,279.1z"/>
	<path id="Path_2872" class="st7" d="M94.3,290.4l49,7.7l103.5-10.3l-56.7-15.6L94.4,286c-1.1,0.2-1.9,1.1-1.9,2.2l0,0
		C92.4,289.3,93.2,290.2,94.3,290.4z"/>
	<path id="Path_2873" class="st7" d="M156.5,220.1l-11.9,70.1c-0.6,3.3,1.7,6.4,5,7c0.5,0.1,1.1,0.1,1.6,0.1l95.6-9.5
		c2.7-0.3,4.9-2.3,5.4-5l12.9-71c0.6-3.3-1.6-6.5-4.9-7.1c-0.6-0.1-1.2-0.1-1.7-0.1l-96.6,10.4C159.1,215.4,157,217.4,156.5,220.1z"
		/>
	<path id="Path_2874" class="st3" d="M92.4,288.2c0.1,0,0.2,0,0.3,0l0.8,0.1l2.9,0.4l10.8,1.6l36.6,5.7l-0.3,0.2
		c0.6-3.7,1.2-7.5,1.9-11.4c2.9-17.3,5.5-32.9,7.4-44.2c1-5.6,1.8-10.2,2.3-13.4c0.3-1.5,0.5-2.8,0.7-3.6c0.1-0.4,0.1-0.7,0.2-0.9
		c0-0.1,0-0.2,0.1-0.3c0,0.1,0,0.2,0,0.3c0,0.2-0.1,0.6-0.1,1c-0.1,0.9-0.3,2.1-0.5,3.7c-0.5,3.2-1.2,7.8-2.1,13.4
		c-1.9,11.4-4.4,27-7.2,44.2c-0.6,3.9-1.3,7.7-1.9,11.4l0,0.3l-0.3,0l-36.5-5.9l-10.8-1.8l-2.9-0.5l-0.7-0.1
		C92.6,288.2,92.5,288.2,92.4,288.2z"/>
	<path id="Path_2875" class="st4" d="M216.2,250.5c0,3.8-2.8,6.9-6.1,6.9s-6.1-3.1-6.1-6.9s2.8-6.9,6.1-6.9S216.2,246.7,216.2,250.5
		z"/>
	<path id="Path_2876" class="st3" d="M72.2,59.5c2.5,3.7,5,7.4,6.3,11.6s1.5,9-0.6,12.8c-1.8,3.2-5.1,5.7-5.6,9.3
		c-0.9,6.2,6.5,10.7,7,17c0.3,3.5-1.7,6.9-4,9.6s-5,5.2-6.5,8.4s-1.4,7.6,1.4,9.8c-3.4-1-6.9,2.7-10.3,1.5c-2.9-1-3.6-4.6-3.9-7.6
		c-1.4,1.8-1.9,4.2-1.3,6.4c-5.2-5.5-6.4-13.7-2.9-20.5c2-3.8,5.6-7.1,5.5-11.4c-0.1-4.7-4.4-8.2-5.7-12.8c-0.8-3.1-0.1-6.4,0.8-9.5
		s2.1-6.1,2.3-9.4s-0.2-4.5-2.9-6.2"/>
	<path id="Path_2877" class="st7" d="M63.6,137.4c-0.1,0-0.2,0-0.3,0c-0.3,0-0.5-0.1-0.7-0.2c-0.9-0.4-1.7-1.1-2.2-1.9
		c-0.9-1.3-1.3-2.9-1.2-4.5c0.2-2.1,0.9-4.1,2.1-5.8c1.3-1.9,3-3.7,4.6-5.8c1.6-2.1,3.2-4.6,3.2-7.5c0-3-1.6-5.8-3.4-8.4
		s-3.9-5.5-4.6-9.1c-0.3-1.8-0.1-3.6,0.7-5.2c0.8-1.5,1.8-2.8,3.1-4c1.1-1.1,2.2-2.3,3.2-3.5c0.9-1.2,1.6-2.6,1.8-4
		c0.2-1.4-0.1-2.8-0.9-4c-0.8-1.1-1.6-2.2-2.5-3.2c-1.7-1.9-2.8-4.2-3.2-6.7c-0.3-2.1-0.1-4.2,0.7-6.1c0.6-1.5,1.4-2.8,2.5-3.9
		c0.7-0.7,1.4-1.4,2.2-1.9c0.2-0.1,0.4-0.3,0.7-0.4c0.1,0,0.2-0.1,0.2-0.1c-1.1,0.7-2.1,1.6-3,2.5c-1,1.1-1.8,2.5-2.3,3.9
		c-0.7,1.9-0.9,3.9-0.6,5.9c0.4,2.4,1.5,4.7,3.1,6.5c0.9,1,1.8,2.1,2.6,3.3c0.8,1.3,1.2,2.8,1,4.4c-0.3,1.6-0.9,3-1.9,4.3
		c-1,1.3-2.1,2.5-3.2,3.6c-1.2,1.1-2.2,2.4-2.9,3.9c-0.7,1.5-1,3.2-0.7,4.8c0.6,3.4,2.6,6.1,4.5,8.8c0.9,1.3,1.7,2.7,2.4,4.2
		c0.7,1.4,1,3,1,4.6c0,1.5-0.4,3-1.1,4.3c-0.6,1.2-1.4,2.4-2.3,3.5c-1.7,2.1-3.4,3.9-4.7,5.8c-1.2,1.6-2,3.5-2.2,5.5
		c-0.1,1.5,0.3,3,1.1,4.3c0.5,0.8,1.2,1.5,2.1,1.9C63.3,137.3,63.6,137.3,63.6,137.4z"/>
	<path id="Path_2878" class="st8" d="M145.5,243.9c-3.4-3,0.4-6.6-5.7-12.3c-4.5-4.3-13.2-11.7-29.9-17.2l-10.5,18.7l18.2,5.9
		l-0.2,11.9c0,2.4,1.9,4.4,4.3,4.4c0,0,0.1,0,0.1,0l9.5-0.1c0,0-2.8,11.7-2.3,12.4c0.7,1.2,2.3,1.5,3.5,0.8c0.5-0.3,0.8-0.7,1-1.2
		c0.4-1.6,8.2-20.4,8.2-20.4s5.1,4.4,5.8,1.9C147.5,248.5,148.9,247,145.5,243.9z"/>
	<path id="Path_2879" class="st9" d="M120.1,255.5c0-0.1,0.4-0.4,1.1-1c1.6-1.6,2.4-3.9,2.2-6.2c-0.1-0.5-0.2-0.9-0.2-1.4
		c0.3,0.4,0.5,0.9,0.6,1.4c0.5,2.4-0.4,4.9-2.3,6.5C121,255.2,120.6,255.4,120.1,255.5z"/>
	<path id="Path_2880" class="st9" d="M126.2,255.1c1.7-2.2,2.5-5,2-7.7c0.2,0.4,0.4,0.8,0.4,1.2c0.3,2-0.2,4.1-1.5,5.7
		C126.6,254.9,126.2,255.2,126.2,255.1z"/>
	<path id="Path_2881" class="st9" d="M133.5,248.3c0.1,0,0.2,0.4,0.2,1c0,1.7-0.7,3.4-1.9,4.5c-0.5,0.4-0.8,0.6-0.9,0.6
		C132.5,252.8,133.4,250.6,133.5,248.3L133.5,248.3z"/>
</g>
<g>
	<path id="Path_2882" class="st1" d="M344.7,222.8c0.9-3.1,2.8-6.1,5.8-7.4c3.1-1.3,6.7-0.6,9.9,0.6s6.3,2.7,9.7,2.9
		s7.2-1.4,8.2-4.6c0.9-3-0.9-6.3-3.2-8.5c-7.9-7.6-20.6-7.4-28.2,0.5c-2,2.1-3.5,4.6-4.5,7.3"/>
	<path id="Path_2883" class="st10" d="M344.7,222.8c0.9-3.1,2.8-6.1,5.8-7.4c3.1-1.3,6.7-0.6,9.9,0.6s6.3,2.7,9.7,2.9
		s7.2-1.4,8.2-4.6c0.9-3-0.9-6.3-3.2-8.5c-7.9-7.6-20.6-7.4-28.2,0.5c-2,2.1-3.5,4.6-4.5,7.3"/>
	<path id="Path_2884" class="st1" d="M318,236.3c-4.9-4.7-4.7-12.9-2.2-19.2s7.8-11.2,13.9-14.4c11.9-6.2,26-6.7,38.2-1.2
		c-6,0.3-11.5,3.5-14.7,8.6c-2.7,4.5-3.3,10-5.5,14.7C342.4,235.8,329.4,240.9,318,236.3"/>
	<path id="Path_2885" class="st1" d="M315.6,208.1c-5.5-6.5-6.2-16.8-5.4-25.2s2.8-16.9,1.4-25.3c-0.8-5-2.7-9.7-3.4-14.6
		s0.3-10.6,4.1-13.8c4.4-3.7,11.4-2.8,16,0.6s7.3,8.9,9.2,14.3c4.3,11.9,5.9,25.1,2.3,37.3s-11.8,23-23.9,26.7"/>
	<path id="Path_2886" class="st3" d="M313,261.1c0-0.2,0-0.5,0-0.7c0-0.5,0-1.2,0-2.1c0.1-1.9,0.2-4.5,0.7-7.8
		c0.5-3.9,1.2-7.7,2.1-11.5c1.1-4.6,2.9-9.1,5.2-13.3c2.3-4.2,5.2-8,8.5-11.4c2.7-2.8,5.7-5.3,9-7.4c1.4-0.9,2.7-1.7,3.8-2.3
		c1.2-0.6,2.2-1.1,3-1.5l2-0.8c0.2-0.1,0.5-0.2,0.7-0.3c-0.2,0.1-0.4,0.2-0.7,0.3l-1.9,0.9c-0.8,0.4-1.8,0.9-3,1.6
		c-1.1,0.7-2.4,1.4-3.8,2.4c-7.1,4.9-13,11.3-17.3,18.8c-5,8.8-6.4,18-7.4,24.5c-0.5,3.3-0.7,5.9-0.8,7.8c-0.1,0.9-0.1,1.6-0.1,2.1
		C313.1,260.6,313,260.8,313,261.1z"/>
	<path id="Path_2887" class="st1" d="M265.8,182.6c-10.1,6.1-10.1,11.7-8.4,16.9s7.9,8.9,13.1,6.9c2.9-1.1,5-3.6,6.8-6.2
		s3.5-5.3,6-7.1s6.2-2.5,8.7-0.7"/>
	<path id="Path_2888" class="st10" d="M265.8,182.6c-10.1,6.1-10.1,11.7-8.4,16.9s7.9,8.9,13.1,6.9c2.9-1.1,5-3.6,6.8-6.2
		s3.5-5.3,6-7.1s6.2-2.5,8.7-0.7"/>
	<path id="Path_2889" class="st1" d="M258.2,189.3c2.6-3.7,9.2-4.7,13.3-2.9s7.2,5.4,9.9,9.1s5.3,7.4,9.1,9.9s9,3.4,12.7,0.9
		c2.4-1.8,4-4.5,4.3-7.5c0.3-3,0.1-5.9-0.6-8.8c-0.9-4.2-2.4-8.7-5.7-11.4c-3.8-3-9-3.1-13.9-3c-5.5,0.2-11.2,0.6-16.4,2.5
		S260.4,184.2,258.2,189.3"/>
	<path id="Path_2890" class="st3" d="M304.6,253c0-0.1,0-0.1,0-0.2l0-0.7c0-0.6-0.1-1.4-0.1-2.5c-0.1-2.2-0.2-5.4-0.3-9.2
		c-0.1-3.9-0.3-8.5-0.6-13.7s-0.7-10.8-1.5-16.7c-0.3-2.9-0.9-5.7-1.7-8.5c-0.8-2.6-1.8-5-3.1-7.4c-1.1-2.2-2.4-4.2-3.9-6.1
		c-1.3-1.7-2.7-3.2-4.3-4.7c-2.3-2.1-4.8-3.8-7.6-5.2c-0.5-0.2-0.9-0.4-1.3-0.6l-1-0.4l-0.6-0.2c-0.1,0-0.1-0.1-0.2-0.1
		c0.1,0,0.1,0,0.2,0.1l0.6,0.2l1,0.3c0.4,0.1,0.8,0.4,1.3,0.6c2.8,1.3,5.4,3,7.7,5.1c1.6,1.4,3,3,4.4,4.7c1.5,1.9,2.8,4,4,6.2
		c1.3,2.4,2.3,4.9,3.2,7.5c0.8,2.8,1.4,5.7,1.7,8.6c0.8,5.9,1.2,11.6,1.4,16.7s0.4,9.8,0.5,13.7s0.1,7.1,0.1,9.2c0,1.1,0,1.9,0,2.5
		c0,0.3,0,0.5,0,0.7C304.6,252.8,304.6,252.9,304.6,253z"/>
	<path id="Path_2891" class="st3" d="M308.2,257.5c-0.5-1.4-0.9-2.9-1.1-4.3c-0.7-4-0.9-8.1-0.5-12.2c0.6-6,1.9-12,3.9-17.7
		c2.1-6.5,4.9-13.5,7.3-21c1.2-3.6,2.2-7.3,2.9-11.1c0.7-3.5,1.1-7,1.4-10.6c0.5-6,0.6-12.1,0.3-18.1c-0.2-5.2-0.4-9.3-0.6-12.2
		c-0.1-1.4-0.1-2.5-0.2-3.3c0-0.4,0-0.6,0-0.9c-0.1,0-0.1-0.1-0.1-0.2s0.1-0.1,0.2-0.1c0.1,0,0.1,0.1,0.1,0.2c0,0.1-0.1,0.1-0.1,0.1
		c0,0.2,0,0.5,0.1,0.9c0.1,0.8,0.2,1.9,0.3,3.3c0.2,2.9,0.5,7,0.8,12.2c0.3,6,0.2,12.1-0.2,18.1c-0.3,3.6-0.7,7.1-1.4,10.6
		c-0.7,3.8-1.7,7.5-2.9,11.1c-2.4,7.5-5.2,14.5-7.3,21c-2,5.7-3.3,11.6-3.9,17.6c-0.4,4-0.3,8.1,0.3,12.2c0.2,1.4,0.5,2.5,0.7,3.2
		c0.1,0.4,0.2,0.6,0.2,0.8C308.2,257.3,308.2,257.4,308.2,257.5z"/>
	<path id="Path_2892" class="st7" d="M333.3,262.1h-47.5l-1.1-9.1h48.6L333.3,262.1z"/>
	<path id="Path_2893" class="st7" d="M290.9,261.1l5.9,27.4h25.8l5.6-27.4H290.9z"/>
	<path id="Path_2894" class="st7" d="M333.3,262.1c0,0.1-10.4,0.2-23.3,0.2s-23.3-0.2-23.3-0.3s10.4-0.2,23.3-0.2
		S333.3,262,333.3,262.1z"/>
	<path id="Path_2898" class="st3" d="M333.7,262.1c0,0.1-10.7,0.2-23.9,0.2s-23.9-0.1-23.9-0.2s10.7-0.2,23.9-0.2
		S333.7,262,333.7,262.1z"/>
</g>
</svg>
