<?xml version="1.0" encoding="utf-8"?>
<svg xmlns="http://www.w3.org/2000/svg" xmlns:xlink="http://www.w3.org/1999/xlink" style="margin: auto; background: rgba(255, 255, 255, 0); display: block; shape-rendering: auto;" width="100px" height="100px" viewBox="0 0 100 100" preserveAspectRatio="xMidYMid">
<g transform="rotate(0 50 50)">
  <rect x="42.5" y="14.5" rx="7.5" ry="7.5" width="15" height="15" fill="#ce4c50">
    <animate attributeName="opacity" values="1;0" keyTimes="0;1" dur="0.6944444444444443s" begin="-0.6076388888888888s" repeatCount="indefinite" />
  </rect>
</g><g transform="rotate(45 50 50)">
  <rect x="42.5" y="14.5" rx="7.5" ry="7.5" width="15" height="15" fill="#ce4c50">
    <animate attributeName="opacity" values="1;0" keyTimes="0;1" dur="0.6944444444444443s" begin="-0.5208333333333333s" repeatCount="indefinite" />
  </rect>
</g><g transform="rotate(90 50 50)">
  <rect x="42.5" y="14.5" rx="7.5" ry="7.5" width="15" height="15" fill="#ce4c50">
    <animate attributeName="opacity" values="1;0" keyTimes="0;1" dur="0.6944444444444443s" begin="-0.43402777777777773s" repeatCount="indefinite" />
  </rect>
</g><g transform="rotate(135 50 50)">
  <rect x="42.5" y="14.5" rx="7.5" ry="7.5" width="15" height="15" fill="#ce4c50">
    <animate attributeName="opacity" values="1;0" keyTimes="0;1" dur="0.6944444444444443s" begin="-0.34722222222222215s" repeatCount="indefinite" />
  </rect>
</g><g transform="rotate(180 50 50)">
  <rect x="42.5" y="14.5" rx="7.5" ry="7.5" width="15" height="15" fill="#ce4c50">
    <animate attributeName="opacity" values="1;0" keyTimes="0;1" dur="0.6944444444444443s" begin="-0.26041666666666663s" repeatCount="indefinite" />
  </rect>
</g><g transform="rotate(225 50 50)">
  <rect x="42.5" y="14.5" rx="7.5" ry="7.5" width="15" height="15" fill="#ce4c50">
    <animate attributeName="opacity" values="1;0" keyTimes="0;1" dur="0.6944444444444443s" begin="-0.17361111111111108s" repeatCount="indefinite" />
  </rect>
</g><g transform="rotate(270 50 50)">
  <rect x="42.5" y="14.5" rx="7.5" ry="7.5" width="15" height="15" fill="#ce4c50">
    <animate attributeName="opacity" values="1;0" keyTimes="0;1" dur="0.6944444444444443s" begin="-0.08680555555555554s" repeatCount="indefinite" />
  </rect>
</g><g transform="rotate(315 50 50)">
  <rect x="42.5" y="14.5" rx="7.5" ry="7.5" width="15" height="15" fill="#ce4c50">
    <animate attributeName="opacity" values="1;0" keyTimes="0;1" dur="0.6944444444444443s" begin="0s" repeatCount="indefinite" />
  </rect>
</g>
<!-- [ldio] generated by https://loading.io/ --></svg>