<svg version="1.1" id="Layer_1" xmlns="http://www.w3.org/2000/svg" xmlns:xlink="http://www.w3.org/1999/xlink" x="0px" y="0px"
     viewBox="0 0 1039.3 1119.8" enable-background="new 0 0 1039.3 1119.8" xml:space="preserve">
<path class="medium" d="M943.1,385.2l-356.9,182c-16.8,8.6-20.4,31-7,44.4l283.3,283.5c11.3,11.3,29.9,10.8,40.5-1.2 c122.1-137.8,152-326.2,78.2-495C974.8,384.2,957.3,378,943.1,385.2z"/>
<path class="small" d="M609.6,95.7l-60,379.8c-3.5,22.4,19.8,39.4,40.1,29.1L932,329.9c14.3-7.3,19.4-25,11.3-38.9 c-66.9-114.6-170.7-190-300.3-218.2C627.4,69.5,612.1,79.9,609.6,95.7z"/>
<path class="large" d="M488,570.6l66.4-419.7c2.5-15.8-8.8-30.4-24.8-32C387.9,104.6,257.7,151.5,155.2,254 c-182.6,182.6-182.6,478.8,0,661.4c175.6,175.6,456,182.3,639.6,20.1c12-10.6,12.4-29.1,1.2-40.4L495.8,594.6 C489.5,588.3,486.6,579.4,488,570.6z"/>
</svg>
