<?xml version="1.0" encoding="utf-8"?>
<!-- Generator: Adobe Illustrator 24.1.2, SVG Export Plug-In . SVG Version: 6.00 Build 0)  -->
<svg version="1.1" id="Layer_1" xmlns="http://www.w3.org/2000/svg" xmlns:xlink="http://www.w3.org/1999/xlink" x="0px" y="0px" viewBox="0 0 293 298" enable-background="new 0 0 293 298" xml:space="preserve">
<g id="right-arm">
	<path id="Path_427" fill="#CE4C50" d="M195.6,110.3L149.2,160l-69.5-20.6l-12.2,27.1c0,0,80.7,30,87.7,27.3s49.5-38.8,49.5-38.8   L195.6,110.3z"/>
    <path id="Path_428" fill="#FAFAFA" d="M167.5,141.9c1,1.3,2.1,2.5,3.3,3.6c2.1,2.2,4.9,5.2,7.8,8.7c4.8,5.7,8.4,10.9,9.7,12.4   l0.7,0.9l-0.5-1c-0.2-0.5-0.4-0.7-0.4-0.7s0,0.3,0.2,0.8l0.2-0.1c-2.7-4.6-5.7-8.9-9.2-12.9c-2.5-3-5.2-5.8-8.1-8.5   C170.1,143.9,168.9,142.8,167.5,141.9z"/>
    <path id="Path_429" fill="#FAFAFA" d="M171.3,136.2c1.2,1.3,2.4,2.5,3.8,3.7c2.3,2.2,5.5,5.4,8.7,9.2s5.9,7.4,7.8,10   c0.9,1.5,2,2.9,3.1,4.3c-0.7-1.6-1.5-3.2-2.6-4.6c-4.6-7.2-10.2-13.7-16.6-19.3C174.2,138.2,172.8,137.1,171.3,136.2z"/>
</g>
    <g id="shoe">
	<path id="Path_430" fill="#CE4C50" d="M72.4,285.7l1.1-5.4l30,5.9l-2,11.7l-1.9-0.2c-8.4-0.9-42.7-5-48-7.5   C45.9,287.4,72.4,285.7,72.4,285.7z"/>
        <path id="Path_431" opacity="0.5" fill="#FFFFFF" d="M90.7,296c0.8-2.5,2.5-4.7,4.7-6c2.3-1.4,5.1-1.8,7.7-0.9l-1.5,8.4L90.7,296z"/>
        <path id="Path_432" opacity="0.5" fill="#FFFFFF" d="M59.4,287c0,0-9.4,1.2-8.5,2.8s35.3,7.1,50.8,8.2l0.1-0.7l-40.3-6   C61.4,291.3,61.1,287.3,59.4,287z"/>
        <path id="Path_433" fill="#0E2549" d="M102.2,297.4c-0.2,0-0.4,0-0.5,0l-1.5-0.1l-5.5-0.6c-4.7-0.6-11.1-1.4-18.2-2.5   s-13.5-2.3-18.1-3.2l-5.5-1.1l-1.5-0.3c-0.2,0-0.3-0.1-0.5-0.1c0.2,0,0.4,0,0.5,0.1l1.5,0.3c1.5,0.3,3.3,0.6,5.5,1   c4.6,0.8,11,1.9,18.1,3s13.5,2,18.1,2.7l5.5,0.7l1.5,0.2C101.8,297.3,102,297.3,102.2,297.4z"/>
        <path id="Path_434" fill="#0E2549" d="M61.4,291.8c-0.1-1.9-0.8-3.8-2.1-5.2C60.9,287.7,61.8,289.8,61.4,291.8z"/>
        <path id="Path_435" fill="#0E2549" d="M71,288.7c-0.1,0-0.4-0.5-0.8-1.3s-0.5-1.4-0.4-1.5s0.4,0.5,0.8,1.3S71.1,288.6,71,288.7z"/>
        <path id="Path_436" fill="#0E2549" d="M73.6,287.8c-0.1,0.1-0.5-0.3-1-0.9s-0.7-1-0.7-1.1s0.5,0.3,1,0.9S73.7,287.7,73.6,287.8z"/>
        <path id="Path_437" fill="#0E2549" d="M75.6,285.1c-1.1,0.1-2.2-0.1-3.2-0.5C73.5,284.6,74.6,284.8,75.6,285.1z"/>
        <path id="Path_438" fill="#0E2549" d="M76.5,283.2c-1.2,0.4-2.5,0.3-3.6-0.3c0.6,0,1.2,0,1.8,0.2C75.3,283.1,75.9,283.1,76.5,283.2   z"/>
        <path id="Path_439" fill="#0E2549" d="M70.4,285.9c-0.7,0-1.3-0.1-1.9-0.3c-0.7-0.2-1.4-0.5-2-0.8c-0.4-0.2-0.8-0.4-1.1-0.7   c-0.2-0.2-0.3-0.4-0.4-0.7c0-0.3,0.1-0.6,0.4-0.7c1.6-0.5,3.4,0.2,4.2,1.7c0.2,0.4,0.4,0.9,0.4,1.4c0,0.2,0,0.4,0,0.5   c-0.1-0.6-0.3-1.2-0.6-1.8c-0.4-0.6-0.9-1-1.5-1.3c-0.7-0.4-1.6-0.5-2.3-0.2c-0.3,0.2-0.3,0.6,0,0.8c0.3,0.2,0.7,0.5,1,0.6   c0.6,0.3,1.3,0.6,1.9,0.8C69.6,285.7,70.4,285.8,70.4,285.9z"/>
        <path id="Path_440" fill="#0E2549" d="M69.9,285.9c-0.2-0.4-0.2-0.9,0-1.4c0.1-0.5,0.4-1,0.8-1.3c0.4-0.5,1.1-0.8,1.8-0.7   c0.4,0.2,0.6,0.6,0.5,1c-0.1,0.3-0.3,0.6-0.5,0.8c-0.3,0.4-0.7,0.7-1.1,1c-0.4,0.3-0.8,0.5-1.2,0.6c0-0.1,0.4-0.3,1.1-0.8   c0.4-0.3,0.7-0.7,1-1c0.3-0.4,0.6-1.1,0.2-1.2c-0.5-0.1-1,0.3-1.4,0.6c-0.3,0.3-0.6,0.7-0.7,1.2C70,285,69.9,285.4,69.9,285.9z"/>
        <path id="Path_441" fill="#0E2549" d="M102.8,289c0,0.1-0.9-0.2-2.2-0.3c-3.7-0.2-7.2,1.8-8.9,5.1c-0.7,1.2-0.8,2.1-0.9,2.1   c0-0.2,0-0.4,0.1-0.6c0.1-0.5,0.3-1.1,0.6-1.6c1.7-3.5,5.3-5.5,9.1-5.2c0.6,0,1.1,0.1,1.7,0.3C102.5,288.8,102.7,288.9,102.8,289z"/>
        <path id="Path_442" fill="#0E2549" d="M87.4,292.5c-3,0.1-6-0.3-8.8-1.3c0-0.1,2,0.3,4.4,0.7S87.4,292.4,87.4,292.5z"/>
        <path id="Path_443" fill="#0E2549" d="M93.3,293.4c0.1,0.1-0.2,0.4-0.5,0.8s-0.4,0.8-0.5,0.8s-0.1-0.5,0.2-1S93.2,293.3,93.3,293.4   z"/>
        <path id="Path_444" fill="#0E2549" d="M96,291c0.1,0.1-0.2,0.4-0.5,0.6s-0.7,0.4-0.8,0.3s0.2-0.4,0.5-0.6S95.9,290.9,96,291z"/>
        <path id="Path_445" fill="#0E2549" d="M99.4,290.2c0,0.1-0.4,0-0.9,0.1s-0.8,0.3-0.9,0.2s0.3-0.5,0.8-0.6S99.4,290.1,99.4,290.2z"/>
        <path id="Path_446" fill="#0E2549" d="M101.7,290c0,0.1-0.2,0.2-0.4,0.3s-0.5,0-0.5-0.1s0.2-0.2,0.4-0.3S101.7,289.9,101.7,290z"/>
</g>
    <g id="legs">
	<path id="Path_447" fill="#0E2549" d="M248.9,249.7l-103.3-97.5c-6.4-6.5-15.1-10.2-24.3-10.2l0,0c-0.7,0-1.4,0-2,0.1   c-16.5,0.8-30.1,13.6-32.9,29.9L64.9,279.3l43,12.1l15.4-86.9l51,46.1L248.9,249.7z"/>
        <path id="Path_448" fill="#0E2549" d="M281.5,259.9c0.4,1.2,3.3,37-41.4,37H120.8c-15.1,0-27.4-11.5-27.4-25.7l0,0   c0-14.2,12.3-25.7,27.4-25.7h111.2c4,0,7.9,0.8,11.5,2.4L281.5,259.9z"/>
        <path id="Path_449" fill="#8DBADF" d="M110.2,245.4c0,0.3,24.7,0.5,55.1,0.5s55.1-0.2,55.1-0.5s-24.7-0.5-55.1-0.5   S110.2,245.2,110.2,245.4z"/>
        <path id="Path_450" fill="#8DBADF" d="M126.6,181.7c-0.3,0-0.3,5.2-1.2,11.4c-0.9,6.3-2.4,11.2-2.1,11.3c0.2,0.1,2.1-4.8,3.1-11.2   C127.3,186.9,126.8,181.7,126.6,181.7z"/>
        <path id="Path_451" fill="#8DBADF" d="M121.5,181c-0.3,0-0.5,5.3,0,11.8c0.5,6.5,1.7,11.6,2,11.6c0.3,0-0.5-5.2-1-11.7   C122,186.2,121.8,181,121.5,181z"/>
        <path id="Path_452" fill="#8DBADF" d="M113,295.8c0.1-0.2-3.9-1.1-8.7-5.1c-2.8-2.4-5-5.3-6.6-8.6c-3.9-8.2-3.2-17.9,1.8-25.5   c2.1-3,4.7-5.6,7.8-7.5c5.4-3.3,9.4-3.6,9.4-3.8c-0.2,0-0.5,0-0.7,0c-0.7,0.1-1.3,0.2-2,0.4c-2.4,0.6-4.8,1.6-7,2.8   c-3.2,1.9-6,4.5-8.2,7.6c-5.3,7.8-6,17.8-1.9,26.3c1.7,3.4,4.1,6.3,7,8.7c2,1.6,4.1,2.9,6.5,3.8c0.6,0.3,1.3,0.5,1.9,0.6   C112.5,295.8,112.8,295.8,113,295.8z"/>
</g>
    <g id="head" transform="translate(1303.404 60)">
	<path id="Path_453" fill="#FBE8E8" d="M-1091.4-41.9l1,5.2l15,77.5c1.7,9-4.6,17.7-14.2,19.4l0,0c-9.7,1.8-19.2-4.1-21.1-13.1   c-2-9.5-4.3-19.5-4.3-19.5s-12.7,0.5-18.5-14.9c-2.9-7.7-5.2-20.8-6.8-31.6c-1.4-9.4,5.2-18.2,14.6-19.5c0.2,0,0.5-0.1,0.7-0.1   L-1091.4-41.9z"/>
        <path id="Path_454" fill="#0E2549" d="M-1136.1-9.9c0.2,1.1,1.3,1.8,2.4,1.7c1.1-0.1,1.9-1.1,1.7-2.2c0,0,0,0,0-0.1   c-0.2-1.1-1.3-1.8-2.4-1.7C-1135.5-12.1-1136.3-11.1-1136.1-9.9C-1136.1-10-1136.1-10-1136.1-9.9z"/>
        <path id="Path_455" fill="#0E2549" d="M-1136-12.7c0.3,0.2,1.6-1.3,3.8-1.7c2.2-0.5,4.1,0.3,4.2,0c0.1-0.1-0.3-0.6-1.1-0.9   c-1.1-0.5-2.3-0.6-3.5-0.3c-1.1,0.2-2.2,0.8-3,1.7C-1136.1-13.3-1136.2-12.8-1136-12.7z"/>
        <path id="Path_456" fill="#0E2549" d="M-1114.1-15c0.2,1.1,1.3,1.8,2.4,1.7c1.1-0.1,1.9-1.1,1.7-2.2c0,0,0,0,0-0.1   c-0.2-1.1-1.3-1.8-2.4-1.7C-1113.5-17.1-1114.2-16.1-1114.1-15C-1114.1-15-1114.1-15-1114.1-15z"/>
        <path id="Path_457" fill="#0E2549" d="M-1114.3-16.8c0.3,0.2,1.6-1.3,3.8-1.7c2.2-0.5,4.1,0.3,4.2,0c0.1-0.1-0.3-0.6-1.1-0.9   c-1.1-0.5-2.3-0.6-3.5-0.3c-1.1,0.2-2.2,0.8-3,1.7C-1114.3-17.4-1114.4-16.9-1114.3-16.8z"/>
        <path id="Path_458" fill="#0E2549" d="M-1118.9,1.2c-1.2-0.1-2.5-0.1-3.7,0.1c-0.6,0.1-1.1,0.1-1.3-0.3c-0.2-0.6-0.2-1.2,0-1.7   l0.8-4.6c1-6.6,1.7-12,1.4-12c-0.3,0-1.3,5.3-2.4,11.9c-0.2,1.6-0.5,3.2-0.7,4.6c-0.2,0.8-0.2,1.6,0.2,2.3c0.2,0.4,0.7,0.6,1.1,0.6   c0.3,0,0.7,0,1-0.1C-1121.3,1.9-1120.1,1.6-1118.9,1.2z"/>
        <path id="Path_459" fill="#F7CBCB" d="M-1115,27.6c7.5-1.4,14.5-5,20.2-10.2c0,0-2.9,12.1-19.2,13.9L-1115,27.6z"/>
        <path id="Path_460" fill="#0E2549" d="M-1112.1,1.4c-0.4,0.1,0.1,2.5-1.6,4.6s-4.3,2.4-4.2,2.7c0,0.2,0.7,0.3,1.7,0.2   c1.4-0.3,2.7-1,3.6-2.1c0.9-1.1,1.3-2.4,1.2-3.8C-1111.5,1.9-1111.9,1.3-1112.1,1.4z"/>
        <path id="Path_461" fill="#0E2549" d="M-1116.7-25.3c0.3,0.6,2.5-0.2,5.1-0.4c2.6-0.3,4.9,0,5.1-0.6c0.1-0.3-0.4-0.8-1.3-1.2   c-2.6-1-5.5-0.7-7.8,0.7C-1116.4-26.2-1116.8-25.6-1116.7-25.3z"/>
        <path id="Path_462" fill="#0E2549" d="M-1136.6-19.3c0.5,0.4,1.9-0.4,3.7-0.8c1.8-0.5,3.4-0.4,3.7-1c0.1-0.3-0.2-0.7-1-1.1   c-2.1-0.8-4.5-0.2-6,1.4C-1136.7-20-1136.8-19.5-1136.6-19.3z"/>
        <path id="Path_463" fill="#0E2549" d="M-1157.1-37.2c-0.3-1.3-0.1-2.7,0.4-3.9c0.2-1.1,0.9-2,1.8-2.7c1.1-0.5,2.3-0.1,3.5,0.2   c3.9,1.1,8.7,0.9,11.4-2.1c2.1-2.4,2.5-6,5-8c2.7-2.2,6.7-1.6,10-0.5c3.3,1.1,6.9,2.5,10.2,1.5c2.4-0.7,4.3-2.6,6.4-4   c3.8-2.7,8.5-3.7,13.1-2.9c4.6,0.9,8.5,3.9,10.4,8.2c1.8,4.3,0.9,9.3-2.3,12.8c-0.1,0.2-0.3,0.4-0.5,0.6c1.6,8.3,3.5,21.5-0.3,22.5   c-5.5,1.5-7.5-12.6-7.5-12.6c-7.4-0.9-9.1-8.2-11.2-9.3c-2.1-1.1-10.1,2.1-16.6,6.9c-8.1,6-22.1,6.9-27,7c-0.4,0.1-0.9,0.1-1.3,0   c-0.3,0-0.5,0-0.5,0l0.1-0.1c-0.3-0.1-0.6-0.2-0.9-0.3c-1.6-0.8-2.5-2.5-3.1-4.2c-0.7-1.4-1-3.1-0.9-4.7c0.2-1.2,0.8-2.2,1.9-2.8   C-1156.1-35.8-1156.8-36.4-1157.1-37.2z"/>
        <path id="Path_464" fill="#8DBADF" d="M-1147.6-33.9c-0.1-0.3-0.3-0.5-0.6-0.7c-0.8-0.6-1.7-0.7-2.7-0.4c-1.5,0.5-2.3,2.1-1.9,3.7   c0.3,0.9,1,1.7,1.9,2c1,0.3,2.1,0.3,3.1-0.1c2.2-0.7,3.5-3,4.4-5.2c0.4-1.2,1-2.3,1.5-3.4c0.6-1.1,1.5-2.1,2.5-2.7   c1.2-0.6,2.5-0.7,3.8-0.2c1.3,0.4,2.6,1,4.1,1.5c1.5,0.5,3.1,0.6,4.7,0.3c1.6-0.3,3.1-1,4.4-1.8c2.6-1.7,4.9-3.8,7-6.1   c1.9-2.1,4.1-3.9,6.5-5.3c2.2-1.2,4.8-1.5,7.3-1c2.2,0.4,4.1,1.5,5.7,3.1c2.2,2.4,3.2,5.6,2.9,8.8c-0.2,1.2-0.4,2.3-0.8,3.4   c0.2-0.2,0.3-0.5,0.5-0.8c0.4-0.8,0.6-1.7,0.7-2.6c0.2-1.4,0.2-2.9-0.2-4.3c-0.4-1.9-1.3-3.6-2.6-5c-1.6-1.7-3.7-2.9-6-3.4   c-2.6-0.6-5.4-0.3-7.8,1c-2.5,1.4-4.8,3.3-6.8,5.4c-2,2.3-4.3,4.3-6.8,6c-1.3,0.8-2.7,1.4-4.1,1.7c-1.4,0.3-2.9,0.2-4.3-0.2   c-1.4-0.4-2.7-1.1-4.1-1.4c-1.5-0.5-3-0.3-4.4,0.3c-2.6,1.6-3.5,4.4-4.4,6.5c-0.9,2.2-2,4.3-3.9,4.9c-0.9,0.3-1.8,0.4-2.7,0.1   c-0.8-0.2-1.4-0.8-1.6-1.6c-0.4-1.3,0.3-2.7,1.5-3.2c0.8-0.3,1.7-0.2,2.4,0.3C-1148-34.3-1147.8-34.1-1147.6-33.9z"/>
        <path id="Path_465" fill="#8DBADF" d="M-1153.9-30.8c0,0.2,0.1,0.5,0.2,0.7c0.3,0.6,0.7,1.2,1.2,1.6c0.8,0.8,1.7,1.3,2.8,1.6   c1.4,0.4,2.9,0.2,4.2-0.4c1.5-0.6,2.6-2.1,3.7-3.5c0.5-0.7,1.1-1.4,1.8-1.9c0.7-0.5,1.7-0.7,2.5-0.5c1,0.2,1.9,0.6,2.9,1   c1.1,0.4,2.2,0.6,3.3,0.6c2.3,0,4.7-0.6,6.7-1.8c4.3-2.2,7.4-5.4,10.8-7.5c3.4-2.1,7-3.1,9.9-2.4c2.3,0.5,4.3,2.1,5.4,4.2   c0.3,0.8,0.6,1.6,0.7,2.5c0.1-0.2,0.1-0.5,0.1-0.7c0-0.7-0.2-1.3-0.4-2c-1-2.3-3.1-4-5.5-4.6c-3.1-0.8-7,0.1-10.5,2.3   c-3.5,2.1-6.7,5.3-10.8,7.4c-1.9,1-4.1,1.6-6.3,1.7c-1,0-2.1-0.2-3-0.5c-1-0.4-2-0.7-3-1c-1.1-0.2-2.2,0-3.1,0.6   c-0.8,0.6-1.4,1.3-2,2.1c-1,1.5-2,2.8-3.3,3.4c-1.2,0.6-2.5,0.8-3.8,0.5c-1-0.2-1.9-0.7-2.6-1.4   C-1152.9-29.4-1153.4-30.1-1153.9-30.8z"/>
        <path id="Path_466" fill="#FBE8E8" d="M-1089.6-21.3c0.2-0.2,8.6-5.1,10.6,4.2s-7.7,9.4-7.8,9.2S-1089.6-21.3-1089.6-21.3z"/>
        <path id="Path_467" fill="#F7CBCB" d="M-1084.7-12c0,0,0.2,0.1,0.5,0.1c0.4,0.1,0.9,0,1.2-0.2c0.9-0.6,1.4-2.3,1.1-4   c-0.1-0.8-0.5-1.6-1-2.2c-0.3-0.6-0.9-0.9-1.5-1c-0.4,0-0.8,0.3-0.9,0.7c-0.1,0.3,0,0.5,0,0.5c0,0-0.2-0.1-0.2-0.5   c0-0.2,0.1-0.5,0.2-0.7c0.2-0.2,0.5-0.4,0.8-0.4c0.8,0,1.6,0.4,2,1.1c0.6,0.7,1,1.6,1.1,2.5c0.4,1.9-0.2,3.9-1.5,4.5   c-0.5,0.3-1,0.3-1.5,0.1C-1084.7-11.8-1084.8-12-1084.7-12z"/>
</g>
    <g id="right-hand-back">
	<path id="Path_468" fill="#FBE8E8" d="M61.7,139.7c-2.7,0.4-19.8,3-21.4,4.3s-1.6,3.1,0.4,3.5s12.7-0.4,12.7-0.4   s-13.9,0.3-14.4,1.8c-0.7,2.2,4.3,3.4,13.6,2c0,0-14.2-1.5-14.1,2c0.1,1.7,12.8,1.9,12.8,1.9c0.3,1-12.8-1.8-13.2,0.4   c-0.2,1,1.6,2,8.3,2.9c4,0.6,10.6,1.4,17.2,2.3l0,0.1l7.2,1l8.4-19.1c-0.7-0.6-4.6-3.1-7.3-5c-1.7-1.2-3.7-1.7-5.8-1.5l0,0   C64,136.1,62.3,137.6,61.7,139.7L61.7,139.7z"/>
        <path id="Path_469" fill="#F7CBCB" d="M41.5,147.8c0.1,0.3,3-0.2,6.7-0.5s6.6-0.5,6.6-0.8c0-0.2-3-0.5-6.7-0.1   S41.4,147.6,41.5,147.8z"/>
        <path id="Path_470" fill="#F7CBCB" d="M41,150.9c0,0.3,2.7,0.1,5.9,0s5.9-0.1,5.9-0.4c0-0.2-2.6-0.6-6-0.5S41,150.7,41,150.9z"/>
        <path id="Path_471" fill="#F7CBCB" d="M40.5,154.1c0,0.3,2.7,0.4,5.9,0.7s5.9,0.6,5.9,0.3c0-0.2-2.6-0.9-5.9-1.2   S40.5,153.9,40.5,154.1z"/>
</g>
    <g id="red-document">
	<path id="Path_472" fill="#CE4C50" d="M13.1,191.1l49-7.6c2.4-0.4,4-2.6,3.6-5l-10.3-66.1c-0.4-2.4-2.6-4-5-3.6c0,0,0,0,0,0   l-34.3,5.3L0,135.7l8.1,51.9C8.4,189.9,10.7,191.5,13.1,191.1C13.1,191.1,13.1,191.1,13.1,191.1z"/>
        <path id="Path_473" fill="#CE4C50" d="M16.1,114l2,13.1c0.5,3.2-1.7,6.3-5,6.8c0,0,0,0,0,0L0,135.7L16.1,114z"/>
        <path id="Path_474" opacity="0.3" d="M16.1,114l2,13.1c0.5,3.2-1.7,6.3-5,6.8c0,0,0,0,0,0L0,135.7L16.1,114z"/>
        <path id="Path_475" fill="#FFFFFF" d="M18.4,176.9c0-0.2,0-0.4-0.1-0.6c-0.1-0.5-0.1-1.1-0.2-1.8c-0.2-1.6-0.5-3.8-0.9-6.6   c-0.8-5.7-2-13.7-3.4-23.3l-0.3,0.4l33.5-5.1c0.1,0.1-1-0.7-0.5-0.4v0v0l0,0l0,0.1l0,0.1l0,0.3l0.1,0.5l0.2,1.1   c0.1,0.7,0.2,1.5,0.3,2.2c0.2,1.4,0.4,2.9,0.7,4.3c0.4,2.8,0.9,5.6,1.3,8.3c0.9,5.4,1.7,10.5,2.4,15.2l0.3-0.4l-24.1,4l-6.8,1.2   c-0.7,0.1-1.3,0.2-1.8,0.3C18.8,176.8,18.6,176.9,18.4,176.9c0.2,0,0.4,0,0.6,0l1.8-0.2l6.8-1c6-0.9,14.4-2.1,24.4-3.6l0.4-0.1   l-0.1-0.4c-0.7-4.7-1.5-9.8-2.3-15.2c-0.4-2.7-0.8-5.5-1.3-8.3c-0.2-1.4-0.4-2.9-0.7-4.3c-0.1-0.7-0.2-1.4-0.3-2.2l-0.2-1.1   l-0.1-0.5l0-0.3l0-0.1l0-0.1l0,0v0v0c0.5,0.3-0.6-0.5-0.5-0.4l-33.4,5.3l-0.4,0.1l0.1,0.4c1.6,9.6,2.9,17.7,3.8,23.4   c0.5,2.7,0.8,4.9,1.1,6.5c0.1,0.7,0.2,1.2,0.3,1.7C18.3,176.6,18.3,176.8,18.4,176.9z"/>
        <path id="Path_476" fill="#FFFFFF" d="M35.5,174.7c0.2,0-0.7-7.3-2.1-16.2s-2.7-16.1-2.9-16s0.7,7.3,2.1,16.2   S35.2,174.7,35.5,174.7z"/>
        <path id="Path_477" fill="#FFFFFF" d="M17.3,169c0,0.2,7.6-0.7,16.9-2.2s16.8-2.8,16.7-3.1s-7.6,0.7-16.9,2.2S17.2,168.8,17.3,169z   "/>
        <path id="Path_478" fill="#FFFFFF" d="M15.6,160.9c0,0.2,7.6-0.7,16.9-2.2s16.8-2.8,16.7-3.1s-7.6,0.7-16.9,2.2   S15.6,160.6,15.6,160.9z"/>
        <path id="Path_479" fill="#FFFFFF" d="M14.6,152.6c0,0.2,7.5-0.7,16.7-2.2s16.6-2.8,16.6-3s-7.5,0.7-16.7,2.2   S14.6,152.4,14.6,152.6z"/>
</g>
    <path id="laptop" fill="#8DBADF" d="M200.9,244.7v-6.1l-87.3,1.8L63.3,160l-4.6,3.3l51.5,82.2L200.9,244.7z"/>
    <g id="hands">
	<path id="left-hand" fill="#FBE8E8" d="M140.5,217.9l-4.4,6.5v13.4c0,0,2.3,0.5,3.2-1.3s2.1-8,2.1-8l2.1,5.5   c0.9,2.2,3.2,3.5,5.6,2.9l16.2-4.1l-6.6-18.9L140.5,217.9z"/>
        <g id="right-hand">
		<path id="Path_482" fill="#FBE8E8" d="M65.5,135.8l-14.9,4.7c-0.1,1.3,0.9,2.5,2.3,2.6c0.1,0,0.2,0,0.4,0c2.7-0.1,10-0.8,10-0.8    s0,5.2,4.3,6.3c0,0,5.4-9.4,5.2-9.6S65.5,135.8,65.5,135.8z"/>
            <path id="Path_483" fill="#F7CBCB" d="M64.4,155.5c0.1,0,0.2-0.5,0.7-1.4c0.6-1.2,1.6-2.1,2.8-2.7l0.8-0.4l-0.9-0.3    c-3.2-1.4-5.1-4.6-4.8-8.1l0.1-0.5l-0.5,0c-3.9,0.3-6.6,0.7-6.5,0.8s2.7,0.2,6.6,0l-0.4-0.5c-0.5,3.8,1.7,7.5,5.3,8.9l0-0.7    c-1.3,0.7-2.3,1.8-2.9,3.2C64.3,154.9,64.4,155.5,64.4,155.5z"/>
	</g>
</g>
    <g id="torso">
	<path id="Path_484" fill="#CE4C50" d="M229.9,88.3c0,0,19.5,11.2,26.8,22.1c7.2,10.9,20.2,23.8,29,58.8c7.8,30.6,10.7,72,2.2,83.5   c-5.8,7.9-10.1,10.9-10.1,10.9l-15.1-6.2c-18-6.4-34.3-10.6-48.4-23.4l-28.6-26.1l15.1-12c0,0-11.5-62.3-8.5-84   C195.1,92.8,229.9,88.3,229.9,88.3z"/>
        <path id="Path_485" fill="#CE4C50" d="M237.3,118.3l16,74.7c2.8,13-4.5,26.2-17,30.7l-69.4,13.3l-8.7-25.9l0,0l56.3-17.6   l-16.5-72.2L237.3,118.3z"/>
        <path id="Path_486" fill="#0E2549" d="M253.9,207.2c-0.1,0.1-0.1,0.3-0.1,0.4c-0.1,0.3-0.2,0.7-0.3,1.3c-0.1,0.3-0.1,0.6-0.2,1   L253,211c-0.1,0.4-0.3,0.8-0.5,1.3c-0.2,0.4-0.5,0.9-0.8,1.4c-1.4,2.4-3.3,4.4-5.6,5.9c-3.1,2.1-6.6,3.6-10.2,4.4l-68.7,12.6   l0.5,0.3l-9-25.9l-0.3,0.6l56.3-17.5l0.4-0.1l-0.1-0.4c-1-3.8-2-8-3.1-12.1c-3.3-13.1-6.3-25.9-9-38.3c-1.3-6.2-2.5-12.3-3.4-18.4   c-0.3-1.5-0.2-3-0.4-4.5c0-1.5,0.2-2.9,0.5-4.4c0.7-2.8,2-5.4,3.8-7.7c3.7-4.3,9.1-6.7,14.7-6.6c5.3,0.3,10.3,2.8,13.7,6.9   c3.2,3.8,5.6,8.2,7,13c1.3,4.4,2.4,8.9,3.2,13.4c3.4,17.3,6.2,31.3,8.1,41.1c1,4.8,1.7,8.6,2.2,11.2c0.3,1.2,0.5,2.2,0.6,2.9   c0.1,0.7,0.2,1,0.2,1s0-0.3-0.1-1c-0.1-0.7-0.3-1.7-0.5-2.9c-0.5-2.6-1.2-6.4-2.1-11.2c-1.8-9.7-4.5-23.8-7.8-41.1   c-0.8-4.6-1.8-9.1-3.2-13.5c-1.4-4.9-3.9-9.4-7.1-13.3c-3.5-4.3-8.7-6.9-14.2-7.2c-5.9-0.1-11.6,2.4-15.4,6.9c-2,2.3-3.4,5.1-4,8   c-0.3,1.5-0.5,3-0.5,4.6c0.1,1.5,0.1,3.1,0.4,4.6c0.9,6.1,2.1,12.2,3.4,18.4c2.7,12.4,5.7,25.3,9,38.3c1.1,4.2,2.1,8.3,3.1,12.1   l0.3-0.6c-19.9,6.2-38.9,12.2-56.3,17.6l-0.4,0.1l0.2,0.4c3.2,9,6.2,17.7,9.1,25.9l0.1,0.3l0.3-0.1c28.4-5.3,52.1-9.7,68.6-12.9   c3.7-0.9,7.2-2.5,10.3-4.6c2.3-1.6,4.2-3.7,5.6-6.1c0.3-0.5,0.5-1,0.7-1.4c0.2-0.5,0.3-0.9,0.5-1.3s0.3-0.8,0.4-1.1   c0.1-0.4,0.1-0.7,0.2-1l0.2-1.3C253.9,207.5,253.9,207.4,253.9,207.2z"/>
        <path id="Path_487" fill="#0E2549" d="M224.3,203.4c0.1,0,0.2-0.9-0.1-2.2c-1-3.6-3.9-6.3-7.5-7.2c-1.4-0.3-2.2-0.2-2.2-0.1   c0,0.2,0.8,0.3,2,0.7c3.2,1.2,5.8,3.6,7.1,6.8C224,202.6,224.1,203.4,224.3,203.4z"/>
        <path id="Path_488" opacity="0.3" d="M239,117.4c8.4,25.9,13.4,52.8,16.7,79.8c0.8,6.2,1.4,12.6,0.4,18.8s-4.1,12.3-9.4,15.7   c-4.9,3.2-11.2,3.7-17,2.6s-15.1-2.4-20.4-4.9l31.1-6.4c0,0,20-1.2,11.4-39.6S239,117.4,239,117.4z"/>
        <path id="Path_489" fill="#0E2549" d="M200.9,195.8c0-1-0.1-2-0.3-3c-0.3-2.1-0.7-4.8-1.2-8.1c-1-6.9-2.3-16.3-3.8-26.6   c-1.5-10.4-2.8-19.8-3.6-26.6c-0.4-3.3-0.8-6-1-8.1c-0.1-1-0.2-2-0.4-3c0,1,0,2,0.1,3c0.1,1.9,0.4,4.7,0.7,8.1   c0.7,6.8,1.9,16.3,3.4,26.7s2.9,19.8,4.1,26.6c0.6,3.4,1.1,6.1,1.4,8C200.3,193.9,200.6,194.9,200.9,195.8z"/>
        <path id="Path_490" fill="#FAFAFA" d="M201.9,141.5c0.1,0.1,2.2-0.7,5.8-1.8c9.3-2.9,18.9-4.3,28.6-4.2c3.7,0,6,0.2,6,0.1   c-0.5-0.2-1.1-0.3-1.6-0.3c-1-0.2-2.5-0.3-4.4-0.4c-9.8-0.5-19.6,0.9-28.9,4.2c-1.8,0.6-3.2,1.2-4.1,1.7   C202.8,140.9,202.4,141.2,201.9,141.5z"/>
        <path id="Path_491" fill="#FAFAFA" d="M203.8,149.2c0.1,0.1,2.2-0.7,5.9-1.8c9.4-2.8,19.3-3.9,29.1-3.1c3.8,0.3,6.1,0.6,6.1,0.5   c-0.5-0.2-1-0.4-1.6-0.4c-1-0.2-2.6-0.5-4.4-0.7c-9.9-1.1-19.9,0-29.3,3.2c-1.8,0.6-3.2,1.2-4.2,1.6   C204.7,148.6,204.2,148.8,203.8,149.2z"/>
</g>
    <g id="scarf">
	<path id="Path_492" fill="#8DBADF" d="M179.2,94.1c0-2.2,1.4-4.3,3.5-5.1c1.8-0.7,3.8-0.3,5.7-0.1c6.9,0.7,13.7-1,19.5-4.7   c5.2-3.4,9.4-8.4,15.1-10.7c1.5-0.7,3.1-1,4.7-0.9c1.6,0.1,3.1,0.9,4,2.3c1.4,2.2,0.5,5.2-1.1,7.2c3.1,1.6,4.7,5.6,2.7,8.5   c-14.1,2-26.9,9.4-35.5,20.8c-1.5,2-3,4.2-5.2,5.3c-4.1,2.1-9.5-0.4-11.4-4.6s-0.9-9.2,1.7-13C180.7,98.3,179.2,96.4,179.2,94.1z"/>
        <path id="Path_493" fill="#0E2549" d="M183.3,98.7c0.5,0.4,1.1,0.7,1.7,0.9c1.6,0.7,3.3,1.1,5,1.3c2.6,0.3,5.1,0.2,7.6-0.5   c3-0.8,5.9-2.2,8.4-4.1c2.7-1.9,5-4,7.2-5.8c1.9-1.6,3.9-3.1,6.1-4.4c2-1.1,4.2-2,6.4-2.6c-0.6,0-1.3,0.1-1.9,0.2   c-1.7,0.4-3.3,1-4.8,1.9c-2.2,1.2-4.3,2.7-6.3,4.3c-2.2,1.8-4.6,3.9-7.2,5.8c-2.4,1.8-5.2,3.2-8.1,4c-2.4,0.6-4.9,0.8-7.4,0.6   C185.8,99.8,183.4,98.5,183.3,98.7z"/>
        <path id="Path_494" fill="#FAFAFA" d="M189.7,117.6c-0.4-0.1-0.8-0.3-1.2-0.5c-1-0.6-1.9-1.4-2.5-2.4c-0.8-1.5-1.2-3.3-1.1-5   c0.2-2.1,0.6-4.3,1.2-6.3c0.4-1.2,1.4-2.1,2.6-2.4l0.3,0l-0.2-0.3c-1-1.3-1.6-3-1.7-4.6c0-1.3,0.3-2.7,0.9-3.8   c0.6-1.1,1.4-2,2.3-2.8c-0.3,0.2-0.5,0.3-0.8,0.6c-1.7,1.5-2.7,3.7-2.7,6.1c0,1.8,0.6,3.5,1.7,4.8l0.1-0.3   c-1.4,0.2-2.5,1.2-2.9,2.6c-0.7,2.1-1.1,4.2-1.2,6.4c-0.1,1.8,0.3,3.6,1.2,5.2c0.6,1.1,1.5,1.9,2.6,2.4   C188.9,117.5,189.3,117.6,189.7,117.6z"/>
        <path id="Path_495" fill="#FAFAFA" d="M200.1,87.9c-0.8,0.8-1.5,1.8-1.9,2.9c-1.2,2.6-1.3,5.5-0.5,8.2l0.3,0.7l0-0.2   c-1.3,2.4-1.5,5.2-0.6,7.7c0.3,1,0.9,2,1.6,2.7c-0.6-0.9-1.1-1.8-1.4-2.8c-0.8-2.5-0.6-5.1,0.7-7.4l0-0.1l0-0.1   c-0.1-0.2-0.2-0.5-0.3-0.7c-0.8-2.6-0.7-5.5,0.4-8C198.9,89.8,199.4,88.8,200.1,87.9z"/>
        <path id="Path_496" fill="#FAFAFA" d="M207.3,84.3c-0.1,0.2-0.3,0.3-0.3,0.5c-0.3,0.5-0.4,1.1-0.6,1.6c-0.4,1.9-0.2,3.9,0.7,5.6   c0.3,0.6,0.7,1.2,1.1,1.7l0-0.1c0.1,1.5,0.9,2.9,2,3.8c0.3,0.3,0.7,0.5,1.1,0.7c0.1,0.1,0.3,0.1,0.4,0.1c-0.5-0.3-1-0.6-1.4-1   c-1.1-0.9-1.7-2.2-1.8-3.7v-0.1l0,0c-0.4-0.5-0.8-1-1-1.6c-0.8-1.7-1.1-3.6-0.8-5.4C206.9,85.8,207.1,85,207.3,84.3z"/>
        <path id="Path_497" fill="#FAFAFA" d="M216.7,77.6c0.7,0.6,1.3,1.2,1.8,1.9c1.2,1.7,1.6,3.9,1.2,6l-0.1,0.3l0,0.2l0.2,0   c2,0.5,3.5,2.1,4,4.1c0.1,0.8,0.1,1.7,0,2.5c0.1-0.2,0.2-0.4,0.2-0.7c0.1-0.6,0.1-1.3,0-1.9c-0.4-2.2-2-3.9-4.1-4.4l0.1,0.2   l0.1-0.4c0.5-2.2,0-4.4-1.3-6.2c-0.4-0.5-0.9-1-1.4-1.4C217.1,77.8,216.9,77.7,216.7,77.6z"/>
        <path id="Path_498" fill="#FAFAFA" d="M231.2,90.9c0.2-0.2,0.4-0.4,0.6-0.6c1.1-1.7,1.2-3.8,0.3-5.6c-0.7-1.3-1.8-2.3-3.2-2.8   l0.1,0.3c0.1-0.1,0.2-0.3,0.3-0.4c0.8-1.3,1.1-2.8,0.8-4.3c-0.4-2.1-1.9-3.7-3.9-4.4c-0.3-0.1-0.6-0.2-0.9-0.2c1,0.3,2,0.9,2.8,1.6   c0.8,0.8,1.4,1.9,1.6,3c0.2,1.4-0.1,2.9-0.8,4.1c-0.1,0.1-0.2,0.3-0.3,0.4l-0.1,0.2l0.2,0.1c1.3,0.5,2.4,1.4,3,2.6   c0.5,1,0.7,2.1,0.6,3.2C232.1,89.1,231.7,90.1,231.2,90.9z"/>
</g>
    <g id="blue-document">
	<path id="Path_350" fill="#8DBADF" d="M124.5,78L91.2,95.5c-1.6,0.9-3.6,0.2-4.5-1.4c0,0,0,0,0,0L63.2,49.3   c-0.9-1.6-0.2-3.6,1.4-4.5c0,0,0,0,0,0l23.2-12.2l19.5,5.8l18.5,35.1C126.7,75.2,126.1,77.2,124.5,78C124.5,78,124.5,78,124.5,78z"/>
        <path id="Path_351" fill="#E0E0E0" d="M87.8,32.5l4.7,8.9c1.2,2.2,3.9,3,6.1,1.9c0,0,0,0,0,0l8.8-4.9L87.8,32.5z"/>
        <path id="Path_352" fill="#FFFFFF" d="M114.8,71.8c-0.3-0.5-0.6-1-0.9-1.6l-2.4-4.4L103,50.1l0.5,0.2c-6.6,3.5-14.4,7.6-22.6,12   c0,0.1,0.3-1.1,0.2-0.6l0,0l0,0l0,0l0,0l0,0.1l0.1,0.2l0.2,0.4l0.4,0.7l0.8,1.5l1.5,2.9l3,5.6c1.9,3.7,3.7,7.1,5.4,10.3L92,83.4   l16.4-8.4l4.7-2.4C113.7,72.3,114.3,72,114.8,71.8c-0.5,0.3-1,0.6-1.5,0.9l-4.5,2.5l-16.5,8.9L92,84.2l-0.2-0.3l-5.5-10.3   c-1-1.8-2-3.7-3-5.6c-0.5-1-1-1.9-1.5-2.9l-0.8-1.5l-0.4-0.7l-0.2-0.4l-0.1-0.2l0-0.1l0,0l0,0v0v0c-0.2,0.5,0.2-0.7,0.2-0.6   l22.7-11.9l0.3-0.2l0.2,0.3c3.4,6.6,6.2,12.1,8.2,16c0.9,1.8,1.7,3.3,2.2,4.4C114.4,70.7,114.6,71.3,114.8,71.8z"/>
        <path id="Path_353" fill="#FFFFFF" d="M103.4,78.1c-0.2,0.1-3-4.7-6.1-10.7s-5.6-11-5.4-11.1s3,4.7,6.1,10.7S103.6,78,103.4,78.1z"/>
        <path id="Path_354" fill="#FFFFFF" d="M111.9,66.5c0.1,0.2-4.9,3.1-11.2,6.4s-11.5,5.8-11.6,5.6s4.9-3.1,11.2-6.4   S111.8,66.3,111.9,66.5z"/>
        <path id="Path_355" fill="#FFFFFF" d="M109.3,60.8c0.1,0.2-4.9,3.1-11.2,6.4S86.6,73,86.5,72.8s4.9-3.1,11.2-6.4   S109.2,60.6,109.3,60.8z"/>
        <path id="Path_356" fill="#FFFFFF" d="M106.2,55.3c0.1,0.2-4.9,3-11.1,6.3s-11.4,5.8-11.5,5.6s4.9-3,11.1-6.3   S106.1,55.1,106.2,55.3z"/>
</g>
</svg>